<svg id="visual" viewBox="0 0 900 600" width="900" height="600" xmlns="http://www.w3.org/2000/svg" xmlns:xlink="http://www.w3.org/1999/xlink" version="1.1"><rect x="0" y="0" width="900" height="600" fill="#434648"></rect><defs><linearGradient id="grad1_0" x1="33.3%" y1="0%" x2="100%" y2="100%"><stop offset="20%" stop-color="#171615" stop-opacity="1"></stop><stop offset="80%" stop-color="#171615" stop-opacity="1"></stop></linearGradient></defs><defs><linearGradient id="grad1_1" x1="33.3%" y1="0%" x2="100%" y2="100%"><stop offset="20%" stop-color="#171615" stop-opacity="1"></stop><stop offset="80%" stop-color="#2b2d2c" stop-opacity="1"></stop></linearGradient></defs><defs><linearGradient id="grad1_2" x1="33.3%" y1="0%" x2="100%" y2="100%"><stop offset="20%" stop-color="#434648" stop-opacity="1"></stop><stop offset="80%" stop-color="#2b2d2c" stop-opacity="1"></stop></linearGradient></defs><defs><linearGradient id="grad2_0" x1="0%" y1="0%" x2="66.7%" y2="100%"><stop offset="20%" stop-color="#171615" stop-opacity="1"></stop><stop offset="80%" stop-color="#171615" stop-opacity="1"></stop></linearGradient></defs><defs><linearGradient id="grad2_1" x1="0%" y1="0%" x2="66.7%" y2="100%"><stop offset="20%" stop-color="#2b2d2c" stop-opacity="1"></stop><stop offset="80%" stop-color="#171615" stop-opacity="1"></stop></linearGradient></defs><defs><linearGradient id="grad2_2" x1="0%" y1="0%" x2="66.7%" y2="100%"><stop offset="20%" stop-color="#2b2d2c" stop-opacity="1"></stop><stop offset="80%" stop-color="#434648" stop-opacity="1"></stop></linearGradient></defs><g transform="translate(900, 0)"><path d="M0 459.7C-33.6 455.6 -67.1 451.5 -101.9 446.5C-136.7 441.5 -172.8 435.5 -197.9 410.8C-222.9 386.2 -237 342.9 -242.5 304.1C-248.1 265.4 -245.2 231.3 -269 214.5C-292.7 197.7 -343.2 198.2 -379.3 182.7C-415.4 167.1 -437.2 135.4 -448.2 102.3C-459.2 69.2 -459.4 34.6 -459.7 0L0 0Z" fill="#363a3a"></path><path d="M0 306.5C-22.4 303.8 -44.7 301 -67.9 297.7C-91.1 294.3 -115.2 290.3 -131.9 273.9C-148.6 257.5 -158 228.6 -161.7 202.8C-165.4 176.9 -163.5 154.2 -179.3 143C-195.1 131.8 -228.8 132.2 -252.9 121.8C-276.9 111.4 -291.5 90.3 -298.8 68.2C-306.1 46.1 -306.3 23.1 -306.5 0L0 0Z" fill="#212120"></path><path d="M0 153.2C-11.2 151.9 -22.4 150.5 -34 148.8C-45.6 147.2 -57.6 145.2 -66 136.9C-74.3 128.7 -79 114.3 -80.8 101.4C-82.7 88.5 -81.7 77.1 -89.7 71.5C-97.6 65.9 -114.4 66.1 -126.4 60.9C-138.5 55.7 -145.7 45.1 -149.4 34.1C-153.1 23.1 -153.1 11.5 -153.2 0L0 0Z" fill="#171615"></path></g><g transform="translate(0, 600)"><path d="M0 -459.7C35.6 -449.6 71.1 -439.5 92.8 -406.5C114.5 -373.6 122.3 -317.8 141.4 -293.7C160.6 -269.6 191 -277.1 214.5 -269C237.9 -260.8 254.3 -236.9 272.9 -217.6C291.4 -198.3 312.1 -183.6 346 -166.6C379.9 -149.6 427 -130.4 448.2 -102.3C469.3 -74.2 464.5 -37.1 459.7 0L0 0Z" fill="#363a3a"></path><path d="M0 -306.5C23.7 -299.7 47.4 -293 61.9 -271C76.3 -249.1 81.5 -211.9 94.3 -195.8C107.1 -179.7 127.4 -184.7 143 -179.3C158.6 -173.9 169.5 -157.9 181.9 -145.1C194.3 -132.2 208 -122.4 230.6 -111.1C253.3 -99.8 284.7 -87 298.8 -68.2C312.9 -49.4 309.7 -24.7 306.5 0L0 0Z" fill="#212120"></path><path d="M0 -153.2C11.9 -149.9 23.7 -146.5 30.9 -135.5C38.2 -124.5 40.8 -105.9 47.1 -97.9C53.5 -89.9 63.7 -92.4 71.5 -89.7C79.3 -86.9 84.8 -79 91 -72.5C97.1 -66.1 104 -61.2 115.3 -55.5C126.6 -49.9 142.3 -43.5 149.4 -34.1C156.4 -24.7 154.8 -12.4 153.2 0L0 0Z" fill="#171615"></path></g></svg>