<svg id="visual" viewBox="0 0 900 600" width="900" height="600" xmlns="http://www.w3.org/2000/svg" xmlns:xlink="http://www.w3.org/1999/xlink" version="1.1"><rect x="0" y="0" width="900" height="600" fill="#001122"></rect><defs><linearGradient id="grad1_0" x1="33.3%" y1="0%" x2="100%" y2="100%"><stop offset="20%" stop-color="#6600ff" stop-opacity="1"></stop><stop offset="80%" stop-color="#6600ff" stop-opacity="1"></stop></linearGradient></defs><defs><linearGradient id="grad1_1" x1="33.3%" y1="0%" x2="100%" y2="100%"><stop offset="20%" stop-color="#6600ff" stop-opacity="1"></stop><stop offset="80%" stop-color="#1e29e6" stop-opacity="1"></stop></linearGradient></defs><defs><linearGradient id="grad1_2" x1="33.3%" y1="0%" x2="100%" y2="100%"><stop offset="20%" stop-color="#0031c9" stop-opacity="1"></stop><stop offset="80%" stop-color="#1e29e6" stop-opacity="1"></stop></linearGradient></defs><defs><linearGradient id="grad1_3" x1="33.3%" y1="0%" x2="100%" y2="100%"><stop offset="20%" stop-color="#0031c9" stop-opacity="1"></stop><stop offset="80%" stop-color="#0031a9" stop-opacity="1"></stop></linearGradient></defs><defs><linearGradient id="grad1_4" x1="33.3%" y1="0%" x2="100%" y2="100%"><stop offset="20%" stop-color="#002c87" stop-opacity="1"></stop><stop offset="80%" stop-color="#0031a9" stop-opacity="1"></stop></linearGradient></defs><defs><linearGradient id="grad1_5" x1="33.3%" y1="0%" x2="100%" y2="100%"><stop offset="20%" stop-color="#002c87" stop-opacity="1"></stop><stop offset="80%" stop-color="#002565" stop-opacity="1"></stop></linearGradient></defs><defs><linearGradient id="grad1_6" x1="33.3%" y1="0%" x2="100%" y2="100%"><stop offset="20%" stop-color="#001c42" stop-opacity="1"></stop><stop offset="80%" stop-color="#002565" stop-opacity="1"></stop></linearGradient></defs><defs><linearGradient id="grad1_7" x1="33.3%" y1="0%" x2="100%" y2="100%"><stop offset="20%" stop-color="#001c42" stop-opacity="1"></stop><stop offset="80%" stop-color="#001122" stop-opacity="1"></stop></linearGradient></defs><defs><linearGradient id="grad2_0" x1="0%" y1="0%" x2="66.7%" y2="100%"><stop offset="20%" stop-color="#6600ff" stop-opacity="1"></stop><stop offset="80%" stop-color="#6600ff" stop-opacity="1"></stop></linearGradient></defs><defs><linearGradient id="grad2_1" x1="0%" y1="0%" x2="66.7%" y2="100%"><stop offset="20%" stop-color="#1e29e6" stop-opacity="1"></stop><stop offset="80%" stop-color="#6600ff" stop-opacity="1"></stop></linearGradient></defs><defs><linearGradient id="grad2_2" x1="0%" y1="0%" x2="66.7%" y2="100%"><stop offset="20%" stop-color="#1e29e6" stop-opacity="1"></stop><stop offset="80%" stop-color="#0031c9" stop-opacity="1"></stop></linearGradient></defs><defs><linearGradient id="grad2_3" x1="0%" y1="0%" x2="66.7%" y2="100%"><stop offset="20%" stop-color="#0031a9" stop-opacity="1"></stop><stop offset="80%" stop-color="#0031c9" stop-opacity="1"></stop></linearGradient></defs><defs><linearGradient id="grad2_4" x1="0%" y1="0%" x2="66.7%" y2="100%"><stop offset="20%" stop-color="#0031a9" stop-opacity="1"></stop><stop offset="80%" stop-color="#002c87" stop-opacity="1"></stop></linearGradient></defs><defs><linearGradient id="grad2_5" x1="0%" y1="0%" x2="66.7%" y2="100%"><stop offset="20%" stop-color="#002565" stop-opacity="1"></stop><stop offset="80%" stop-color="#002c87" stop-opacity="1"></stop></linearGradient></defs><defs><linearGradient id="grad2_6" x1="0%" y1="0%" x2="66.7%" y2="100%"><stop offset="20%" stop-color="#002565" stop-opacity="1"></stop><stop offset="80%" stop-color="#001c42" stop-opacity="1"></stop></linearGradient></defs><defs><linearGradient id="grad2_7" x1="0%" y1="0%" x2="66.7%" y2="100%"><stop offset="20%" stop-color="#001122" stop-opacity="1"></stop><stop offset="80%" stop-color="#001c42" stop-opacity="1"></stop></linearGradient></defs><g transform="translate(900, 0)"><path d="M0 486.7C-32.5 449.5 -65 412.2 -109.5 408.6C-154 405 -210.6 435 -243.4 421.5C-276.2 408.1 -285.2 351.1 -316.8 316.8C-348.3 282.4 -402.4 270.7 -409.6 236.5C-416.9 202.3 -377.4 145.7 -382.5 102.5C-387.6 59.3 -437.2 29.7 -486.7 0L0 0Z" fill="#001732"></path><path d="M0 425.9C-28.4 393.3 -56.8 360.7 -95.8 357.5C-134.8 354.3 -184.2 380.6 -213 368.8C-241.7 357.1 -249.6 307.2 -277.2 277.2C-304.8 247.1 -352.1 236.9 -358.4 206.9C-364.8 177 -330.3 127.4 -334.7 89.7C-339.1 51.9 -382.5 26 -425.9 0L0 0Z" fill="#002153"></path><path d="M0 365.1C-24.4 337.1 -48.7 309.2 -82.1 306.4C-115.5 303.7 -157.9 326.2 -182.5 316.2C-207.1 306.1 -213.9 263.3 -237.6 237.6C-261.2 211.8 -301.8 203 -307.2 177.4C-312.7 151.7 -283.1 109.2 -286.9 76.9C-290.7 44.5 -327.9 22.2 -365.1 0L0 0Z" fill="#002976"></path><path d="M0 304.2C-20.3 280.9 -40.6 257.6 -68.4 255.4C-96.3 253.1 -131.6 271.9 -152.1 263.5C-172.6 255 -178.3 219.5 -198 198C-217.7 176.5 -251.5 169.2 -256 147.8C-260.6 126.4 -235.9 91 -239.1 64.1C-242.2 37.1 -273.2 18.5 -304.2 0L0 0Z" fill="#002f99"></path><path d="M0 243.4C-16.2 224.7 -32.5 206.1 -54.7 204.3C-77 202.5 -105.3 217.5 -121.7 210.8C-138.1 204 -142.6 175.6 -158.4 158.4C-174.2 141.2 -201.2 135.3 -204.8 118.3C-208.5 101.2 -188.7 72.8 -191.3 51.2C-193.8 29.7 -218.6 14.8 -243.4 0L0 0Z" fill="#0032ba"></path><path d="M0 182.5C-12.2 168.6 -24.4 154.6 -41.1 153.2C-57.8 151.9 -79 163.1 -91.3 158.1C-103.6 153 -107 131.7 -118.8 118.8C-130.6 105.9 -150.9 101.5 -153.6 88.7C-156.3 75.9 -141.5 54.6 -143.4 38.4C-145.3 22.2 -163.9 11.1 -182.5 0L0 0Z" fill="#002fd8"></path><path d="M0 121.7C-8.1 112.4 -16.2 103.1 -27.4 102.1C-38.5 101.2 -52.6 108.7 -60.8 105.4C-69 102 -71.3 87.8 -79.2 79.2C-87.1 70.6 -100.6 67.7 -102.4 59.1C-104.2 50.6 -94.4 36.4 -95.6 25.6C-96.9 14.8 -109.3 7.4 -121.7 0L0 0Z" fill="#471ef3"></path><path d="M0 60.8C-4.1 56.2 -8.1 51.5 -13.7 51.1C-19.3 50.6 -26.3 54.4 -30.4 52.7C-34.5 51 -35.7 43.9 -39.6 39.6C-43.5 35.3 -50.3 33.8 -51.2 29.6C-52.1 25.3 -47.2 18.2 -47.8 12.8C-48.4 7.4 -54.6 3.7 -60.8 0L0 0Z" fill="#6600ff"></path></g><g transform="translate(0, 600)"><path d="M0 -486.7C37.4 -459.2 74.9 -431.7 111.6 -416.3C148.2 -400.9 184.1 -397.6 225.5 -390.6C266.9 -383.5 313.8 -372.7 344.2 -344.2C374.6 -315.6 388.4 -269.3 393.2 -227C397.9 -184.7 393.5 -146.4 407.6 -109.2C421.7 -72.1 454.2 -36 486.7 0L0 0Z" fill="#001732"></path><path d="M0 -425.9C32.8 -401.8 65.5 -377.8 97.6 -364.3C129.7 -350.8 161.1 -347.9 197.3 -341.8C233.5 -335.6 274.6 -326.1 301.2 -301.2C327.7 -276.2 339.9 -235.6 344 -198.6C348.2 -161.6 344.4 -128.1 356.7 -95.6C369 -63 397.4 -31.5 425.9 0L0 0Z" fill="#002153"></path><path d="M0 -365.1C28.1 -344.4 56.2 -323.8 83.7 -312.2C111.2 -300.7 138.1 -298.2 169.1 -292.9C200.2 -287.7 235.3 -279.6 258.1 -258.1C280.9 -236.7 291.3 -202 294.9 -170.3C298.4 -138.5 295.2 -109.8 305.7 -81.9C316.3 -54 340.7 -27 365.1 0L0 0Z" fill="#002976"></path><path d="M0 -304.2C23.4 -287 46.8 -269.8 69.7 -260.2C92.6 -250.6 115.1 -248.5 140.9 -244.1C166.8 -239.7 196.1 -233 215.1 -215.1C234.1 -197.3 242.8 -168.3 245.7 -141.9C248.7 -115.4 246 -91.5 254.8 -68.3C263.6 -45 283.9 -22.5 304.2 0L0 0Z" fill="#002f99"></path><path d="M0 -243.4C18.7 -229.6 37.4 -215.9 55.8 -208.2C74.1 -200.5 92.1 -198.8 112.7 -195.3C133.4 -191.8 156.9 -186.4 172.1 -172.1C187.3 -157.8 194.2 -134.7 196.6 -113.5C199 -92.3 196.8 -73.2 203.8 -54.6C210.8 -36 227.1 -18 243.4 0L0 0Z" fill="#0032ba"></path><path d="M0 -182.5C14 -172.2 28.1 -161.9 41.8 -156.1C55.6 -150.3 69 -149.1 84.6 -146.5C100.1 -143.8 117.7 -139.8 129.1 -129.1C140.5 -118.4 145.7 -101 147.4 -85.1C149.2 -69.3 147.6 -54.9 152.9 -41C158.1 -27 170.3 -13.5 182.5 0L0 0Z" fill="#002fd8"></path><path d="M0 -121.7C9.4 -114.8 18.7 -107.9 27.9 -104.1C37.1 -100.2 46 -99.4 56.4 -97.6C66.7 -95.9 78.4 -93.2 86 -86C93.6 -78.9 97.1 -67.3 98.3 -56.8C99.5 -46.2 98.4 -36.6 101.9 -27.3C105.4 -18 113.6 -9 121.7 0L0 0Z" fill="#471ef3"></path><path d="M0 -60.8C4.7 -57.4 9.4 -54 13.9 -52C18.5 -50.1 23 -49.7 28.2 -48.8C33.4 -47.9 39.2 -46.6 43 -43C46.8 -39.5 48.6 -33.7 49.1 -28.4C49.7 -23.1 49.2 -18.3 51 -13.7C52.7 -9 56.8 -4.5 60.8 0L0 0Z" fill="#6600ff"></path></g></svg>