<svg id="visual" viewBox="0 0 900 600" width="900" height="600" xmlns="http://www.w3.org/2000/svg" xmlns:xlink="http://www.w3.org/1999/xlink" version="1.1"><path d="M0 127L10.7 126C21.3 125 42.7 123 64.2 120C85.7 117 107.3 113 128.8 115C150.3 117 171.7 125 193 131C214.3 137 235.7 141 257 137C278.3 133 299.7 121 321.2 119C342.7 117 364.3 125 385.8 131C407.3 137 428.7 141 450 144C471.3 147 492.7 149 514.2 148C535.7 147 557.3 143 578.8 140C600.3 137 621.7 135 643 130C664.3 125 685.7 117 707 116C728.3 115 749.7 121 771.2 121C792.7 121 814.3 115 835.8 116C857.3 117 878.7 125 889.3 129L900 133L900 0L889.3 0C878.7 0 857.3 0 835.8 0C814.3 0 792.7 0 771.2 0C749.7 0 728.3 0 707 0C685.7 0 664.3 0 643 0C621.7 0 600.3 0 578.8 0C557.3 0 535.7 0 514.2 0C492.7 0 471.3 0 450 0C428.7 0 407.3 0 385.8 0C364.3 0 342.7 0 321.2 0C299.7 0 278.3 0 257 0C235.7 0 214.3 0 193 0C171.7 0 150.3 0 128.8 0C107.3 0 85.7 0 64.2 0C42.7 0 21.3 0 10.7 0L0 0Z" fill="#ffa35e"></path><path d="M0 331L10.7 329C21.3 327 42.7 323 64.2 311C85.7 299 107.3 279 128.8 278C150.3 277 171.7 295 193 308C214.3 321 235.7 329 257 334C278.3 339 299.7 341 321.2 339C342.7 337 364.3 331 385.8 329C407.3 327 428.7 329 450 336C471.3 343 492.7 355 514.2 354C535.7 353 557.3 339 578.8 328C600.3 317 621.7 309 643 299C664.3 289 685.7 277 707 280C728.3 283 749.7 301 771.2 310C792.7 319 814.3 319 835.8 315C857.3 311 878.7 303 889.3 299L900 295L900 131L889.3 127C878.7 123 857.3 115 835.8 114C814.3 113 792.7 119 771.2 119C749.7 119 728.3 113 707 114C685.7 115 664.3 123 643 128C621.7 133 600.3 135 578.8 138C557.3 141 535.7 145 514.2 146C492.7 147 471.3 145 450 142C428.7 139 407.3 135 385.8 129C364.3 123 342.7 115 321.2 117C299.7 119 278.3 131 257 135C235.7 139 214.3 135 193 129C171.7 123 150.3 115 128.8 113C107.3 111 85.7 115 64.2 118C42.7 121 21.3 123 10.7 124L0 125Z" fill="#fa862f"></path><path d="M0 439L10.7 435C21.3 431 42.7 423 64.2 412C85.7 401 107.3 387 128.8 383C150.3 379 171.7 385 193 393C214.3 401 235.7 411 257 416C278.3 421 299.7 421 321.2 418C342.7 415 364.3 409 385.8 408C407.3 407 428.7 411 450 418C471.3 425 492.7 435 514.2 433C535.7 431 557.3 417 578.8 412C600.3 407 621.7 411 643 407C664.3 403 685.7 391 707 394C728.3 397 749.7 415 771.2 422C792.7 429 814.3 425 835.8 415C857.3 405 878.7 389 889.3 381L900 373L900 293L889.3 297C878.7 301 857.3 309 835.8 313C814.3 317 792.7 317 771.2 308C749.7 299 728.3 281 707 278C685.7 275 664.3 287 643 297C621.7 307 600.3 315 578.8 326C557.3 337 535.7 351 514.2 352C492.7 353 471.3 341 450 334C428.7 327 407.3 325 385.8 327C364.3 329 342.7 335 321.2 337C299.7 339 278.3 337 257 332C235.7 327 214.3 319 193 306C171.7 293 150.3 275 128.8 276C107.3 277 85.7 297 64.2 309C42.7 321 21.3 325 10.7 327L0 329Z" fill="#e16d0f"></path><path d="M0 601L10.7 601C21.3 601 42.7 601 64.2 601C85.7 601 107.3 601 128.8 601C150.3 601 171.7 601 193 601C214.3 601 235.7 601 257 601C278.3 601 299.7 601 321.2 601C342.7 601 364.3 601 385.8 601C407.3 601 428.7 601 450 601C471.3 601 492.7 601 514.2 601C535.7 601 557.3 601 578.8 601C600.3 601 621.7 601 643 601C664.3 601 685.7 601 707 601C728.3 601 749.7 601 771.2 601C792.7 601 814.3 601 835.8 601C857.3 601 878.7 601 889.3 601L900 601L900 371L889.3 379C878.7 387 857.3 403 835.8 413C814.3 423 792.7 427 771.2 420C749.7 413 728.3 395 707 392C685.7 389 664.3 401 643 405C621.7 409 600.3 405 578.8 410C557.3 415 535.7 429 514.2 431C492.7 433 471.3 423 450 416C428.7 409 407.3 405 385.8 406C364.3 407 342.7 413 321.2 416C299.7 419 278.3 419 257 414C235.7 409 214.3 399 193 391C171.7 383 150.3 377 128.8 381C107.3 385 85.7 399 64.2 410C42.7 421 21.3 429 10.7 433L0 437Z" fill="#b5580e"></path></svg>