<?xml version="1.0" encoding="UTF-8" standalone="no"?>
<!-- Created with Inkscape (http://www.inkscape.org/) -->

<svg
   width="210mm"
   height="297mm"
   viewBox="0 0 210 297"
   version="1.1"
   id="svg8942"
   inkscape:version="1.2.1 (9c6d41e410, 2022-07-14)"
   sodipodi:docname="ryba.svg"
   xmlns:inkscape="http://www.inkscape.org/namespaces/inkscape"
   xmlns:sodipodi="http://sodipodi.sourceforge.net/DTD/sodipodi-0.dtd"
   xmlns:xlink="http://www.w3.org/1999/xlink"
   xmlns="http://www.w3.org/2000/svg"
   xmlns:svg="http://www.w3.org/2000/svg">
  <sodipodi:namedview
     id="namedview8944"
     pagecolor="#ffffff"
     bordercolor="#000000"
     borderopacity="0.25"
     inkscape:showpageshadow="2"
     inkscape:pageopacity="0.0"
     inkscape:pagecheckerboard="0"
     inkscape:deskcolor="#d1d1d1"
     inkscape:document-units="mm"
     showgrid="false"
     inkscape:zoom="0.74564394"
     inkscape:cx="466.71069"
     inkscape:cy="406.36017"
     inkscape:window-width="1920"
     inkscape:window-height="1017"
     inkscape:window-x="1912"
     inkscape:window-y="-8"
     inkscape:window-maximized="1"
     inkscape:current-layer="layer1"
     showguides="false" />
  <defs
     id="defs8939">
    <linearGradient
       inkscape:collect="always"
       id="linearGradient10319">
      <stop
         style="stop-color:#008000;stop-opacity:1;"
         offset="0"
         id="stop10315" />
      <stop
         style="stop-color:#00ff00;stop-opacity:1"
         offset="1"
         id="stop10317" />
    </linearGradient>
    <linearGradient
       inkscape:collect="always"
       id="linearGradient10311">
      <stop
         style="stop-color:#008000;stop-opacity:1;"
         offset="0"
         id="stop10307" />
      <stop
         style="stop-color:#00ff00;stop-opacity:1"
         offset="1"
         id="stop10309" />
    </linearGradient>
    <linearGradient
       inkscape:collect="always"
       id="linearGradient10305">
      <stop
         style="stop-color:#008000;stop-opacity:1;"
         offset="0"
         id="stop10301" />
      <stop
         style="stop-color:#00ff00;stop-opacity:1"
         offset="1"
         id="stop10303" />
    </linearGradient>
    <linearGradient
       inkscape:collect="always"
       id="linearGradient10289">
      <stop
         style="stop-color:#00ff00;stop-opacity:1;"
         offset="0"
         id="stop10285" />
      <stop
         style="stop-color:#008000;stop-opacity:1"
         offset="1"
         id="stop10287" />
    </linearGradient>
    <linearGradient
       inkscape:collect="always"
       id="linearGradient10283">
      <stop
         style="stop-color:#008000;stop-opacity:1;"
         offset="0"
         id="stop10279" />
      <stop
         style="stop-color:#00ff00;stop-opacity:1"
         offset="1"
         id="stop10281" />
    </linearGradient>
    <linearGradient
       inkscape:collect="always"
       id="linearGradient10257">
      <stop
         style="stop-color:#00ff00;stop-opacity:1;"
         offset="0"
         id="stop10253" />
      <stop
         style="stop-color:#008000;stop-opacity:1"
         offset="1"
         id="stop10255" />
    </linearGradient>
    <linearGradient
       inkscape:collect="always"
       id="linearGradient10178">
      <stop
         style="stop-color:#ffff00;stop-opacity:1;"
         offset="0"
         id="stop10174" />
      <stop
         style="stop-color:#ff0000;stop-opacity:1"
         offset="1"
         id="stop10176" />
    </linearGradient>
    <linearGradient
       inkscape:collect="always"
       id="linearGradient9996">
      <stop
         style="stop-color:#0000ff;stop-opacity:1;"
         offset="0"
         id="stop9992" />
      <stop
         style="stop-color:#0000ff;stop-opacity:0;"
         offset="1"
         id="stop9994" />
    </linearGradient>
    <linearGradient
       inkscape:collect="always"
       id="linearGradient9915">
      <stop
         style="stop-color:#00ff00;stop-opacity:1;"
         offset="0"
         id="stop9911" />
      <stop
         style="stop-color:#ff0000;stop-opacity:1"
         offset="1"
         id="stop9913" />
    </linearGradient>
    <linearGradient
       inkscape:collect="always"
       id="linearGradient9703">
      <stop
         style="stop-color:#ff6600;stop-opacity:1;"
         offset="0"
         id="stop9699" />
      <stop
         style="stop-color:#ffff00;stop-opacity:1"
         offset="1"
         id="stop9701" />
    </linearGradient>
    <linearGradient
       inkscape:collect="always"
       xlink:href="#linearGradient9703"
       id="linearGradient9705"
       x1="269.23038"
       y1="401.33096"
       x2="307.62003"
       y2="405.68961"
       gradientUnits="userSpaceOnUse"
       gradientTransform="matrix(1.2290956,0,0,1.2821548,-280.98639,-387.2754)" />
    <linearGradient
       inkscape:collect="always"
       xlink:href="#linearGradient9915"
       id="linearGradient9917"
       x1="325.38989"
       y1="398.48108"
       x2="345.16739"
       y2="408.06882"
       gradientUnits="userSpaceOnUse"
       gradientTransform="matrix(1.2290956,0,0,1.2821548,-280.98639,-387.2754)" />
    <linearGradient
       inkscape:collect="always"
       xlink:href="#linearGradient9996"
       id="linearGradient9998"
       x1="374.94083"
       y1="411.0954"
       x2="367.11719"
       y2="408.60608"
       gradientUnits="userSpaceOnUse"
       gradientTransform="matrix(1.2290956,0,0,1.2821548,-280.98639,-387.2754)" />
    <linearGradient
       inkscape:collect="always"
       xlink:href="#linearGradient10178"
       id="linearGradient10180"
       x1="341.86826"
       y1="428.40219"
       x2="350.16605"
       y2="450.45056"
       gradientUnits="userSpaceOnUse"
       gradientTransform="matrix(1.2290956,0,0,1.2821548,-280.98639,-387.2754)" />
    <linearGradient
       inkscape:collect="always"
       xlink:href="#linearGradient10257"
       id="linearGradient10259"
       x1="334.75589"
       y1="434.68478"
       x2="336.65253"
       y2="439.90054"
       gradientUnits="userSpaceOnUse"
       gradientTransform="matrix(1.2290956,0,0,1.2821548,-280.98639,-387.2754)" />
    <linearGradient
       inkscape:collect="always"
       xlink:href="#linearGradient10283"
       id="linearGradient10277"
       x1="330.01431"
       y1="375.65207"
       x2="326.69519"
       y2="379.32678"
       gradientUnits="userSpaceOnUse"
       gradientTransform="matrix(1.2290956,0,0,1.2821548,-280.98639,-387.2754)" />
    <linearGradient
       inkscape:collect="always"
       xlink:href="#linearGradient10289"
       id="linearGradient10291"
       x1="314.01144"
       y1="372.21442"
       x2="313.53729"
       y2="378.02286"
       gradientUnits="userSpaceOnUse"
       gradientTransform="matrix(1.2290956,0,0,1.2821548,-280.98639,-387.2754)" />
    <linearGradient
       inkscape:collect="always"
       xlink:href="#linearGradient10305"
       id="linearGradient10299"
       x1="327.64349"
       y1="370.08069"
       x2="323.49463"
       y2="376.00766"
       gradientUnits="userSpaceOnUse"
       gradientTransform="matrix(1.2290956,0,0,1.2821548,-280.98639,-387.2754)" />
    <linearGradient
       inkscape:collect="always"
       xlink:href="#linearGradient10311"
       id="linearGradient10313"
       x1="332.26654"
       y1="371.26608"
       x2="329.30307"
       y2="378.85263"
       gradientUnits="userSpaceOnUse"
       gradientTransform="matrix(1.2290956,0,0,1.2821548,-280.98639,-387.2754)" />
    <linearGradient
       inkscape:collect="always"
       xlink:href="#linearGradient10319"
       id="linearGradient10321"
       x1="327.76205"
       y1="370.08069"
       x2="323.25754"
       y2="376.60037"
       gradientUnits="userSpaceOnUse"
       gradientTransform="matrix(1.2290956,0,0,1.2821548,-280.98639,-387.2754)" />
  </defs>
  <g
     inkscape:label="Warstwa 1"
     inkscape:groupmode="layer"
     id="layer1">
    <path
       style="fill:none;stroke:#000000;stroke-width:1.25535px;stroke-linecap:butt;stroke-linejoin:miter;stroke-opacity:1"
       d="m 52.367284,104.55176 c -0.0088,0.48023 -0.98704,0.48071 -1.165577,0.75994 -0.05383,0.0843 0.03066,0.20788 0,0.30384 -0.150511,0.47102 -0.430118,0.58607 -0.582788,1.06387 -0.106056,0.33195 0.219773,1.29062 0,1.51988 -0.03438,0.034 -0.111348,-0.034 -0.145682,0 -0.03438,0.034 0,0.10135 0,0.15217 0,0.40513 -0.171228,1.31466 0,1.67185 0.06146,0.12841 0.229949,0.17591 0.291408,0.30384 0.0623,0.12987 0.08333,0.32613 0.145679,0.45601 0.303159,0.63253 -0.0098,-0.16235 0.291407,0.15216 0.07683,0.08 0.06893,0.22388 0.14568,0.30384 0.113812,0.11865 0.438571,0.10185 0.582783,0.15215 0.130306,0.0436 0.161056,0.25878 0.291407,0.30385 0.358764,0.12497 0.529593,0.12396 0.874166,0.30384 0.1165,0.0605 0.320532,-0.0605 0.437086,0 0.06146,0.034 0.08051,0.12938 0.145679,0.15217 0.398111,0.13858 2.296004,0.0195 2.622548,-0.15217 0.606349,-0.31644 -0.155761,0.0101 0.145679,-0.30384 0.0687,-0.0717 0.204491,0.0436 0.291406,0 0.09536,-0.0499 0.541747,-0.37024 0.582785,-0.456 0.05346,-0.11145 0.254289,-0.33971 0.291405,-0.456 0.03066,-0.096 -0.03066,-0.20791 0,-0.30385 0.06416,-0.20111 0.344225,-0.41433 0.437087,-0.60792 0.06513,-0.13617 -0.046,-0.3116 0,-0.45601 0.02184,-0.0678 0.123981,-0.0839 0.145679,-0.15215 0.101508,-0.31741 -0.07805,-0.73847 0,-1.06388 0.02648,-0.11007 0.09708,-0.20257 0.14568,-0.30385 0.04855,-0.15216 0.108426,-0.30044 0.14568,-0.45599 0.119848,-0.49993 -0.05518,-1.0475 -0.14568,-1.51989 -0.0381,-0.19869 0.08692,-0.42644 0,-0.60792 -0.02184,-0.0436 -0.123981,0.0436 -0.14568,0 -0.0432,-0.0906 0.03066,-0.20789 0,-0.30384 -0.151579,-0.47442 -0.09708,0.0508 -0.291406,-0.15217 -0.108522,-0.11335 -0.209089,-0.52205 -0.291406,-0.60797 -0.102982,-0.10754 -0.298885,0.0484 -0.437086,0 -0.306549,-0.10653 -0.537338,-0.52006 -0.874171,-0.60792 -0.688759,-0.17978 -1.869528,-0.30384 -2.622547,-0.30384 -0.157896,0 -0.916891,-0.10766 -1.019865,0 -0.03438,0.034 0.03438,0.11638 0,0.15217 -0.03438,0.0339 -0.111346,-0.034 -0.14568,0 -0.192598,0.20061 -0.14568,0.87804 -0.14568,1.06387 z"
       id="path9465" />
    <path
       style="fill:none;stroke:#000000;stroke-width:1.25535px;stroke-linecap:butt;stroke-linejoin:miter;stroke-opacity:1"
       d="m 55.426908,107.74349 c -0.487953,0.0926 -0.718653,0.12105 -0.874181,0.60792 -0.01532,0.0484 0.03438,0.11626 0,0.15216 -0.301439,0.3145 0.01212,-0.4807 -0.291405,0.15216 -0.134909,0.28154 -0.0051,1.36225 0.145679,1.51989 0.05677,0.0591 0.493876,0 0.582789,0 0.11887,0 0.70041,0.0586 0.728482,0 0.0432,-0.0906 -0.0432,-0.21323 0,-0.30385 0.02184,-0.0436 0.123982,0.0436 0.145681,0 0.08923,-0.18608 -0.06318,-0.56203 0,-0.75994 0.02182,-0.0678 0.114929,-0.0877 0.145679,-0.15216 0.19427,-0.40512 -0.341855,-0.83887 -0.582789,-1.21589 z"
       id="path9467" />
    <path
       style="fill:none;stroke:#000000;stroke-width:1.25535px;stroke-linecap:butt;stroke-linejoin:miter;stroke-opacity:1"
       d="m 54.844118,108.35141 c 0.114324,-0.1701 0.116514,1.48964 0.145682,1.36787 0.06012,-0.25054 0.173041,-0.50316 0.145679,-0.75991 -0.02415,-0.22532 -0.388541,-0.81062 -0.291406,-0.60796 0.392677,0.8193 0.437086,0.65232 0.437086,1.21589 0,0.0547 -0.138759,0.90828 0.14568,0.75995 0.290058,-0.15119 0.347567,-0.98145 0.291406,-1.2159 -0.0037,-0.0145 -0.405406,0 -0.437086,0"
       id="path9469" />
    <path
       style="fill:none;stroke:#000000;stroke-width:1.25535px;stroke-linecap:butt;stroke-linejoin:miter;stroke-opacity:1"
       d="m 86.023184,96.800464 c -0.853942,0.126238 -1.772052,-0.147846 -2.622549,0 -0.409122,0.07114 -0.77765,0.202802 -1.165565,0.303981 -0.188467,0.04903 -0.394349,-0.04903 -0.582789,0 -0.472572,0.123205 -0.965095,0.370487 -1.456972,0.45601 -0.365772,0.06343 -0.813929,0.02919 -1.165564,0.152168 -0.06518,0.02426 -0.07896,0.134716 -0.14567,0.152167 -0.319985,0.0834 -0.699922,-0.0834 -1.01988,0 -0.441185,0.114739 -0.87592,0.342598 -1.311276,0.455997 -0.464305,0.121057 -0.989264,0.07076 -1.456958,0.152155 -0.214247,0.03867 -0.369823,0.259754 -0.582789,0.303843 -0.190506,0.03879 -0.398484,-0.06394 -0.582789,0 -0.565386,0.196748 -1.153948,0.200628 -1.748367,0.303842 -1.27895,0.222426 0.222707,0.05573 -0.728472,0.303842 -0.692179,0.180751 -1.474789,0.484594 -2.185458,0.607925 -0.143672,0.02427 -0.295722,-0.03867 -0.437078,0 -0.202963,0.05282 -0.663231,0.382816 -0.87417,0.455996 -0.124836,0.0436 -0.818434,0.094 -1.019881,0.30384 -0.261714,0.27282 0.628646,0.11184 -0.291408,0.30385 -0.142845,0.0291 -0.29572,-0.0388 -0.437078,0 -0.163803,0.0436 -0.284216,0.37604 -0.437092,0.45599 -0.08694,0.0436 -0.204491,-0.0436 -0.291408,0 -0.198029,0.10324 -0.384732,0.3528 -0.582789,0.45601 -0.293819,0.15314 -0.473867,0.10476 -0.728472,0.30385 -0.164864,0.12889 -0.2528,0.35955 -0.437078,0.456 -0.220985,0.11525 -1.037876,0.32273 -1.165578,0.456 -0.03445,0.0339 0.03431,0.11626 0,0.15216 -0.06875,0.0718 -0.199241,-0.0339 -0.291408,0 -1.104056,0.3838 0.05263,-0.0547 -0.291408,0.30384 -0.09398,0.0979 -0.709431,0.37023 -0.874184,0.45601 -0.08695,0.0436 -0.222693,-0.0717 -0.291407,0 -0.07289,0.0761 -0.07289,0.22775 -0.145671,0.30383 -0.10086,0.10526 -0.627528,0.0484 -0.728486,0.15217 -0.03431,0.0339 0.03445,0.11625 0,0.15215 -0.06875,0.0717 -0.222693,-0.0716 -0.291394,0 -0.07289,0.0761 -0.07289,0.22777 -0.145685,0.30386 -0.07289,0.0761 -0.364246,-0.0761 -0.437086,0 -0.19427,0.20256 0.242816,0.15215 -0.145679,0.15215"
       id="path9471" />
    <path
       style="fill:none;stroke:#000000;stroke-width:1.25535px;stroke-linecap:butt;stroke-linejoin:miter;stroke-opacity:1"
       d="m 51.056009,111.54314 c -0.661352,-0.0436 -0.858782,0.37217 -1.311272,0.60792 -0.08692,0.0436 -0.222701,-0.0716 -0.291406,0 -0.301439,0.31451 0.460685,-0.0145 -0.14568,0.30385 -0.324062,0.16912 -0.961091,0.48531 -1.165564,0.9119 -0.216149,0.45116 -0.328384,0.95049 -0.728485,1.36786 -0.03438,0.034 -0.111347,-0.0339 -0.145681,0 -0.0687,0.0718 0.0687,0.23261 0,0.30385 -0.07684,0.08 -0.214618,0.0716 -0.291406,0.15216 -0.13913,0.1449 -0.179358,0.58461 -0.291406,0.7599 -0.07623,0.11916 -0.229947,0.1759 -0.291406,0.30383 -0.0432,0.0906 0.0432,0.21322 0,0.30385 -0.06146,0.12792 -0.20895,0.18946 -0.291406,0.30383 -0.269294,0.3746 -0.442753,0.84334 -0.728488,1.21589 -0.148419,0.19335 -0.381758,0.62013 -0.582774,0.75995 -0.268644,0.18706 -0.716734,0.43128 -0.874181,0.75993 -0.02184,0.0436 0,0.10134 0,0.15217 -0.04855,0.10134 -0.08543,0.20983 -0.14568,0.30384 -0.409817,0.64121 0.250016,-0.82565 -0.437086,0.60792 -0.141359,0.29512 -0.06304,0.74637 -0.291404,1.06394 -0.08245,0.11474 -0.229949,0.1759 -0.291408,0.30383 -0.0432,0.0906 0.02368,0.20547 0,0.30383 -0.14568,0.60797 -0.604923,1.4141 -0.87418,1.97584 -0.295401,0.61637 -0.627381,1.18023 -0.874172,1.82381 -0.06503,0.16962 -0.236033,0.28254 -0.291406,0.45601 -0.03066,0.096 0.01905,0.20451 0,0.30384 -0.12835,0.66947 -0.428724,1.33298 -0.582789,1.97584 -0.200263,0.83569 -0.123748,-0.38428 -0.437085,0.75994 -0.05332,0.19481 0.03809,0.40947 0,0.60793 -0.0135,0.0703 -0.126821,0.0834 -0.14568,0.15215 -0.09759,0.35667 -0.02648,0.99444 -0.14568,1.36787 -0.05542,0.17348 -0.236032,0.28252 -0.291405,0.45601 -0.06146,0.19238 0.0381,0.40899 0,0.60791 -0.07991,0.41724 -0.21146,0.79891 -0.291407,1.2159 -0.08864,0.4623 -0.01116,1.55453 -0.14568,1.97584 -0.02184,0.0679 -0.123981,0.0839 -0.145679,0.15216 -0.166538,0.52124 0,2.75385 0,3.49572 0,0.58776 -0.149814,2.41881 0,2.88769 0.143821,0.45019 0.150882,0.9282 0.291406,1.36791 0.02184,0.0678 0.129052,0.0824 0.145679,0.15216 0.03531,0.14732 -0.06513,0.31983 0,0.45601 0.04855,0.10135 0.231156,0.0576 0.291407,0.15216 0.0209,0.034 0.114047,1.08374 0.145679,1.2159 0.0859,0.3586 0.351191,0.70546 0.437086,1.06391 0.06809,0.28446 0.05765,0.63618 0.14568,0.91193 0.09588,0.29995 0.356766,0.5767 0.437086,0.91191 0.102018,0.42546 0.189393,0.79031 0.291406,1.21588 0.09035,0.37702 0.398668,0.37605 0.437086,0.456 0.0432,0.0906 -0.03066,0.20789 0,0.30386 0.02182,0.0678 0.114929,0.0882 0.145679,0.15215 0.02183,0.0436 -0.03438,0.11638 0,0.15217 0.03438,0.0339 0.123982,-0.0436 0.14568,0 0.0432,0.0906 -0.04321,0.21321 0,0.30383 0.02182,0.0436 0.111347,-0.0339 0.14568,0 0.08445,0.0882 0.206952,0.51987 0.291406,0.60797 0.03438,0.034 0.123981,-0.0436 0.14568,0 0.0432,0.0906 -0.03066,0.2079 0,0.30384 0.0746,0.23358 0.31807,0.11778 0.437085,0.30385 0.05383,0.0843 -0.03066,0.20789 0,0.30384 0.0938,0.29366 0.247554,0.0528 0.437086,0.15215 0.0432,0.0243 -0.02694,0.11007 0,0.15216 0.172483,0.26993 0.339951,0.55729 0.582789,0.7599 0.119944,0.10034 0.317141,0.0518 0.437086,0.15216 0.136754,0.11448 0.167559,0.32662 0.291405,0.45599 0.153577,0.16041 0.429188,0.14393 0.582789,0.30386 0.07683,0.08 0.05877,0.236 0.145679,0.30383 0.122922,0.096 0.303764,0.0721 0.437086,0.15217 0.498006,0.29705 0.821972,0.75762 1.311278,1.06388 0.63652,0.39832 -0.10545,-0.13085 0.728482,0.30384 0.50657,0.2641 0.959753,0.629 1.456969,0.91191 0.364292,0.2074 0.809753,0.23309 1.165564,0.456 0.09318,0.0581 0.05886,0.23601 0.14568,0.30385 0.245695,0.19238 0.599456,0.16087 0.87418,0.30383 0.604348,0.31499 1.152157,0.75292 1.748366,1.06388 0.40796,0.21274 0.903312,0.24327 1.311258,0.456 1.070765,0.55849 -0.346919,0.0819 1.165578,0.60796 0.280071,0.0974 0.73925,0.1575 1.019879,0.30386 0.175828,0.0916 0.399319,0.40802 0.582774,0.456 0.141359,0.0388 0.294239,-0.0292 0.437086,0 0.582616,0.12156 1.155877,0.60544 1.748367,0.75994 0.934141,0.24375 1.970101,0.46473 2.913923,0.75994 0.250485,0.0785 0.477986,0.22533 0.728485,0.30384 0.501467,0.15701 1.136354,0.21273 1.602656,0.456 0.06146,0.0339 0.07895,0.13471 0.145684,0.15216 0.141356,0.0387 0.293406,-0.0243 0.437078,0 0.748176,0.13035 1.437282,0.62987 2.185459,0.75995 0.683663,0.11865 0.232035,-0.20014 1.019866,0.15216 0.577099,0.25828 0.260282,0.36441 0.874183,0.456 0.425339,0.0634 0.900322,0.0291 1.311276,0.15215 0.208859,0.0624 0.37674,0.23212 0.582788,0.30385 0.547239,0.19044 2.201483,-0.0436 2.768234,0.15215 0.677959,0.23601 1.321319,0.0897 2.039747,0.15217 0.342239,0.0291 0.678566,0.11246 1.019867,0.15217 0.815017,0.0945 1.663283,-0.10615 2.476853,0 0.152366,0.0195 0.286475,0.12055 0.437092,0.15215 0.325676,0.0679 3.092421,0.10526 3.496719,0 0.744608,-0.19432 1.532384,-0.30383 2.331142,-0.30383 1.583408,0 3.232249,-0.13714 4.807981,0 1.306426,0.11348 2.599099,0.50292 3.933812,0.30383 1.027211,-0.15313 2.037681,-0.32272 3.059628,-0.456 0.397409,-0.0518 0.767536,-0.25779 1.165578,-0.30384 0.673329,-0.078 1.367258,-0.0644 2.03975,-0.15217 1.18174,-0.15408 0.0409,-0.0732 1.01987,-0.45599 0.41926,-0.16428 0.88649,-0.15653 1.31126,-0.30383 0.26373,0.0916 0.27097,-0.24618 0.43708,-0.30384 0.0921,-0.034 0.19428,0 0.29141,0 0.14568,-0.0508 0.29592,-0.0887 0.43709,-0.15217 0.5651,-0.25248 1.06079,-0.62929 1.60267,-0.91191 1.29146,-0.67363 2.79501,-1.23684 3.9338,-2.1278 0.4599,-0.36007 0.18192,0.11448 0.72848,-0.45601 0.12387,-0.12937 0.15687,-0.3392 0.2914,-0.456 0.70705,-0.61461 0.4283,0.0145 0.87417,-0.60791 0.47692,-0.66333 0.94553,-1.33561 1.45698,-1.97584 0.13199,-0.16525 0.33483,-0.26944 0.43709,-0.456 0.0993,-0.18124 0.0563,-0.42112 0.14567,-0.60794 0.0615,-0.12841 0.22071,-0.18123 0.29141,-0.30383 0.0789,-0.13714 0.077,-0.31257 0.14569,-0.45601 0.19245,-0.40173 1.03197,-1.30768 1.31125,-1.67184 0.21109,-0.27525 0.11602,-0.43954 0.29141,-0.75994 0.24866,-0.45408 0.58258,-0.8103 0.87419,-1.2159 0.58679,-0.81616 1.26688,-3.89996 1.31127,-4.10359 0.17875,-0.8205 -0.15836,-1.75791 0,-2.58376 0.0214,-0.11108 0.12786,-0.19238 0.14568,-0.30384 0.0673,-0.42063 0,-0.9356 0,-1.36786 0,-0.4245 -0.10183,-1.09451 0,-1.51988 0.0265,-0.11006 0.11933,-0.19432 0.14567,-0.30384 0.13641,-0.56926 -0.0926,-1.24459 0,-1.82383 0.0256,-0.15796 0.10844,-0.30044 0.14569,-0.45601 0.0532,-0.22193 0.0771,-4.16614 0,-4.40761 -0.0219,-0.0679 -0.12911,-0.0824 -0.14569,-0.15217 -0.12566,-0.52447 0.12566,-1.14732 0,-1.67183 -0.0167,-0.0692 -0.124,-0.0839 -0.14567,-0.15217 -0.11547,-0.36103 -0.0321,-0.86055 -0.14568,-1.2159 -0.0214,-0.0674 -0.10541,-0.5239 -0.14569,-0.60796 -0.0306,-0.0639 -0.12401,-0.0839 -0.14567,-0.15217 -0.0615,-0.19239 0.038,-0.409 0,-0.60792 -0.01,-0.0523 -0.11245,-0.80798 -0.14568,-0.91196 -0.0219,-0.0679 -0.1291,-0.0824 -0.14568,-0.15216 -0.08,-0.3339 0.0799,-0.73015 0,-1.06393 -0.0528,-0.21952 -0.23873,-0.38815 -0.29141,-0.60792 -0.0983,-0.41094 -0.0771,-0.78728 -0.14569,-1.21589 -0.0359,-0.2234 -0.22269,-0.39302 -0.2914,-0.60793 -0.41265,-1.29144 0.0228,-0.0101 -0.14567,-1.06393 -0.0821,-0.5141 -0.58201,-1.31447 -0.72848,-1.82381 -0.0848,-0.29513 -0.0739,-0.61297 -0.14569,-0.91191 -0.0957,-0.39931 -0.42561,-0.58404 -0.58279,-0.91192 -0.0895,-0.18704 -0.0562,-0.42111 -0.14567,-0.60797 -0.0615,-0.12841 -0.24036,-0.17106 -0.29141,-0.30383 -0.0541,-0.14102 0.0461,-0.3116 0,-0.456 -0.0839,-0.26266 -1.07141,-2.15703 -1.16557,-2.27977 -0.35146,-0.45844 -0.85578,-0.88313 -1.16557,-1.36788 -0.26934,-0.42159 -0.34751,-0.80685 -0.58279,-1.21589 -0.26659,-0.46327 -0.72709,-0.90977 -1.01988,-1.36786 -0.45394,-0.71032 0.28532,0.1822 -0.43708,-0.75995 -0.16004,-0.20886 -0.43831,-0.38185 -0.58278,-0.60797 -0.30387,-0.47539 -0.71698,-0.89388 -1.01988,-1.36785 -0.12043,-0.18851 -0.15233,-0.43372 -0.29142,-0.60792 -0.11202,-0.14053 -0.30037,-0.18998 -0.43708,-0.30385 -0.21453,-0.17883 -0.36825,-0.42886 -0.5828,-0.60797 -0.83661,-0.69816 -1.68175,-1.2786 -2.62252,-1.82381 -0.36517,-0.21178 -0.64621,-0.56505 -1.01988,-0.75996 -0.17908,-0.0935 -0.41619,-0.034 -0.58279,-0.15215 -0.14568,-0.10135 -0.15465,-0.34164 -0.29141,-0.456 -0.11987,-0.10033 -0.30539,-0.0697 -0.43708,-0.15217 -0.23557,-0.14731 -0.33708,-0.47975 -0.5828,-0.60797 -0.0869,-0.0436 -0.20453,0.0436 -0.2914,0 -0.33387,-0.17398 -0.71918,-0.67663 -1.01987,-0.91191 -0.507076,-0.39688 -1.191539,-0.58922 -1.748355,-0.9119 -1.006915,-0.58355 -2.002201,-1.3511 -3.059642,-1.82388 -0.227626,-0.10185 -0.522423,-0.0101 -0.728472,-0.15215 -0.171464,-0.11917 -0.237188,-0.40367 -0.437078,-0.45601 -0.350409,-0.0916 -0.452331,0.13617 -0.728486,-0.15216 -0.07689,-0.08 -0.05539,-0.24133 -0.145684,-0.30384 -0.08088,-0.0562 -0.197147,0.0243 -0.291408,0 -0.415997,-0.10855 -0.927397,-0.40754 -1.311275,-0.60798 -0.160261,-0.0839 -0.429926,-0.40269 -0.582789,-0.456006 -0.09217,-0.03399 -0.199242,0.034 -0.291408,0 -0.232118,-0.081 -0.456961,-0.385246 -0.728486,-0.455997 -0.248846,-0.06495 -0.493309,-0.0537 -0.728473,-0.152155 -0.486846,-0.203042 -0.995547,-0.719378 -1.456972,-0.911906 -0.09025,-0.03867 -0.199242,0.03386 -0.291408,0 -0.1926,-0.06685 -0.397092,-0.359089 -0.582775,-0.45601 -0.269859,-0.141022 -0.618463,-0.21516 -0.874184,-0.303842 -0.09714,-0.0508 -0.194268,-0.101344 -0.291408,-0.152155 0,-0.0508 0.04037,-0.123963 0,-0.152168 C 85.587553,97.206143 85.402352,97.27999 85.148891,97.1037 84.920989,96.945189 84.566102,97.05909 84.566102,96.799706"
       id="path9473" />
    <path
       style="fill:none;stroke:#000000;stroke-width:1.25535px;stroke-linecap:butt;stroke-linejoin:miter;stroke-opacity:1"
       d="m 38.089013,141.48441 c 0.101178,0.93459 0.732835,0.10425 1.01988,0.30383 0.114322,0.0795 0.173597,0.2302 0.291405,0.30386 0.395138,0.24714 0.891192,0.28056 1.311271,0.45599 0.201657,0.0843 0.429189,0.14393 0.582789,0.30383 0.03438,0.034 -0.0432,0.1294 0,0.15217 0.08692,0.0436 0.197152,-0.0243 0.29136,0 0.411861,0.10754 0.757014,0.48615 1.165578,0.60794 1.100248,0.32806 2.229665,0.59278 3.351019,0.75993 0.396439,0.0591 0.768183,0.25198 1.165574,0.30384 0.82931,0.10817 1.651708,0.16041 2.476839,0.30384 0.378043,0.0658 0.787553,-0.0658 1.165572,0 0.589934,0.10274 1.139694,0.39251 1.748367,0.45601 0.820142,0.0858 1.656095,0.0742 2.476835,0.15214 0.637154,0.0605 1.263573,0.22196 1.894051,0.30386 0.573828,0.0751 1.174548,-0.0747 1.748362,0 0.878177,0.11436 1.567228,0.15215 2.476837,0.15215 0.603664,0 1.295084,-0.0892 1.894063,0 0.198222,0.0292 0.384086,0.12599 0.58279,0.15217 0.621631,0.0809 1.272404,-0.081 1.89405,0 0.198676,0.0243 0.384071,0.12599 0.582788,0.15217 0.524918,0.0684 1.079062,-0.078 1.602656,0 0.152049,0.0243 0.285608,0.12548 0.437092,0.15215 1.105323,0.19239 2.462413,-0.0339 3.496733,-0.30384 0.188454,-0.0489 0.394295,0.0489 0.582776,0 0.263713,0.0916 0.270961,-0.24617 0.437078,-0.30383 0.09219,-0.034 0.204546,0.0436 0.291408,0 0.04327,-0.0243 -0.03445,-0.11638 0,-0.15217 0.0153,-0.0145 0.930924,-0.21129 1.01988,-0.30384 0.07689,-0.08 0.06889,-0.22388 0.145685,-0.30384 0.136134,-0.14198 0.592378,-0.16185 0.728471,-0.30384 0.03445,-0.034 -0.03431,-0.11638 0,-0.15217 0.123872,-0.12938 0.31329,-0.17493 0.437092,-0.30383 0.177637,-0.18511 0.259441,-0.42257 0.437092,-0.60798 0.07689,-0.08 0.231153,-0.0576 0.291394,-0.15216 0.08915,-0.13956 0.104581,-0.58839 0.145684,-0.75994 0.05277,-0.22 0.222706,-0.393 0.291408,-0.60793 0.170307,-0.53289 0.309335,-1.13869 0.437092,-1.67183 0.03527,-0.14732 -0.04602,-0.3116 0,-0.45601 0.356154,-1.11457 0.291394,-2.30449 0.291394,-3.49567 0,-1.63525 0.172911,-3.39216 0,-5.01554 8.13e-4,-0.47637 -0.235838,-0.9044 -0.291394,-1.36787 -0.115191,-0.96163 0.151291,-0.2922 -0.145684,-0.9119"
       id="path9475" />
    <path
       style="fill:none;stroke:#000000;stroke-width:1.25535px;stroke-linecap:butt;stroke-linejoin:miter;stroke-opacity:1"
       d="m 72.182002,130.23742 c 1.649698,0.40851 3.27214,-0.37799 4.807996,-0.91191 0.799709,-0.27816 1.60858,-0.38283 2.331141,-0.75995 0.308315,-0.16087 1.28398,-0.14246 1.748353,-0.30383"
       id="path9477" />
    <path
       style="fill:none;stroke:#000000;stroke-width:1.25535px;stroke-linecap:butt;stroke-linejoin:miter;stroke-opacity:1"
       d="m 48.287777,111.84712 c 0.104471,-0.60536 4.45e-4,-1.52176 0.14568,-2.12784 0.175874,-0.73393 0.06921,0.0101 0.291406,-0.45601 0.122783,-0.25634 0.03485,-0.6808 0.145679,-0.91191 0.09329,-0.1948 0.226649,-0.40512 0.291407,-0.60792 0.07586,-0.23745 0.04459,-0.85338 0.145679,-1.06393 0.145401,-0.30336 1.184442,-1.36786 1.45697,-1.36786"
       id="path9479" />
    <path
       style="fill:none;stroke:#000000;stroke-width:1.25535px;stroke-linecap:butt;stroke-linejoin:miter;stroke-opacity:1"
       d="m 84.566212,96.496495 c 0.117809,-0.864645 0.609947,-0.01403 0.874184,-0.151965 0.431318,-0.225004 0.954265,-0.324882 1.456972,-0.455959 0.188453,-0.04903 0.398484,0.06407 0.582775,0 0.06517,-0.02287 0.08046,-0.129334 0.145669,-0.151966 0.34516,-0.120045 0.809176,0.07443 1.165578,0 1.025779,-0.214048 2.036234,-0.242442 3.059628,-0.455959 0.49014,-0.102355 1.102416,0 1.60267,0 1.408402,0 2.81679,0 4.225206,0 0.408239,0 0.617346,-0.06786 1.019854,-0.151953 0.531876,-0.110947 3.969842,-0.08896 4.225212,0 0.0652,0.02287 0.0843,0.119793 0.14568,0.151953 0.17373,0.09073 0.39435,-0.04903 0.58279,0 0.0666,0.01744 0.0804,0.129346 0.14568,0.151978 0.21856,0.07607 0.50994,-0.07607 0.72849,0 0.42281,0.147012 0.81668,0.03058 1.16558,0.151965 0.10292,0.03589 0.18488,0.129776 0.29138,0.151966 0.23814,0.04953 0.49292,-0.06141 0.72849,0 0.21071,0.05484 0.37674,0.232307 0.58279,0.303994 0.53337,0.185452 1.24929,0.34764 1.74836,0.607924 0.0615,0.0321 0.0804,0.129334 0.14568,0.151966 0.21855,0.07607 0.50994,-0.07607 0.72849,0 0.79427,0.276219 1.67029,0.444435 2.47683,0.759978 0.40907,0.159927 0.87406,0.516728 1.31127,0.607925 0.14284,0.02906 0.30181,-0.05623 0.43709,0 0.68673,0.286404 -0.0833,0.316934 0.58279,0.45601 0.2718,0.05661 0.63041,0.02426 0.87418,0.152167 0.12291,0.06394 0.16588,0.245677 0.29141,0.30383 0.32309,0.149741 0.68987,0.171552 1.01986,0.303842 1.19074,0.477821 2.31186,1.025459 3.49672,1.519829 0.85524,0.35716 1.73123,1.22821 2.47684,1.51988 0.23186,0.0906 0.49356,0.0703 0.72849,0.15217 0.68189,0.23696 1.26183,0.73411 1.89405,1.06388 0.13738,0.0717 0.30929,0.0629 0.43708,0.15216 0.17146,0.11916 0.26043,0.34552 0.43708,0.456 0.57706,0.36102 0.006,-0.44923 0.5828,0.15216 0.0345,0.0339 -0.0343,0.11626 0,0.15217 0.0768,0.08 0.20454,0.0839 0.2914,0.15216 0.64754,0.50664 -0.12138,0.12695 0.7285,0.75994 0.49675,0.37023 1.11678,0.50645 1.60264,0.91195 0.76318,0.63687 1.34004,1.59864 2.18545,2.12776 0.13173,0.0824 0.31423,0.0557 0.4371,0.15217 0.0753,0.0586 0.51189,0.7106 0.58278,0.75992 0.0808,0.0562 0.2227,-0.0718 0.29141,0 0.10871,0.11348 0.0372,0.34263 0.14567,0.45601 0.10871,0.11335 0.3054,0.0698 0.43709,0.15217 0.33704,0.2108 0.50963,0.60748 0.72849,0.91191 0.786,1.09324 -0.16175,-0.3208 0.58279,0.456 0.0768,0.08 0.0553,0.24133 0.14569,0.30385 0.0807,0.0562 0.19924,-0.034 0.2914,0 0.2311,0.0805 0.30022,0.4652 0.43708,0.60791 0.53029,0.55321 0.10238,-0.16136 0.43709,0.30384 0.19483,0.27089 0.30306,0.56543 0.58278,0.75995 1.26163,0.8774 -0.10707,-0.3465 1.16557,0.75994 0.86508,0.75204 -0.35826,-0.22195 0.58279,0.75994 0.10858,0.11347 0.50046,0.21806 0.58279,0.30384 0.0769,0.08 0.0971,0.20256 0.14567,0.30384 0.14569,0.15216 0.27619,0.32177 0.43709,0.456 0.29239,0.24423 0.70634,0.3901 1.01987,0.60796 0.1258,0.0877 0.49743,0.36685 0.58279,0.45601 0.0768,0.08 0.0589,0.236 0.14569,0.30384 0.1229,0.096 0.31718,0.0518 0.43708,0.15216 0.13668,0.11448 0.15129,0.34649 0.2914,0.45601 0.0777,0.0605 0.19428,0 0.2914,0 0.14569,0.10134 0.3133,0.17494 0.4371,0.30384 0.0768,0.08 0.0587,0.236 0.14568,0.30384 0.12291,0.0964 0.29972,0.0805 0.43708,0.15217 0.15047,0.0785 0.50314,0.28978 0.58279,0.456 0.0219,0.0436 -0.0433,0.12939 0,0.15216 0.0869,0.0436 0.19924,-0.034 0.2914,0 0.11423,0.0387 0.66482,0.56053 0.72849,0.60797 0.19762,0.14732 0.38853,0.30384 0.58279,0.45599 0.2914,0.15217 0.6031,0.26752 0.87417,0.45601 0.17142,0.11917 0.25281,0.36005 0.43709,0.456 0.2215,0.11537 0.49662,0.0615 0.72849,0.15217 1.14197,-0.52791 0.2528,0.36006 0.43708,0.45601 0.0869,0.0436 0.19715,-0.0243 0.29141,0 0.31607,0.0824 0.57838,0.31352 0.87418,0.456 0.43709,0.20256 0.87418,0.40512 1.31127,0.60797 0.19427,0.0508 0.39528,0.0785 0.5828,0.15216 0.37144,0.14538 0.94508,0.41724 1.31125,0.60797 0.31323,0.1633 0.5523,0.46376 0.87419,0.60793 0.91023,0.40705 1.98005,0.56507 2.91393,0.75994 0.64008,0.13374 1.26364,0.4434 1.89405,0.60792 0.84678,0.22099 1.76639,0.42935 2.62254,0.60798 0.60223,0.12548 1.29921,-0.15509 1.89406,0 0.8206,0.21418 5.79193,0.31158 6.55633,0.15215 0.10638,-0.0243 0.18605,-0.12447 0.29141,-0.15215 0.0942,-0.0243 0.21058,0.0562 0.29141,0 0.0904,-0.0629 0.0485,-0.25345 0.14569,-0.30386 0.23291,-0.12156 0.75568,-0.0145 1.01986,-0.15215 0.0753,-0.0387 2.02752,-1.95456 2.03975,-1.97583 0.64632,-1.12368 -0.44717,0.24133 0.43709,-0.91191 0.21443,-0.27962 0.45139,-0.69515 0.72849,-0.91192 0.0869,-0.0679 0.23115,-0.0576 0.2914,-0.15216 0.0481,-0.0751 0.10775,-0.48916 0.14567,-0.60793 0.13586,-0.42499 0.47349,-0.75988 0.58278,-1.21589 0.20913,-0.8726 0.4587,-1.82962 0.58279,-2.73576 0.0481,-0.35085 -0.0481,-0.7128 0,-1.06389 0.0716,-0.52239 0.37554,-1.00621 0.43709,-1.51988 0.0598,-0.49976 -0.11974,-1.17209 0,-1.67185 0.0265,-0.11006 0.11133,-0.19674 0.14568,-0.30384 0.11671,-0.3649 -0.0897,-0.84144 0,-1.21588 0.0265,-0.11007 0.12443,-0.19287 0.14567,-0.30386 0.0748,-0.38961 -0.0746,-0.82618 0,-1.21589 0.0688,-0.35957 0.17909,-0.71235 0.29141,-1.06388 0.0564,-0.1759 -0.0423,-0.43128 0,-0.60796 0.18796,-0.78423 0.28324,-1.62932 0.43709,-2.43179 0.0491,-0.25588 0.24234,-0.50413 0.29141,-0.7599 0.11119,-0.5801 0.01,-1.25762 0.14567,-1.82387 0.021,-0.0872 0.25187,-0.71869 0.29141,-0.75989 0.0345,-0.034 0.13034,0.0484 0.14568,0 0.11065,-0.34599 0.0321,-0.86064 0.14568,-1.2159 0.0894,-0.28008 0.36839,-0.47343 0.43708,-0.75992 0.0472,-0.19675 -0.0615,-0.41579 0,-0.607979 0.0687,-0.21516 0.13783,-0.447771 0.29141,-0.607937 0.0345,-0.03387 0.12401,0.04372 0.14568,0 0.18943,-0.395419 0.16941,-0.843569 0.43708,-1.215888 0.33012,-0.458916 0.69295,-0.913144 1.01989,-1.36789 0.14567,-0.202663 0.43708,-0.253297 0.58278,-0.45596 0.0922,-0.128221 0.0666,-0.318576 0.14569,-0.455959 0.25851,-0.449502 0.8288,-0.560601 1.16556,-0.911918 0.0768,-0.08011 0.069,-0.22388 0.14568,-0.303994 0.73197,-0.763555 0.15363,0.02376 0.72848,-0.455947 0.49937,-0.416698 0.93785,-0.98104 1.45702,-1.367878 0.17653,-0.131659 0.39857,-0.183897 0.58276,-0.303981 1.32255,-0.862283 2.58335,-1.759556 4.0795,-2.279784 1.61423,-0.561309 3.28542,-0.595528 4.95366,-0.911931 4.82557,-0.915242 -1.00948,-0.03917 4.51659,-0.759941 0.43621,-0.05686 0.88462,-0.263229 1.31131,-0.151965 0.5626,0.146746 0.9654,0.655564 1.45694,0.911918 0.65759,0.343003 2.3693,0.994321 3.05964,1.2159 0.23691,0.07607 0.4966,0.06129 0.7285,0.151978 0.20346,0.07948 0.58276,0.53054 0.58276,0.303981 0,-0.182659 -0.27455,0.236137 -0.43713,0.303982 -0.13517,0.05636 -0.29313,-0.02527 -0.43714,0 -0.76198,0.132492 -0.15469,0.09667 -0.72848,0.455946 -0.42598,0.26673 -0.86736,0.07241 -1.31127,0.303994 -0.15655,0.08163 -0.27082,0.246221 -0.43713,0.303982 -0.49363,0.17164 -1.09529,0.046 -1.60266,0.151978 -0.10638,0.02237 -0.18489,0.129763 -0.29126,0.151952 -0.23832,0.04953 -0.51128,-0.113095 -0.7285,0 -0.12305,0.06407 -0.16399,0.250782 -0.29126,0.303994 -0.21509,0.08972 -0.90237,0.09073 -1.31131,0.303982 -0.22762,0.118655 -0.87514,0.381518 -1.01984,0.60795 -0.0604,0.09427 -0.0687,0.223891 -0.14588,0.303981 -0.20765,0.216714 -0.50092,0.125858 -0.72848,0.303994 -0.0869,0.06798 -0.0971,0.202662 -0.14587,0.303981 -0.14586,0.05055 -0.30939,0.06306 -0.43714,0.151978 -0.0418,0.02818 0.0325,0.116129 0,0.151953 -0.0325,0.03589 -0.11147,-0.03589 -0.14585,0 -0.23972,0.250112 -0.28616,0.51252 -0.58282,0.75994 -0.13655,0.114107 -0.3131,0.174787 -0.43713,0.303982 -0.0767,0.08012 -0.0688,0.223879 -0.14587,0.303981 -0.29777,0.310641 -0.51219,0.231929 -0.72849,0.60795 -0.56739,0.986524 0.30149,-0.01011 -0.43714,0.759941 -0.27872,0.290751 -0.55424,0.700385 -0.72849,1.063921 -0.0418,0.09212 -0.0846,0.392525 -0.14586,0.455998 -0.19418,0.202561 -0.13983,-0.322254 -0.29127,0.152167 -0.11753,0.368301 -0.0632,0.858798 -0.29127,1.215888 -0.0279,0.0436 -0.12401,-0.0436 -0.14586,0 -0.0897,0.18706 -0.071,0.41385 -0.14587,0.60797 -0.0279,0.0663 -0.12028,0.0853 -0.14586,0.15217 -0.092,0.23988 -0.01,0.54497 -0.14587,0.75994 -0.0762,0.11916 -0.20904,0.18949 -0.29126,0.30385 -0.17188,0.23939 -0.17607,0.51977 -0.29127,0.75989 -0.0775,0.16234 0.0776,0.14198 0,0.30382 -0.15376,0.32082 -0.34656,0.68712 -0.43713,1.06389 -0.0233,0.0984 0.0325,0.20789 0,0.30385 -0.0233,0.0679 -0.12402,0.0839 -0.14587,0.15216 -0.0465,0.14441 0.10307,0.34842 0,0.456 -0.0767,0.08 -0.24296,0.0504 -0.29127,0.15216 -0.0651,0.13617 0.0279,0.30675 0,0.456 -0.0636,0.33196 -0.21182,0.73213 -0.29127,1.06394 0.0877,0.27524 -0.23597,0.28251 -0.29125,0.45599 -0.0418,0.13665 0.0418,0.31935 0,0.45601 -0.0687,0.21467 -0.23878,0.38815 -0.29128,0.60791 -0.11932,0.49904 -0.17187,1.02085 -0.29127,1.51989 -0.20764,0.8666 -0.52604,1.58695 -0.72848,2.43178 -0.10678,0.44536 -0.091,0.91095 -0.14587,1.36787 -0.072,0.60182 -0.29591,1.23494 -0.43713,1.82381 -0.0488,0.20256 -0.0971,0.40512 -0.14587,0.60797 0,0.15217 0.0279,0.30675 0,0.45601 -0.0233,0.11108 -0.12456,0.19287 -0.14587,0.30385 -0.0372,0.19868 0.10776,0.43953 0,0.60796 -0.0762,0.11916 -0.24805,0.16816 -0.29126,0.30385 -0.0614,0.19238 0.0325,0.40802 0,0.60792 -0.0767,0.47926 -0.29126,0.85404 -0.29126,1.36787 0,0.64291 -0.34795,1.32579 -0.43714,1.97582 -0.06,0.43905 0.0836,0.93217 0,1.36787 -0.11009,0.57352 -0.0684,0.95615 -0.14585,1.51988 -0.0757,0.55365 -0.22393,1.10841 -0.29128,1.67186 -0.0957,0.79865 0.0516,0.4303 0.14587,1.21588 0.13475,1.12514 0,2.3596 0,3.49567 0,0.97389 0.15283,2.08293 0,3.03972 -0.0186,0.11183 -0.13049,0.19189 -0.14587,0.30384 -0.13843,1.01183 0,2.16458 0,3.19173 0,0.92945 -0.14447,1.98203 0,2.88769 0.13751,0.8618 0.31729,1.71017 0.43713,2.58382 0.0539,0.39299 -0.0748,0.8269 0,1.21583 0.0883,0.46133 0.2174,0.9044 0.29127,1.36792 0.12635,0.79133 0.10459,1.65192 0.29126,2.43174 -0.0877,0.27524 0.23599,0.28251 0.29127,0.45599 0.0761,0.23843 0.10169,1.09341 0.14586,1.36792 0.0684,0.42741 0.33959,0.80879 0.43714,1.2159 0.091,0.37943 0.21879,0.83621 0.29126,1.21584 0.0279,0.14926 -0.0539,0.31498 0,0.45601 0.0512,0.13326 0.22994,0.17591 0.29128,0.30383 0.0418,0.0906 -0.0325,0.2079 0,0.30385 0.0873,0.2733 0.3614,0.59711 0.43713,0.91191 0.0232,0.0984 -0.0325,0.20885 0,0.30383 0.87997,2.44788 -0.0139,-0.17833 0.87417,1.36786 0.0502,0.0868 -0.0325,0.20791 0,0.30386 0.0952,0.29704 0.57497,0.24229 0.72849,0.45599 0.0919,0.12843 0.0669,0.31838 0.14586,0.45601 0.16027,0.27816 0.38836,0.50663 0.58282,0.75993 0.44596,0.58167 0.10679,0.0839 0.58275,0.456 0.41996,0.32856 0.18908,0.21953 0.43714,0.60794 0.22298,0.34938 0.083,-0.065 0.43713,0.30383 0.0325,0.034 -0.0279,0.11006 0,0.15216 0.13476,0.2108 0.26526,0.42887 0.43714,0.60793 0.35397,0.36926 0.21369,-0.0436 0.43713,0.30384 0.0604,0.094 0.0553,0.24133 0.14586,0.30384 0.0808,0.0562 0.21045,-0.0562 0.29127,0 0.53236,0.37022 -0.15608,0.22243 0.29128,0.45601 0.71553,0.37313 1.41108,0.82133 2.03974,1.36791 0.12456,0.10854 0.64305,0.83156 0.87421,0.9119 0.092,0.0339 0.19929,-0.034 0.29127,0 0.19557,0.0679 0.27594,0.32177 0.43713,0.45601 0.76663,0.63976 0.74996,0.7391 1.31131,1.51988 0.37907,0.52728 1.17286,0.77511 1.45698,1.36787 0.27687,0.57719 -1.02445,-0.76469 0.29127,0.60791 0.0767,0.08 0.23134,0.0576 0.29126,0.15217 0.0539,0.0843 -0.0418,0.21322 0,0.30383 0.0233,0.0436 0.11147,-0.034 0.14588,0 0.2067,0.21565 0.27407,0.65663 0.43713,0.91192 0.13104,0.20546 0.52752,0.3775 0.5828,0.60796 0.12126,0.50607 -0.15562,0.36685 0.14586,0.75995 0.1287,0.16766 0.34516,0.26361 0.43714,0.456 0.0897,0.18706 0.0869,0.81746 0.14588,1.06387 0.15283,0.63845 0.6588,1.73786 0.43713,2.43179 -0.0233,0.0678 -0.12401,0.0839 -0.14588,0.15216 -0.0604,0.18949 -0.13751,0.75138 -0.29125,0.91191 -0.0325,0.034 -0.11148,-0.034 -0.14588,0 -0.0325,0.034 0.0325,0.11638 0,0.15217 -0.0325,0.0339 -0.10224,-0.0243 -0.14586,0 -0.16955,0.0887 -0.26757,0.21565 -0.43714,0.30384 -0.18489,0.0964 -1.15145,0.0436 -1.31124,0 -0.13339,-0.0339 -0.16864,-0.23988 -0.29128,-0.30384 -0.0418,-0.0243 -0.11147,0.0339 -0.14586,0 -0.0325,-0.034 0.0325,-0.11638 0,-0.15217 -0.0766,-0.08 -0.21462,-0.0717 -0.29127,-0.15217 -0.17653,-0.18413 -0.14447,-0.60665 -0.29127,-0.75987 -0.0521,-0.0542 -0.43202,-0.14684 -0.43713,-0.15217 -0.0325,-0.0339 0,-0.10135 0,-0.15216 -0.0971,-0.10134 -0.17699,-0.22437 -0.29127,-0.30385 -0.39996,-0.27814 -1.01195,-0.37604 -1.45698,-0.60791 -0.24993,-0.13036 -0.06,-0.29513 -0.29126,-0.456 -0.13146,-0.30191 -0.4037,-0.0586 -0.58277,-0.15217 -0.0418,-0.0243 0,-0.10134 0,-0.15217 -0.0488,-0.0508 -0.0803,-0.12938 -0.14587,-0.15215 -0.73574,-0.25588 0.30335,0.61741 -0.87417,-0.30384 -0.31077,-0.24327 0.47388,-0.0887 -0.14586,-0.30385 -0.0924,-0.034 -0.2044,0.0436 -0.29128,0 -0.52399,-0.27331 -0.10678,-0.26314 -0.43712,-0.60792 -0.3642,-0.37993 -1.13948,-0.51837 -1.60267,-0.75994 -0.37859,-0.19772 -0.81034,-0.37653 -1.16557,-0.60798 -0.20579,-0.13422 -0.35956,-0.35617 -0.58282,-0.45599 -0.13379,-0.0595 -0.30195,0.0562 -0.43713,0 -0.12732,-0.0533 -0.18164,-0.21807 -0.29127,-0.30385 -0.4153,-0.32468 -1.07881,-0.36539 -1.45697,-0.75989 -0.0767,-0.08 -0.0687,-0.22387 -0.14588,-0.30384 -0.27919,-0.29123 -0.69407,-0.53334 -1.0199,-0.75994 -0.27407,-0.19044 -0.0956,-0.32273 -0.43712,-0.60792 -0.11988,-0.10034 -0.32845,-0.0387 -0.43714,-0.15216 -0.10871,-0.11347 -0.0372,-0.34261 -0.14587,-0.45601 -0.10871,-0.11335 -0.32843,-0.0387 -0.43712,-0.15217 -0.10873,-0.11334 -0.0669,-0.31837 -0.14587,-0.45599 -0.16956,-0.29463 -0.49024,-0.40075 -0.72848,-0.60797 -0.62296,-0.54154 -0.2699,-0.31401 -0.72845,-0.9119 -0.57674,-0.75201 0.0279,0.18219 -0.7285,-0.60794 -0.17746,-0.18511 -0.0683,-0.3397 -0.29127,-0.456 -0.0418,-0.0243 -0.11148,0.0339 -0.14586,0 -0.24528,-0.25586 -0.15145,-0.86515 -0.43714,-1.06393 -0.0808,-0.0562 -0.22298,0.0718 -0.2914,0 -0.0688,-0.0717 0.0307,-0.20788 0,-0.30383 -0.10886,-0.34068 -0.65111,-0.621 -0.87417,-0.91191 -0.7224,-0.94196 0.0167,-0.0494 -0.4371,-0.7599 -0.22316,-0.34938 -0.0832,0.065 -0.43708,-0.30383 -0.21527,-0.22437 -0.41201,-0.64471 -0.5828,-0.9119 -0.2231,-0.34941 -0.0832,0.065 -0.43707,-0.30386 -0.21411,-0.2234 -1.02379,-1.22402 -1.16558,-1.51987 -0.0433,-0.0906 0.0433,-0.21322 0,-0.30385 -0.22967,-0.47926 -1.47442,-1.42243 -1.60266,-1.82381 -0.11533,-0.36103 0.17249,-0.27622 -0.14567,-0.60793 -0.0768,-0.08 -0.21462,-0.0717 -0.29141,-0.15215 -0.0345,-0.034 0.0218,-0.10666 0,-0.15217 -0.0521,-0.10867 -1.55504,-1.78409 -1.60267,-1.82381 -0.18962,-0.15848 -0.36559,-0.34261 -0.58278,-0.45601 -0.0433,-0.0243 -0.11133,0.0339 -0.14569,0 -0.0687,-0.0716 0.0687,-0.2326 0,-0.30385 -0.0343,-0.0339 -0.11133,0.034 -0.14567,0 -0.0769,-0.08 -0.0688,-0.22388 -0.14568,-0.30384 -0.0687,-0.0718 -0.21058,0.0562 -0.29141,0 -0.11436,-0.0795 -0.1815,-0.21806 -0.29141,-0.30383 -0.67016,-0.52433 0.15303,0.30916 -0.72847,-0.30385 -0.17146,-0.11916 -0.26042,-0.34552 -0.43709,-0.456 -0.72849,-0.456 0,0.22777 -0.43709,0 -0.23631,-0.12308 -0.48074,-0.32661 -0.72849,-0.456 -0.29563,-0.1541 -1.13366,0 -1.45695,0 -0.37242,0 -1.13826,-0.16622 -1.45697,0 -0.0433,0.0243 0.0343,0.11638 0,0.15217 -0.0586,0.061 -0.35467,-0.0292 -0.43709,0 -0.10293,0.0339 -0.18488,0.12985 -0.2914,0.15214 -0.22647,0.0484 -0.97015,0.0703 -1.16557,0.15217 -0.12759,0.0533 -0.16853,0.23988 -0.2914,0.30386 -0.31705,0.16523 -0.37596,-0.0931 -0.72848,0.15215 -0.16075,0.11183 -0.26498,0.36635 -0.43709,0.456 -0.15539,0.081 -0.136,-0.081 -0.29141,0 -0.19683,0.10273 -0.39375,0.20548 -0.58279,0.30385 -0.22052,0.11474 -0.6972,0.42352 -0.87418,0.60791 -0.0769,0.08 -0.0689,0.22388 -0.14568,0.30385 -0.10197,0.10665 -0.5784,0.22581 -0.72848,0.30384 -0.60636,0.31644 0.15576,-0.0101 -0.14568,0.30383 -0.0485,0.0504 -0.38854,0.10134 -0.43708,0.15217 -0.0343,0.034 0.0218,0.10665 0,0.15216 -0.1468,0.30627 -0.50056,0.3368 -0.72849,0.45601 -0.50923,0.26554 0.27129,0.0195 -0.14568,0.456 -0.0687,0.0717 -0.20454,-0.0436 -0.2914,0 -0.0181,0.0101 -0.1697,0.39251 -0.2914,0.456 -0.0869,0.0436 -0.22271,-0.0716 -0.29141,0 -0.0729,0.0761 -0.0729,0.22776 -0.14569,0.30384 -0.0861,0.0897 -0.64984,0.26314 -0.72848,0.30384 -0.43707,0.22776 0.29141,0.15216 -0.43707,0.45601 -0.13532,0.0562 -0.29575,-0.0388 -0.4371,0 -0.019,0.005 -0.9265,0.69495 -1.01988,0.75989 -0.26896,0.18705 -0.60521,0.26894 -0.87419,0.456 -0.59032,0.41044 -1.04624,0.82895 -1.60265,1.2159 -0.12773,0.0887 -0.30933,0.0629 -0.4371,0.15215 -0.27272,0.18949 -0.37603,0.53442 -0.72847,0.60793 -0.14284,0.0291 -0.29573,-0.0388 -0.43708,0 -0.40425,0.10526 0.0124,0.13859 -0.14569,0.30384 -0.20816,0.21709 -0.77595,0.32855 -1.01987,0.456 -0.2345,0.12207 -0.49233,0.52584 -0.7285,0.60797 -0.55609,0.19335 -0.0491,-0.40463 -0.72847,0.30385 -0.0343,0.034 0.0461,0.13617 0,0.15216 -0.13825,0.0484 -0.29423,-0.0292 -0.43708,0 -0.42984,0.0897 -0.78493,0.56145 -1.16558,0.75993 -0.43758,0.22825 -0.94392,0.3523 -1.31127,0.60798 -0.1952,0.13569 -0.36434,0.37992 -0.58277,0.45601 -0.0922,0.034 -0.19924,-0.0339 -0.29141,0 -0.19548,0.0679 -0.24579,0.37604 -0.43709,0.45599 -0.1353,0.0562 -0.29424,-0.0292 -0.43708,0 -0.32082,0.0668 -1.03949,0.57095 -1.31128,0.75996 -0.30134,0.20933 -0.56763,0.19721 -0.87417,0.30383 -0.1926,0.0668 -0.39705,0.35909 -0.58277,0.45599 -0.17715,0.0926 -0.67719,0.0984 -0.72849,0.15217 -0.0729,0.0761 -0.0729,0.22776 -0.14568,0.30384 -0.0729,0.0761 -0.36425,-0.0761 -0.4371,0 -0.0345,0.034 0.0433,0.12939 0,0.15217 -0.75061,0.39154 -0.87418,-1.89878 -0.87418,-2.27977 0,-0.5806 0.0308,-0.0243 -0.14566,-0.75995 -0.0725,-0.30238 -0.12485,-4.4728 0,-4.86358 0.0218,-0.0679 0.11491,-0.0882 0.14566,-0.15215 0.25109,-0.5239 -0.17898,-1.4157 0,-1.97584 0.18911,-0.59189 0.14568,-0.0145 0.14568,-0.60793 0,-0.20885 0.10321,-1.26012 0,-1.36791 -0.14159,-0.1478 -0.40368,-0.0586 -0.58278,-0.15217 -0.44429,-0.23163 0.26646,-0.12068 -0.43709,-0.30383 -0.16034,-0.0436 -0.76704,0.11183 -0.87418,0 -0.0343,-0.0339 0.0433,-0.1294 0,-0.15217 -0.19301,-0.10084 -0.80955,0 -1.01986,0 -0.27454,0 -0.80734,0.0388 -1.01988,0.15217 -0.0182,0.0101 -0.1697,0.39252 -0.29141,0.456 -0.0433,0.0243 -0.11133,-0.0339 -0.14569,0 -0.0343,0.034 0.0345,0.11638 0,0.15216 -0.0343,0.0339 -0.11877,-0.0436 -0.14568,0 -0.0414,0.065 -0.28095,1.05298 -0.29139,1.06388 -0.0345,0.034 -0.11134,-0.0339 -0.14568,0 -0.021,0.0195 0,2.34282 0,2.58376 0,0.71656 0.13324,1.58481 0,2.27982 -0.10624,0.55418 -0.25499,0.37992 -0.4371,0.75994 -0.0583,0.12157 0.0583,0.33437 0,0.45601 -0.138,0.28783 -0.35309,0.71337 -0.43707,1.06386 -0.0353,0.14733 0.0652,0.31984 0,0.45601 -0.0724,0.1507 -0.2411,0.29852 -0.29141,0.456 -0.0615,0.19239 0.0869,0.42693 0,0.60792 -0.0615,0.12843 -0.22996,0.17593 -0.29142,0.30386 -0.15534,0.32419 -0.0589,0.70187 -0.14567,1.06387 -0.10652,0.44437 -0.34971,0.76009 -0.43708,1.2159 -0.27213,1.41927 -0.29141,2.78519 -0.29141,4.2556 0,0.66676 0.10527,1.46822 0,2.1278 -0.10458,0.6546 -0.20151,1.3197 -0.29141,1.97583 -0.0677,0.49439 0.0786,1.0273 0,1.51988 -0.0251,0.15798 -0.12401,0.29755 -0.14568,0.45601 -0.10197,0.74472 0.10196,1.53505 0,2.27977 -0.0738,0.53926 -0.35077,3.3718 -0.14567,3.79966 0.14298,0.29851 0.37762,0.69176 0.43708,1.06392 0.0241,0.14974 -0.0288,0.30675 0,0.45601 0.0427,0.22193 0.23873,0.38815 0.2914,0.60792 0.0353,0.14732 -0.10293,0.34841 0,0.456 0.0343,0.0339 0.11134,-0.034 0.14569,0 0.0567,0.0591 0.34984,1.03394 0.43708,1.21589 0.0832,0.1735 0.30943,0.62678 0.43709,0.75995 0.0343,0.0339 0.124,-0.0436 0.14568,0 0.0433,0.0906 -0.0433,0.21321 0,0.30384 0.0485,0.10135 0.23116,0.0576 0.2914,0.15216 0.23951,0.37459 0.43151,0.45018 0.72847,0.75994 0.50195,0.5236 0.9495,1.48315 1.60267,1.82381 0.35885,0.18706 -0.13145,-0.44097 0.43709,0.15217 0.0768,0.08 0.0589,0.236 0.14568,0.30384 0.36685,0.28688 1.69179,0.60293 2.18543,0.91191 0.17668,0.11057 0.2372,0.40367 0.43709,0.45599 0.14137,0.0388 0.29573,-0.0387 0.4371,0 0.0666,0.0195 0.0804,0.1294 0.14567,0.15217 0.26079,0.0906 0.46009,0.0819 0.72848,0.15217 0.36133,0.094 0.63787,0.37603 1.01988,0.45601 0.19051,0.0388 0.39849,-0.0639 0.58278,0 0.13034,0.0436 0.1611,0.25877 0.29141,0.30383 0.31997,0.11158 2.49567,0.0945 2.76825,0 0.10293,-0.0339 0.18837,-0.11626 0.2914,-0.15217 0.0921,-0.0339 0.2227,0.0718 0.29135,0 0.0343,-0.0339 -0.0461,-0.13616 0,-0.15215 0.13824,-0.0484 0.29573,0.0388 0.4371,0 0.21076,-0.0547 0.32001,-0.38718 0.58279,-0.456 0.28545,-0.0747 0.63163,-0.0508 0.87417,-0.30386 0.77044,-0.80373 -0.74371,0.23601 0.58278,-0.45599 0.36179,-0.1885 -0.0628,-0.12987 0.14569,-0.45601 0.0602,-0.094 0.21461,-0.0716 0.29141,-0.15215 0.50813,-0.53005 0.85661,-1.44661 1.01987,-2.12781 0.0528,-0.22 0.21075,-0.39737 0.2914,-0.60793 0.23938,-0.62429 0.46078,-1.49142 0.58279,-2.12784 0.25656,-1.33816 -0.19399,-2.83561 -0.43709,-4.10359 -0.019,-0.0994 0.0433,-0.21322 0,-0.30385 -0.0614,-0.12841 -0.22995,-0.1759 -0.29141,-0.30383 -0.0894,-0.18706 -0.0713,-0.41386 -0.14567,-0.60792 -0.0256,-0.0663 -0.1291,-0.0824 -0.14568,-0.15217 -0.0353,-0.14732 0.0461,-0.31159 0,-0.45601 -0.14792,-0.46279 -0.55417,-0.91326 -0.72847,-1.36785 -0.0363,-0.094 0.0433,-0.21323 0,-0.30385 -0.0219,-0.0436 -0.11134,0.0339 -0.14569,0 -0.0823,-0.0858 -0.18284,-0.49473 -0.29141,-0.60792 -0.0768,-0.08 -0.21462,-0.0718 -0.2914,-0.15217 -0.10872,-0.11335 -0.0372,-0.34261 -0.14567,-0.456 -0.0343,-0.0339 -0.11134,0.034 -0.14569,0 -0.0343,-0.0339 0.0218,-0.10665 0,-0.15215 -0.0921,-0.19239 -0.31346,-0.28398 -0.43709,-0.45601 -0.69373,-0.96492 0.72608,0.68018 -0.2914,-0.91191 -0.0971,-0.15217 -0.33201,-0.15798 -0.43709,-0.30384 -0.0583,-0.081 0,-0.20256 0,-0.30384 -0.14568,-0.10135 -0.31329,-0.17494 -0.43708,-0.30383 -0.20687,-0.21567 -0.2739,-0.65659 -0.43709,-0.91197 -0.14568,-0.22776 -0.29137,-0.15216 -0.43708,-0.45601 -0.0433,-0.0906 0.0583,-0.22291 0,-0.30383 -0.14569,-0.20256 -0.50601,-0.21564 -0.5828,-0.45601 -0.0308,-0.0964 0.0306,-0.20788 0,-0.30383 -0.0746,-0.23358 -0.31282,-0.39204 -0.43707,-0.60792 -0.1461,-0.25393 -0.0807,-0.69221 -0.29141,-0.91196 -0.0768,-0.08 -0.22624,-0.0615 -0.29141,-0.15217 -0.18377,-0.25587 -0.10747,-0.5043 -0.29141,-0.75994 -0.13393,-0.18608 -0.36703,-0.38864 -0.43709,-0.60792 -0.0307,-0.0964 0.0308,-0.20789 0,-0.30383 -0.0433,-0.13619 -0.21517,-0.18465 -0.29139,-0.30386 -0.32166,-0.50329 -0.60313,-1.0851 -1.01987,-1.51982 -0.0769,-0.08 -0.20106,-0.0892 -0.29141,-0.15216 -0.28863,0.0145 -0.0688,-0.22388 -0.14569,-0.30386 -0.0345,-0.0339 -0.11133,0.034 -0.14568,0 -0.0343,-0.0339 0.0345,-0.11625 0,-0.15215 -0.10857,-0.11348 -0.30933,-0.0629 -0.43707,-0.15217 -0.3066,-0.21322 -0.46576,-1.06392 -0.87419,-1.06392"
       id="path9481" />
    <path
       style="fill:none;stroke:#000000;stroke-width:1.25535px;stroke-linecap:butt;stroke-linejoin:miter;stroke-opacity:1"
       d="m 134.24872,166.86609 c -1.70507,0.57506 -3.34581,0.60704 -5.09938,0.91191 -0.10319,0.0195 -0.46878,-0.0597 -0.58277,0 -0.0615,0.0339 -0.0789,0.13471 -0.14569,0.15215 -0.67446,0.17591 -2.28018,0 -3.05962,0 -0.75329,0 -1.44578,-0.0557 -2.18545,-0.15215 -0.19274,-0.0243 -0.3943,0.0489 -0.58278,0 -0.21073,-0.0547 -0.37396,-0.24182 -0.5828,-0.30386 -0.1401,-0.0436 -0.29334,0.0243 -0.43708,0 -0.62396,-0.10854 -1.26759,-0.19528 -1.89406,-0.30383 -0.70252,-0.12206 -1.35638,-0.61737 -2.03973,-0.75994 -0.66671,-0.13907 -1.36338,-0.16283 -2.03976,-0.30384 -0.60126,0.31741 -0.86429,-0.33922 -1.31128,-0.45601 -0.69153,-0.18027 -1.4609,0.0387 -2.18545,-0.15217 -0.25373,-0.0658 -0.47616,-0.23212 -0.72848,-0.30383 -1.19034,-0.33873 -2.58251,-0.35909 -3.64242,-0.9119 -0.15282,-0.08 -0.61217,0.12105 -0.72848,0 -0.0343,-0.0339 0.0343,-0.11626 0,-0.15217 -0.13987,-0.14586 -0.69023,0.096 -0.87416,0 -0.44015,-0.22969 -0.0498,-0.30384 -0.72848,-0.30384"
       id="path9483" />
    <path
       style="fill:none;stroke:#000000;stroke-width:1.25535px;stroke-linecap:butt;stroke-linejoin:miter;stroke-opacity:1"
       d="m 127.98378,168.23394 c -0.20979,1.19826 -0.61323,3.34031 -0.14568,4.5596 0.22102,0.57637 0.63627,1.29029 1.01988,1.82386 0.13076,0.18172 0.51163,1.14166 0.58277,1.21585 0.0343,0.0339 0.11133,-0.034 0.14569,0 0.12745,0.13278 0.0913,0.59033 0.14568,0.75994 0.0554,0.17349 0.23603,0.28251 0.2914,0.456 0.14861,0.46522 -0.48522,-0.37944 0.14568,0.60797 0.11436,0.17882 0.30837,0.28785 0.43709,0.45601 0.22818,0.29754 0.19152,0.5994 0.2914,0.91191 0.15159,0.47442 0.0971,-0.0503 0.29141,0.15217 0.0687,0.0716 -0.0687,0.23261 0,0.30383 0.0343,0.0339 0.11134,-0.0339 0.14568,0 0.0345,0.0339 -0.0343,0.11625 0,0.15216 0.0345,0.0339 0.11133,-0.034 0.14568,0 0.0345,0.0339 -0.0343,0.11626 0,0.15216 0.0345,0.034 0.11133,-0.0339 0.14569,0 0.0343,0.034 -0.0345,0.11638 0,0.15217 0.0343,0.034 0.11133,-0.0339 0.14567,0 0.0343,0.034 -0.0343,0.11625 0,0.15216 0.0769,0.08 0.21462,0.0717 0.2914,0.15216 0.0343,0.034 -0.0218,0.10665 0,0.15217 0.30316,0.63254 -0.01,-0.16234 0.29141,0.15216 0.0345,0.0339 -0.0343,0.11626 0,0.15216 0.0302,0.0291 0.45121,0.30384 0.58279,0.30384 0.24286,0.35424 0.48568,0.70833 0.72852,1.06248"
       id="path9485" />
    <path
       style="fill:none;stroke:#000000;stroke-width:1.25535px;stroke-linecap:butt;stroke-linejoin:miter;stroke-opacity:1"
       d="m 98.990169,94.36869 c 0.891228,-0.692892 1.760971,-1.074865 2.622531,-1.823838 0.15827,-0.137623 0.25819,-0.349282 0.4371,-0.455946 0.17382,-0.103619 0.3928,-0.08593 0.58277,-0.151978 1.10404,-0.383882 -0.0527,0.05484 0.2914,-0.303982 0.10871,-0.113222 0.38279,-0.0954 0.43709,-0.151965 0.0343,-0.03589 -0.0345,-0.116129 0,-0.151965 0.10293,-0.107536 0.29888,0.04789 0.43709,0 0.31463,-0.109432 0.70076,-0.524727 1.01988,-0.60795 0.14136,-0.03677 0.29572,0.0369 0.43708,0 0.32573,0.07784 0.0427,-0.26812 0.14568,-0.303994 0.1382,-0.04789 0.29888,0.04789 0.43708,0 0.10293,-0.03589 0.0485,-0.253297 0.14568,-0.303982 0.0869,-0.04498 0.20449,0.04499 0.29137,0 0.1229,-0.06407 0.16111,-0.258667 0.2914,-0.303981 0.0921,-0.0321 0.19924,0.0321 0.2914,0 0.15094,-0.05244 0.29257,-0.228592 0.4371,-0.303994 0.39021,-0.203522 1.31868,-0.495877 1.74835,-0.607937 0.26372,0.09174 0.27097,-0.24617 0.43709,-0.303994 0.0921,-0.0321 0.20119,0.03778 0.29141,0 0.27156,-0.113349 0.60144,-0.513101 0.87417,-0.607925 0.0921,-0.0321 0.19924,0.0321 0.29141,0 0.0651,-0.02287 0.0971,-0.101344 0.14567,-0.151978 0.0971,-0.05054 0.18605,-0.124468 0.2914,-0.151965 0.32393,-0.08454 0.56554,-0.04448 0.87418,-0.151965 0.16613,-0.05775 0.27451,-0.23615 0.43709,-0.303994 0.28519,-0.118909 0.59946,-0.160685 0.87419,-0.303982 0.0615,-0.0321 0.0789,-0.134615 0.14568,-0.151965 0.14136,-0.0369 0.29888,0.04789 0.43708,0 0.0461,-0.01605 -0.0345,-0.116129 0,-0.151978 0.0586,-0.06116 1.98188,-0.402836 2.18545,-0.455959 0.35887,-0.09364 0.70369,-0.345985 1.01988,-0.455947 0.31895,-0.110821 0.69397,-0.0671 1.01987,-0.151965 0.49387,-0.128803 0.94691,-0.379914 1.45697,-0.455947 0.14425,-0.02136 0.29424,0.03008 0.43709,0 0.10637,-0.02237 0.18427,-0.133365 0.29141,-0.151978 0.19162,-0.03349 0.39114,0.03349 0.58278,0 0.42706,-0.0743 0.88657,-0.345176 1.31127,-0.455947 0.0942,-0.02477 0.19924,0.03197 0.29141,0 0.0652,-0.02287 0.0789,-0.134628 0.14566,-0.151978 0.63067,-0.164475 1.57223,0.03058 2.18547,-0.151965 0.20885,-0.06217 0.37205,-0.249026 0.58277,-0.303994 0.27427,-0.07152 0.59994,0.07152 0.87418,0 0.6609,-0.172361 1.36086,-0.215438 2.03976,-0.303981 0.50922,-0.06647 0.85738,-0.185591 1.31127,-0.303982 0.22911,-0.05977 0.49652,0.0484 0.72848,0 0.59792,-0.124721 1.16325,-0.151384 1.74837,-0.303994 0.34217,-0.08921 0.85718,0.160849 1.16556,0 0.29837,-0.155642 0.50782,-0.151965 0.87418,-0.151965 0.18999,0 0.62355,-0.261434 0.72848,-0.151965 0.0288,0.03007 -0.26902,0.841824 -0.29141,0.911918 -0.63634,1.327606 0.25429,-0.643837 -0.14567,0.60795 -0.0433,0.135917 -0.24798,0.168001 -0.2914,0.303982 -0.0307,0.09616 0.0237,0.205657 0,0.303981 -0.11038,0.460622 -0.40248,0.839676 -0.5828,1.2159 -0.0433,0.09073 0.0307,0.207843 0,0.303981 -0.12442,0.389378 -0.45386,0.660505 -0.58278,1.063909 -0.39956,1.250486 -1.13695,2.464339 -1.45697,3.799653 -0.079,0.329532 -0.35811,0.43037 -0.43709,0.75994 -0.0968,0.404289 -0.19408,0.809791 -0.29139,1.215888 -0.0472,0.196584 0.0615,0.415674 0,0.607924 -0.0687,0.214933 -0.21072,0.397567 -0.2914,0.60795 -0.22732,0.592749 0.1291,2.839438 0,3.647675 -0.011,0.07076 -0.12402,0.08391 -0.14569,0.152167 -0.18939,0.592761 0.18939,1.38308 0,1.975837 -0.0219,0.0679 -0.12402,0.0838 -0.14568,0.15217 -0.16446,0.51468 -0.0608,2.95746 0.14568,3.49566 0.0181,0.0484 0.11133,-0.0339 0.14569,0 0.0688,0.0717 -0.0433,0.21323 0,0.30384 0.0307,0.0639 0.124,0.0839 0.14566,0.15216 0.0863,0.2704 0.0593,0.64137 0.14568,0.91195 0.0219,0.0679 0.12016,0.0853 0.14569,0.15217 0.0485,0.12648 0.18545,0.8981 0.29141,1.06394 0.027,0.0436 0.124,-0.0436 0.14568,0 0.0433,0.0906 -0.0307,0.20788 0,0.30383 0.0218,0.0679 0.11492,0.0882 0.14566,0.15216 0.0583,0.12156 -0.0582,0.33437 0,0.45601 0.0306,0.0639 0.12911,0.0824 0.14569,0.15216 0.0353,0.14731 -0.0353,0.30868 0,0.45601 0.0363,0.15118 0.17215,0.30383 0.29141,0.30383"
       id="path9487" />
    <path
       style="fill:none;stroke:#000000;stroke-width:1.25535px;stroke-linecap:butt;stroke-linejoin:miter;stroke-opacity:1"
       d="m 126.9639,104.09581 c 0.18982,-0.84127 -0.24728,-2.41793 0,-3.19174 0.0219,-0.0679 0.12401,-0.0839 0.14569,-0.15215 0.0729,-0.22777 -0.0729,-0.53194 0,-0.759956 0.0153,-0.0484 0.124,0.0436 0.14567,0 0.0433,-0.0906 -0.019,-0.204495 0,-0.303829 0.0302,-0.157008 0.11547,-0.299003 0.14567,-0.45601 0.0556,-0.289778 -0.0687,-0.625755 0,-0.911957 0.0265,-0.109936 0.11933,-0.193829 0.14569,-0.303829 0.0237,-0.09844 -0.0433,-0.213227 0,-0.303855 0.0219,-0.0436 0.12401,0.04359 0.14568,0 0.13008,-0.271367 0.0894,-0.770884 0.14567,-1.06391 0.0423,-0.22005 0.24923,-0.539865 0.29142,-0.759915 0.12524,-0.653175 0.28472,-1.339951 0.43708,-1.975828 0.0499,-0.208134 0.24983,-0.43454 0.29141,-0.60795 0.0353,-0.147466 -0.0288,-0.30695 0,-0.455959 0.0618,-0.321723 0.36072,-0.593165 0.43708,-0.911906 0.10775,-0.449414 -0.16384,-0.177402 0.14568,-0.607937 0.0824,-0.114486 0.2404,-0.17092 0.29141,-0.303994 0.054,-0.141111 -0.0284,-0.306938 0,-0.455947 0.0789,-0.412149 0.43244,-0.823855 0.58279,-1.215887 0.1676,-0.437106 0.12387,-0.474813 0.29141,-0.911919 0.14972,-0.390439 0.37014,-0.579151 0.58279,-0.911906 0.027,-0.0422 0,-0.101344 0,-0.151978 0.0485,-0.101344 0.0688,-0.223879 0.14567,-0.303981 0.0769,-0.08011 0.23117,-0.05762 0.29141,-0.151965 0.0539,-0.08441 0,-0.202663 0,-0.303994 0.0485,-0.101344 0.0804,-0.213366 0.14567,-0.303982 0.14569,-0.202662 0.2654,-0.428828 0.4371,-0.607949 0.0769,-0.08012 0.21461,-0.0719 0.2914,-0.151966 0.0343,-0.03589 -0.027,-0.109937 0,-0.151965 0.22413,-0.350749 0.65003,-0.561183 0.87418,-0.911919 0.027,-0.04208 -0.0343,-0.116128 0,-0.151978 0.0343,-0.03576 0.11133,0.03589 0.14566,0 0.0485,-0.05054 0.0971,-0.405312 0.14569,-0.455946 0.0894,-0.09338 0.33954,-0.10046 0.43709,-0.303982 0.21439,-0.447278 -0.3375,0.200085 0.14568,-0.303981"
       id="path9489" />
    <path
       style="fill:none;stroke:#000000;stroke-width:1.25535px;stroke-linecap:butt;stroke-linejoin:miter;stroke-opacity:1"
       d="m 118.22211,99.688223 c 0.83482,-0.870913 0.66079,-0.489787 1.01987,-1.519881 0.3957,-1.135217 0.90593,-2.216109 1.31128,-3.343693 0.14061,-0.39116 0.1123,-0.842216 0.2914,-1.215887 0.0614,-0.128222 0.2207,-0.181093 0.2914,-0.303994 0.24212,-0.420957 0.36946,-0.922748 0.58278,-1.367853 0.2536,-0.529086 0.69881,-1.202948 1.01989,-1.671847 0.0799,-0.116634 0.20899,-0.189343 0.2914,-0.303993 0.0652,-0.09073 0.0589,-0.235998 0.14568,-0.303982 0.12291,-0.09616 0.31719,-0.05194 0.43709,-0.151978 0.27347,-0.228188 0.33516,-0.65358 0.58278,-0.911918 0.53744,-0.56064 0.0589,0.363991 0.58279,-0.45596 0.12043,-0.18851 0.15571,-0.43104 0.29141,-0.607937 0.0678,-0.08846 0.21462,-0.0719 0.29137,-0.151965 0.46179,-0.481738 0.77093,-0.992097 1.31127,-1.367878 0.28017,-0.194854 0.44828,-0.565075 0.72847,-0.759941 0.0904,-0.0628 0.23115,-0.05762 0.29141,-0.151965 0.0539,-0.08428 -0.0432,-0.213328 0,-0.303994 0.0138,-0.02818 0.38538,-0.124974 0.4371,-0.151953 0.19514,-0.101849 0.20187,-0.362589 0.2914,-0.455959 0.10844,-0.113349 0.32847,-0.03867 0.43708,-0.151978 0.19426,-0.20265 -0.24281,-0.151966 0.14569,-0.151966"
       id="path9491" />
    <path
       style="fill:none;stroke:#000000;stroke-width:1.25535px;stroke-linecap:butt;stroke-linejoin:miter;stroke-opacity:1"
       d="m 111.37436,96.800464 c 0.54169,-0.742983 0.79915,-1.515269 1.16558,-2.279784 0.0747,-0.155845 0.0709,-0.45208 0.14569,-0.60795 0.0485,-0.101344 0.24282,-0.05054 0.2914,-0.151965 0.0433,-0.09073 -0.0306,-0.207844 0,-0.303981 0.11505,-0.360113 0.50545,-1.018886 0.72849,-1.367878 0.11437,-0.178856 0.30836,-0.288136 0.43708,-0.455947 0.17691,-0.230665 0.23687,-0.551036 0.43709,-0.759928 0.17745,-0.185123 0.32555,-0.07114 0.43708,-0.303994 0.0688,-0.143297 0.0536,-0.327776 0.14568,-0.455947 0.14569,-0.202662 0.41108,-0.276851 0.58279,-0.455959 0.28356,-0.295843 0.41442,-0.649802 0.72849,-0.911918 0.35839,-0.299142 0.46463,-0.240989 0.72849,-0.607938 0.0652,-0.09073 0.0688,-0.223879 0.14568,-0.303981 0.15358,-0.160204 0.45245,-0.1227 0.58277,-0.303981 0.0921,-0.128222 0.0536,-0.327789 0.14569,-0.455947 0.48491,-0.674455 0.11574,0.07152 0.43707,-0.151978 0.13352,-0.09288 0.40379,-0.54569 0.5828,-0.60795 0.0921,-0.0321 0.19715,0.02477 0.2914,0 0.43639,-0.113728 0.2856,-0.297928 0.43709,-0.455959 0.16199,-0.168974 0.58279,-0.136992 0.58279,-0.455947"
       id="path9493" />
    <path
       style="fill:none;stroke:#000000;stroke-width:1.25535px;stroke-linecap:butt;stroke-linejoin:miter;stroke-opacity:1"
       d="m 105.69222,94.976639 c 1.11593,-1.94018 -0.30958,0.46133 1.01986,-1.519868 0.43235,-0.644292 0.52692,-1.280459 0.87419,-1.823825 0.19607,-0.306799 0.56258,-0.717798 0.72848,-1.063909 0.0218,-0.04498 -0.0343,-0.116128 0,-0.151965 0.0768,-0.08012 0.22624,-0.06141 0.29141,-0.151966 0.0921,-0.128221 0.077,-0.312662 0.14567,-0.455959 0.1116,-0.23275 0.25963,-0.118782 0.43709,-0.303994 0.0688,-0.07165 -0.0687,-0.232307 0,-0.303981 0.0824,-0.08593 0.47424,-0.190721 0.58279,-0.303981 0.30144,-0.314445 -0.46068,0.01264 0.14568,-0.303994 0.0433,-0.02287 0.11133,0.03589 0.14567,0 0.0343,-0.03576 -0.0343,-0.116129 0,-0.151953 0.073,-0.07607 0.36426,0.07607 0.43709,0 0.0343,-0.03589 -0.0343,-0.116129 0,-0.151978 0.0367,-0.03829 0.68777,-0.455947 0.72849,-0.455947"
       id="path9495" />
    <path
       style="fill:url(#linearGradient9705);fill-opacity:1;stroke:#000000;stroke-width:0.210446"
       d="m 75.67926,165.41912 c -3.524388,-0.16307 -5.019968,-0.39804 -6.902541,-1.08443 -0.339978,-0.12396 -0.989016,-0.3023 -1.442325,-0.39629 -0.453296,-0.094 -2.212203,-0.61562 -3.908693,-1.15912 -1.696489,-0.54353 -3.193351,-0.98823 -3.326358,-0.98823 -0.375473,0 -5.930759,-2.27782 -7.188173,-2.94734 -4.229294,-2.25194 -6.055558,-3.34057 -7.572189,-4.5138 -0.991597,-0.76707 -1.805048,-1.45748 -1.807679,-1.53425 -0.0025,-0.0768 -0.328268,-0.5143 -0.723643,-0.97227 -0.395387,-0.45798 -0.77417,-1.06249 -0.841746,-1.34339 -0.0676,-0.28088 -0.201965,-0.5107 -0.298645,-0.5107 -0.09673,0 -0.278932,-0.3997 -0.405038,-0.88821 -0.126103,-0.48851 -0.305872,-1.04468 -0.399493,-1.2359 -0.09366,-0.19124 -0.329827,-0.92805 -0.524885,-1.63735 -0.195057,-0.70931 -0.482469,-1.60729 -0.638674,-1.99551 -0.466541,-1.15945 -0.395855,-1.33166 0.43714,-1.06494 0.396641,0.12693 0.72116,0.31136 0.72116,0.40976 0,0.0984 0.179976,0.17887 0.399935,0.17887 0.219959,0 0.455675,0.0941 0.523816,0.20909 0.246962,0.41684 4.768363,1.44615 7.187198,1.63616 0.921932,0.0724 2.025734,0.22309 2.452894,0.3348 1.102093,0.28822 4.507807,0.60693 7.877275,0.73722 1.586552,0.0613 4.471451,0.24492 6.410861,0.40796 3.702425,0.31127 6.248805,0.17022 7.291214,-0.40385 0.283307,-0.15602 0.770084,-0.34702 1.081734,-0.42446 0.311635,-0.0775 0.566626,-0.23565 0.566626,-0.35162 0,-0.116 0.120152,-0.21085 0.267254,-0.21085 0.146993,0 0.606944,-0.36288 1.022127,-0.80643 1.284696,-1.37244 1.805673,-3.46621 2.018859,-8.1136 0.110782,-2.41463 0.101825,-4.42636 -0.02356,-5.35185 -0.110645,-0.8156 -0.176314,-1.49765 -0.146014,-1.51571 0.318414,-0.18947 2.4771,-0.76285 2.872029,-0.76285 0.699496,0 0.790422,-0.14625 0.545876,-0.87804 -0.28598,-0.8558 -0.800866,-0.82342 -3.913722,0.24597 -1.396856,0.47987 -3.111589,0.92774 -3.810505,0.99523 -1.287383,0.12434 -1.497592,0.30592 -1.508051,1.30264 -0.0041,0.3773 1.940981,0.34943 3.200049,-0.0459 0.551028,-0.17299 1.043938,-0.27064 1.095347,-0.21699 0.440715,0.45973 0.443553,6.61909 0.0055,9.54742 -0.316692,2.11173 -1.036401,3.50719 -2.197514,4.26075 -2.186134,1.41884 -3.586999,1.63142 -8.14207,1.23564 -1.949262,-0.16935 -4.888574,-0.35598 -6.531804,-0.41469 -3.501362,-0.1251 -7.075437,-0.44316 -7.411041,-0.65953 -0.129893,-0.0838 -1.16629,-0.23654 -2.303117,-0.33955 -2.844508,-0.25775 -6.012982,-0.98083 -7.490674,-1.70944 -0.679961,-0.33526 -1.468081,-0.67105 -1.7514,-0.74616 -1.276428,-0.33845 -1.311199,-0.4509 -1.179329,-3.8127 0.08689,-2.2137 0.268925,-3.71039 0.653485,-5.37155 0.759077,-3.27898 1.673955,-6.08765 2.470064,-7.58309 0.378021,-0.71007 0.893467,-1.82302 1.145455,-2.47321 0.733697,-1.89317 1.109678,-2.6023 1.495467,-2.8206 0.198657,-0.11234 0.790419,-0.90207 1.315034,-1.7548 0.524615,-0.85272 1.266103,-2.04111 1.647761,-2.64085 0.381648,-0.59973 0.693911,-1.20231 0.693911,-1.33901 0,-0.21607 0.5174,-0.5722 2.087263,-1.43672 0.211909,-0.11676 0.385285,-0.28053 0.385285,-0.36408 0,-0.0837 0.440421,0.0598 0.978716,0.31856 0.765924,0.36815 1.344889,0.46726 2.662798,0.45588 1.518696,-0.0131 1.758899,-0.0742 2.445937,-0.62075 1.060207,-0.84355 1.691998,-2.39237 1.866113,-4.57468 l 0.141456,-1.77311 1.464219,-0.75361 c 1.387472,-0.7141 2.689116,-1.44179 4.9228,-2.75213 0.542334,-0.31813 1.091337,-0.57842 1.220046,-0.57842 0.128694,0 0.380405,-0.12785 0.559322,-0.28422 0.178919,-0.15633 0.696176,-0.39615 1.149485,-0.53294 0.453295,-0.1368 1.519584,-0.45721 2.369516,-0.71201 1.414134,-0.423928 4.455257,-1.090031 8.138831,-1.782619 0.793274,-0.149148 2.241304,-0.449427 3.217837,-0.667278 l 1.775524,-0.396101 2.551439,1.293715 c 3.838958,1.946563 6.781975,3.400453 7.702594,3.805153 0.453308,0.19926 1.10236,0.51895 1.442325,0.71041 2.800807,1.57731 4.127706,2.40742 5.459136,3.41527 0.84935,0.64292 1.60838,1.16896 1.68672,1.16896 0.45674,0 4.08858,2.86069 4.70179,3.70345 0.39664,0.54512 0.97951,1.31315 1.29528,1.70675 0.99805,1.24401 2.00145,2.7236 2.00145,2.95124 0,0.12055 0.41866,0.75564 0.93035,1.41097 0.51169,0.65533 1.12715,1.65051 1.36771,2.21152 0.24057,0.56099 0.62026,1.40689 0.84376,1.87974 0.78448,1.6597 1.27877,3.29235 1.98475,6.5557 1.4918,6.89573 1.49815,6.98949 1.04982,15.47575 -0.32514,6.15459 -0.65006,7.27468 -3.10429,10.7019 -0.36318,0.50715 -0.83717,1.26634 -1.05334,1.68709 -0.60489,1.17727 -1.95978,2.89005 -3.019,3.81642 -1.01729,0.8897 -7.26797,4.21397 -7.92361,4.21397 -0.21392,0 -0.68113,0.13885 -1.03823,0.30857 -0.35711,0.16972 -1.112887,0.34807 -1.679514,0.39637 -0.566627,0.0483 -2.003784,0.26204 -3.19371,0.47501 -1.933774,0.34611 -2.480697,0.35962 -5.151142,0.12733 -2.215744,-0.19277 -3.706364,-0.201 -5.769288,-0.0318 -3.04691,0.24987 -3.846385,0.24889 -9.478119,-0.0114 z"
       id="path9637" />
    <path
       style="fill:url(#linearGradient9917);fill-opacity:1;stroke:#000000;stroke-width:0.210446"
       d="m 201.01158,174.74124 c -0.50719,-0.8208 -1.0594,-1.2978 -1.96228,-1.69497 -0.42497,-0.18696 -0.77267,-0.40899 -0.77267,-0.49342 0,-0.0845 -0.41876,-0.37166 -0.93057,-0.63831 -0.51182,-0.26666 -1.18405,-0.70164 -1.49382,-0.96664 -0.30981,-0.265 -1.67593,-1.04819 -3.03583,-1.74042 -1.3599,-0.69226 -2.69079,-1.45929 -2.95753,-1.70453 -1.28688,-1.18305 -5.18128,-5.33742 -5.18128,-5.52713 0,-0.20216 -1.59082,-2.16208 -3.36192,-4.14193 -0.43248,-0.48345 -0.96682,-1.24031 -1.18742,-1.6819 -0.22058,-0.44158 -0.63168,-0.96052 -0.91354,-1.15316 -0.28185,-0.19265 -0.51246,-0.51426 -0.51246,-0.71469 0,-0.4848 -3.20602,-3.90792 -4.12093,-4.39998 -0.39663,-0.21333 -1.04567,-0.57147 -1.44231,-0.79586 -1.18723,-0.67165 -4.77702,-0.51685 -6.59346,0.28435 -1.77975,0.78498 -3.08223,1.62246 -4.2681,2.74432 -0.25094,0.2374 -0.5291,0.43247 -0.61813,0.43349 -0.0891,0.001 -0.48642,0.32103 -0.88307,0.7111 -0.39664,0.3901 -0.86025,0.77674 -1.03022,0.85919 -0.77881,0.37782 -3.12436,1.84502 -4.27313,2.67292 -0.69712,0.50243 -1.39282,0.91349 -1.54598,0.91349 -0.15315,0 -0.4603,0.15393 -0.68252,0.34202 -0.48865,0.4136 -2.83383,1.7326 -6.1702,3.47031 -3.74905,1.95264 -4.43873,2.26858 -4.59529,2.10506 -0.21521,-0.2248 -0.18851,-8.96065 0.0291,-9.5012 0.10333,-0.25692 0.12828,-0.7992 0.0553,-1.20504 -0.10665,-0.59296 -0.2837,-0.80406 -0.90159,-1.07487 -1.10258,-0.48325 -1.92455,-0.58886 -3.08873,-0.39689 -1.89091,0.3118 -2.33691,1.18922 -2.41752,4.75604 -0.0487,2.1564 -0.14082,2.71865 -0.72155,4.40628 -0.36615,1.06395 -0.74136,2.273 -0.83385,2.68677 -0.56172,2.51339 -0.71968,2.87258 -1.34132,3.05027 -1.14869,0.32832 -5.54248,0.81867 -7.33595,0.81867 -1.98336,0 -6.05459,-0.64925 -7.17992,-1.14496 -0.61969,-0.27301 -2.66856,-0.65632 -3.14435,-0.58828 -0.0861,0.0129 -0.42928,-0.12459 -0.76245,-0.30436 -0.33316,-0.17971 -0.99013,-0.32676 -1.45995,-0.32676 -0.46984,0 -1.33209,-0.13218 -1.91617,-0.29372 -0.58407,-0.16155 -1.7834,-0.46865 -2.66519,-0.68247 l -1.60326,-0.38873 1.39952,-0.7684 c 0.76973,-0.42261 1.83996,-1.1525 2.37827,-1.62197 1.05888,-0.92347 2.74339,-3.05103 3.24057,-4.09289 0.16999,-0.35621 0.61362,-1.08164 0.98584,-1.61205 2.57633,-3.67138 2.87974,-4.6129 3.24798,-10.07908 0.31778,-4.71703 0.36721,-11.19653 0.0927,-12.16448 -0.10058,-0.35464 -0.33426,-1.51532 -0.51936,-2.57928 -0.18509,-1.06394 -0.47671,-2.51481 -0.64802,-3.22412 -0.17131,-0.7093 -0.3892,-1.62817 -0.4842,-2.04193 -0.53869,-2.34648 -2.72293,-7.31033 -3.74421,-8.50898 -0.39408,-0.46252 -0.77544,-1.01029 -0.84749,-1.21726 -0.17443,-0.50115 -1.25668,-2.05667 -2.46179,-3.53836 -0.5383,-0.66183 -0.97874,-1.2801 -0.97874,-1.37393 0,-0.0939 -0.30133,-0.47073 -0.66965,-0.83755 -0.56059,-0.55837 -1.61558,-1.32303 -5.92382,-4.29373 -0.16999,-0.11714 -0.63359,-0.44949 -1.03022,-0.73843 -1.13479,-0.82661 -5.42879,-3.26862 -7.417653,-4.21844 -0.16999,-0.0811 -1.018819,-0.49937 -1.886306,-0.929327 -0.867473,-0.429941 -1.69102,-0.781713 -1.83009,-0.781713 -0.139069,0 -0.585888,-0.217637 -0.992915,-0.483621 -0.407012,-0.265996 -1.194858,-0.687837 -1.750764,-0.937419 -0.555893,-0.249606 -0.929216,-0.505759 -0.829609,-0.569257 0.539688,-0.344001 6.355384,-0.790622 10.998515,-0.844617 5.713582,-0.06634 7.727892,0.124974 10.162512,0.966306 0.81349,0.281084 1.98906,0.634688 2.61235,0.785769 1.04142,0.252463 2.22616,0.690782 3.81184,1.410311 0.33997,0.154278 1.85463,0.778895 3.36591,1.388068 1.51127,0.60918 3.2266,1.42481 3.81186,1.81252 0.58522,0.38771 1.33664,0.77456 1.66977,0.85963 0.7349,0.18771 3.31805,1.71766 4.03033,2.38708 0.28332,0.26628 0.83964,0.65243 1.23627,0.85812 0.39664,0.2057 1.29468,0.91799 1.99565,1.58286 0.70095,0.66489 1.58181,1.47853 1.95744,1.80812 0.37563,0.32958 1.5638,1.46488 2.6404,2.52286 1.07658,1.05798 2.01642,1.92481 2.08855,1.9263 0.0722,10e-4 0.62844,0.49555 1.23626,1.09792 0.60784,0.60235 1.33698,1.25173 1.62029,1.44309 0.28331,0.19133 0.89555,0.66571 1.36051,1.05419 0.46498,0.38848 0.95176,0.70632 1.08174,0.70632 0.12993,0 0.23634,0.0761 0.23634,0.16886 0,0.25307 4.43337,3.2702 4.80521,3.2702 0.1769,0 0.3773,0.094 0.44534,0.20881 0.14662,0.24749 1.62956,0.9637 3.1538,1.52318 0.59932,0.21998 1.35815,0.59938 1.68625,0.8431 0.52134,0.38725 1.90881,0.82057 6.59913,2.06097 0.68424,0.18095 2.93726,0.35704 5.68654,0.44442 4.1659,0.13239 4.64708,0.10994 5.65589,-0.26473 1.13416,-0.42117 3.49288,-2.44393 3.49288,-2.99537 0,-0.15549 0.27095,-0.56538 0.60211,-0.91082 0.78354,-0.81737 1.58389,-2.8255 1.86953,-4.6907 0.12511,-0.8167 0.31007,-1.92016 0.41114,-2.45214 0.16054,-0.84498 0.38663,-3.01415 0.52651,-5.05111 0.0648,-0.94294 0.48969,-3.52072 0.74408,-4.51376 0.12125,-0.47288 0.29227,-1.34339 0.38031,-1.93447 0.15526,-1.04244 0.48526,-2.18719 0.85113,-2.95252 0.0981,-0.20529 0.17843,-0.61637 0.17843,-0.9135 0,-0.29715 0.0855,-0.540282 0.19007,-0.540282 0.10458,0 0.29528,-0.332552 0.42387,-0.73904 0.12857,-0.406475 0.5994,-1.13202 1.04623,-1.612291 0.44681,-0.480297 0.81238,-0.966483 0.81238,-1.0804 0,-0.113728 0.20862,-0.322304 0.4636,-0.463086 0.25499,-0.14077 0.64905,-0.426075 0.87571,-0.633994 1.60921,-1.476311 2.26269,-1.980478 3.81185,-2.941034 2.13599,-1.324434 2.98862,-1.631233 5.76928,-2.075946 1.18991,-0.190292 3.32141,-0.536024 4.73664,-0.768293 l 2.57315,-0.422296 0.7236,0.490798 c 0.39797,0.269938 1.00173,0.603476 1.3417,0.741213 0.33998,0.137724 0.89631,0.363549 1.23628,0.501817 l 0.61815,0.251414 -0.72117,0.197949 c -0.39664,0.108799 -1.27605,0.290233 -1.95424,0.403051 -1.65514,0.275334 -3.58164,1.004202 -4.29446,1.624763 -0.32034,0.27886 -0.64784,0.507036 -0.72776,0.507036 -0.19036,0 -2.8923,2.811574 -3.44846,3.588397 -0.51719,0.722372 -1.17294,2.005333 -1.62648,3.182254 -0.18223,0.47285 -0.42476,1.0364 -0.53895,1.25228 -0.11422,0.21589 -0.39653,1.03804 -0.62743,1.82701 -0.23089,0.78895 -0.50386,1.52635 -0.60658,1.63866 -0.10279,0.11234 -0.18676,0.43301 -0.18676,0.71269 0,0.27967 -0.10389,0.71103 -0.23093,0.95857 -0.2897,0.56472 -1.36434,4.72267 -1.73734,6.72218 -0.15439,0.82752 -0.42725,2.13329 -0.60642,2.90171 -0.5988,2.56832 -0.9257,4.39052 -1.13756,6.34074 -0.29162,2.68481 -0.45624,17.70671 -0.21434,19.55962 0.10803,0.82751 0.30291,2.37509 0.43304,3.43905 0.13007,1.06396 0.35853,2.41809 0.50757,3.00918 0.14903,0.59108 0.42367,1.7034 0.61032,2.47181 0.56362,2.32041 1.45239,4.8009 1.75846,4.90781 0.11286,0.0393 0.2051,0.18347 0.2051,0.32011 0,0.13662 0.22328,0.49129 0.4962,0.78811 0.97325,1.05855 2.09201,2.31251 2.91246,3.26446 0.4582,0.53164 1.38541,1.33515 2.06046,1.78561 1.32856,0.88652 1.44816,0.99377 3.90596,3.50275 1.80445,1.84198 2.57559,2.74757 2.57559,3.02462 0,0.0991 0.18545,0.35507 0.41209,0.56903 0.22665,0.21398 0.4121,0.53571 0.4121,0.71496 0,0.17926 0.12373,0.47861 0.27505,0.66524 0.31221,0.3852 0.88487,2.75174 0.78426,3.24104 -0.10486,0.50969 -0.67602,1.07471 -1.0865,1.07471 -0.20648,0 -0.53977,-0.26601 -0.74065,-0.59109 z"
       id="path9909" />
    <path
       style="fill:none;stroke:#000000;stroke-width:1.25535px;stroke-linecap:butt;stroke-linejoin:miter;stroke-opacity:1"
       d="m 168.39996,127.508 c 1.22406,0.63727 2.39976,1.80787 3.0907,3.00917 0.11175,0.19432 0.0855,0.45649 0.20602,0.64481 0.0381,0.0595 0.15748,-0.0504 0.20602,0 0.0485,0.0508 -0.0306,0.15071 0,0.21516 0.0869,0.18123 0.30432,0.26119 0.4121,0.42984 0.59995,0.93879 -0.0913,-0.0708 0.20602,0.85976 0.14224,0.44534 0.51998,0.99259 0.61815,1.50462 0.13131,0.68487 -0.16218,1.47272 0,2.1494 0.0237,0.0984 0.17531,0.11866 0.20601,0.21517 0.20599,0.64455 0,1.67785 0,2.36433 0,0.55864 0.18272,2.628 0,3.00918 -0.53697,1.12033 -0.861,1.98252 -1.64836,3.00919 -0.24272,0.31644 -0.65043,0.49723 -0.82418,0.85977 -0.0971,0.20256 -0.0757,0.46376 -0.20603,0.6448 -0.0124,0.60521 -0.46456,0.0547 -0.61815,0.21516 -0.0485,0.0508 0.0485,0.16427 0,0.21516 -0.0485,0.0504 -0.13737,0 -0.20607,0 -0.13738,0.0717 -0.30348,0.10185 -0.41208,0.21515 -0.10858,0.11347 -0.0974,0.31645 -0.20603,0.42984 -0.0485,0.0508 -0.15748,-0.0504 -0.20607,0 -0.0485,0.0508 0.0485,0.16428 0,0.21516 -0.0485,0.0504 -0.15748,-0.0508 -0.20602,0 -0.10858,0.11347 -0.12084,0.29657 -0.20603,0.42984 -0.16806,0.26314 -0.58517,0.39543 -0.82418,0.64483 -0.39946,0.41676 -0.24983,0.56021 -0.82418,0.85978"
       id="path9919" />
    <path
       style="fill:url(#linearGradient9998);fill-opacity:1;stroke:#000000;stroke-width:0.148809"
       d="m 200.92101,174.30944 c -0.40609,-0.49067 -1.03857,-1.03102 -1.52118,-1.29959 -0.45434,-0.25284 -1.13733,-0.67853 -1.51773,-0.94595 -1.49642,-1.05202 -3.48324,-2.24779 -5.50046,-3.3105 l -2.1126,-1.11292 -2.38372,-2.43902 c -1.31104,-1.34145 -2.72662,-2.91776 -3.1457,-3.50291 -0.41908,-0.58514 -1.34609,-1.73609 -2.06002,-2.55768 -0.71392,-0.82157 -1.69567,-2.07705 -2.18168,-2.78996 -0.486,-0.71288 -0.98766,-1.35689 -1.11479,-1.43112 -0.12718,-0.0742 -0.42596,-0.49439 -0.66405,-0.93369 -0.25417,-0.46899 -1.12046,-1.48901 -2.09826,-2.47061 -1.30114,-1.30619 -1.91804,-1.80482 -2.82056,-2.27979 -1.1217,-0.59033 -1.20489,-0.60952 -2.86977,-0.66196 -0.94302,-0.0298 -1.7146,-0.082 -1.7146,-0.11613 0,-0.18308 1.00269,-0.96909 1.33763,-1.04858 0.44535,-0.10577 0.61944,-0.29226 0.7775,-0.83311 0.0611,-0.20898 0.41331,-0.72773 0.78274,-1.1528 0.36945,-0.42505 0.95977,-1.34076 1.31188,-2.03491 l 0.64019,-1.26207 0.0268,-2.60067 c 0.0178,-1.73274 -0.0338,-2.79593 -0.15463,-3.18579 -0.10486,-0.33804 -0.14785,-0.92413 -0.10196,-1.38785 0.0652,-0.65792 0.01,-0.96 -0.30343,-1.67503 -0.21055,-0.47978 -0.38284,-0.99647 -0.38284,-1.14819 0,-0.25951 -1.05055,-2.00139 -1.92264,-3.18784 -0.21605,-0.29394 -0.6923,-0.7685 -1.05835,-1.05463 l -0.66554,-0.52019 0.84144,-0.31782 c 1.32517,-0.50055 3.24895,-2.02355 3.67552,-2.90985 0.11561,-0.23995 0.42758,-0.72356 0.69349,-1.07467 0.60633,-0.80059 1.25217,-2.14909 1.5504,-3.23723 0.37445,-1.36628 0.93167,-5.06317 1.17977,-7.82731 0.26485,-2.95074 1.20267,-8.02957 1.83716,-9.94934 0.23381,-0.70738 0.4251,-1.43858 0.4251,-1.62488 0,-0.18631 0.0669,-0.38182 0.14846,-0.434465 0.0816,-0.05269 0.30536,-0.41867 0.49711,-0.813405 0.37626,-0.774599 1.34656,-2.094042 2.04982,-2.787452 2.16411,-2.133821 5.82641,-4.611212 7.71752,-5.220616 0.64349,-0.207363 3.16964,-0.704037 5.6137,-1.103701 l 4.44376,-0.726707 0.72848,0.475824 c 0.40066,0.2617 1.10548,0.636647 1.56624,0.833206 0.46077,0.19656 0.83773,0.396733 0.83773,0.444777 0,0.04802 -0.83591,0.266981 -1.85761,0.486438 -2.30499,0.495157 -3.22051,0.853728 -4.57949,1.79356 -1.27012,0.878432 -3.64965,3.37258 -4.41764,4.630471 -0.88957,1.457028 -2.54378,5.61579 -3.20948,8.06884 -0.1134,0.41796 -0.44298,1.58065 -0.73236,2.58375 -0.62967,2.18284 -2.28506,9.75316 -2.69196,12.31089 -0.39222,2.46537 -0.5736,7.09553 -0.5759,14.70181 -9.9e-4,5.92676 0.0222,6.52957 0.36485,9.19515 0.56185,4.36981 2.14542,10.55687 2.93497,11.46697 0.14522,0.16739 0.33044,0.46497 0.41162,0.6613 0.0812,0.19631 1.07907,1.37753 2.21755,2.62492 1.46746,1.60787 2.4587,2.54576 3.40559,3.22228 1.43328,1.02406 5.43812,5.03219 6.22608,6.23118 1.0235,1.55745 2.11918,4.67907 1.83007,5.21399 -0.19573,0.36214 -0.6922,0.86546 -0.85369,0.86546 -0.0909,0 -0.47817,-0.37795 -0.86046,-0.83989 z"
       id="path9990" />
    <path
       style="fill:url(#linearGradient10180);fill-opacity:1;stroke:#000000;stroke-width:0.074404"
       d="m 145.43094,191.46389 c -0.12016,-0.0287 -0.31424,-0.11955 -0.43118,-0.20219 -0.13463,-0.095 -0.34849,-0.15405 -0.5828,-0.16078 -0.23024,-0.006 -0.52407,-0.0863 -0.77742,-0.21087 -0.22402,-0.11019 -0.55968,-0.22992 -0.74594,-0.26621 -0.18625,-0.0364 -0.37999,-0.10134 -0.43047,-0.14457 -0.0506,-0.0432 -0.19016,-0.0905 -0.31036,-0.10488 -0.12014,-0.0145 -0.26169,-0.0867 -0.31443,-0.16038 -0.1342,-0.18768 -0.51581,-0.37815 -1.40008,-0.69896 -0.65313,-0.23696 -0.80503,-0.325 -1.06036,-0.61471 -0.1813,-0.20574 -0.36149,-0.33816 -0.46009,-0.33816 -0.27259,0 -0.42151,-0.13016 -0.89295,-0.78037 -0.24943,-0.34402 -0.70937,-0.88884 -1.02209,-1.21066 -0.31274,-0.32184 -0.56859,-0.61987 -0.56859,-0.66228 0,-0.0423 -0.0654,-0.1136 -0.14547,-0.15831 -0.08,-0.0446 -0.20687,-0.2083 -0.28194,-0.36365 -0.15385,-0.31836 -0.62387,-1.55037 -0.70208,-1.84029 -0.0281,-0.1045 -0.0917,-0.25837 -0.1415,-0.34196 -0.0496,-0.0837 -0.11078,-0.33613 -0.13586,-0.5612 -0.0251,-0.22507 -0.14498,-0.63072 -0.26642,-0.90145 -0.19002,-0.42358 -0.22054,-0.5785 -0.21884,-1.11064 0.001,-0.34012 0.0361,-0.94328 0.078,-1.34036 0.0418,-0.39705 0.10651,-1.44006 0.14396,-2.31779 0.12098,-2.84178 0.19556,-3.93844 0.31533,-4.63558 0.0884,-0.51527 0.11726,-1.17113 0.11643,-2.65975 -10e-4,-2.77889 0.12387,-4.04631 0.48467,-4.89727 0.0964,-0.22765 0.20682,-0.64446 0.24513,-0.92625 0.0447,-0.32846 0.1353,-0.61332 0.25268,-0.79371 0.12057,-0.1854 0.18304,-0.38584 0.18304,-0.58773 0,-0.17438 0.0503,-0.36433 0.11657,-0.44091 0.0642,-0.074 0.1413,-0.33317 0.17135,-0.57593 0.0302,-0.24278 0.14112,-0.62949 0.24682,-0.85936 0.10569,-0.22989 0.19251,-0.49808 0.19291,-0.59597 3.9e-4,-0.0981 0.0661,-0.2648 0.14615,-0.37088 0.28917,-0.38351 0.3213,-0.7101 0.29988,-3.04959 -0.0199,-2.16225 -0.0153,-2.2448 0.14556,-2.69356 0.0997,-0.27806 0.27709,-0.57888 0.44419,-0.75318 0.25806,-0.2692 0.31684,-0.29364 0.81138,-0.33725 0.43346,-0.0382 0.56868,-0.0227 0.72305,0.0829 0.13035,0.089 0.31136,0.12422 0.57676,0.11221 0.28977,-0.0133 0.45087,0.0235 0.64183,0.14595 0.14024,0.09 0.27341,0.17227 0.29596,0.1829 0.0459,0.0216 -0.0346,0.84295 -0.12842,1.31117 -0.0335,0.16719 -0.0336,0.606 -4.4e-4,0.97513 0.053,0.58822 0.0441,0.69622 -0.0716,0.87391 -0.12071,0.18544 -0.132,0.41379 -0.132,2.67255 0,1.62459 0.0296,2.61281 0.0866,2.88774 0.0477,0.22988 0.12112,0.76821 0.16307,1.19632 0.12415,1.26544 0.49598,2.06321 1.01791,2.18425 0.10707,0.0249 0.26142,0.15939 0.35531,0.30975 0.0913,0.14623 0.2766,0.32087 0.41179,0.38812 0.13517,0.0674 0.28182,0.20479 0.32588,0.30567 0.044,0.10096 0.19509,0.23348 0.33562,0.29473 0.19666,0.0858 0.37029,0.29206 0.754,0.89613 0.27415,0.43163 0.51863,0.86854 0.54327,0.97093 0.0245,0.10249 0.15532,0.33853 0.29044,0.52478 0.13518,0.18625 0.3006,0.49502 0.36773,0.68617 0.0671,0.19114 0.21533,0.41947 0.32934,0.50739 0.14294,0.11032 0.22144,0.25231 0.25294,0.45773 0.0251,0.16383 0.14443,0.42751 0.26513,0.58596 0.12071,0.15845 0.21947,0.36715 0.21947,0.46377 0,0.104 0.13394,0.32356 0.32781,0.5377 0.18031,0.19912 0.32783,0.39963 0.32783,0.4456 0,0.0459 0.10169,0.18401 0.22579,0.30678 0.12415,0.12282 0.32287,0.43607 0.44152,0.69625 0.11863,0.26018 0.29121,0.53502 0.3835,0.61077 0.0923,0.0758 0.222,0.24699 0.28823,0.38057 0.0662,0.13358 0.21855,0.29582 0.33852,0.36054 0.17853,0.0963 0.21002,0.15129 0.17354,0.30291 -0.0516,0.21398 0.13256,0.56532 0.47494,0.90709 0.12304,0.1227 0.22364,0.26809 0.22364,0.32297 0,0.0548 0.0248,0.0998 0.0552,0.0998 0.0303,0 0.0996,0.10513 0.15422,0.23363 0.0546,0.12852 0.16908,0.26803 0.25453,0.31004 0.0854,0.0419 0.24921,0.28737 0.36386,0.54527 0.11464,0.25791 0.33591,0.6818 0.49172,0.94199 0.1558,0.26021 0.2834,0.56799 0.28352,0.68395 2.3e-4,0.20154 0.37355,1.25364 0.5046,1.42216 0.0611,0.0785 0.35864,1.44829 0.51177,2.35531 0.12897,0.76428 0.0913,1.4078 -0.13785,2.35443 -0.11768,0.48606 -0.30067,1.07961 -0.40665,1.319 -0.10596,0.23939 -0.29985,0.74584 -0.43077,1.12546 -0.27792,0.80576 -0.50953,1.19035 -0.87138,1.44685 -0.14352,0.10172 -0.27972,0.26096 -0.3027,0.35382 -0.023,0.0929 -0.14627,0.22017 -0.27404,0.28286 -0.12773,0.0627 -0.26349,0.18808 -0.3016,0.27863 -0.0494,0.11727 -0.15814,0.17856 -0.37786,0.21294 -0.16969,0.0265 -0.4262,0.13155 -0.57001,0.23334 -0.1438,0.10185 -0.35076,0.20588 -0.4599,0.23128 -0.10913,0.0254 -0.33354,0.10943 -0.49865,0.1867 -0.32463,0.15198 -1.90329,0.26281 -2.32234,0.16303 z"
       id="path10000" />
    <path
       style="fill:url(#linearGradient10259);fill-opacity:1;stroke:#000000;stroke-width:0.148809"
       d="m 132.39608,179.5699 c -0.79183,-0.92307 -2.08116,-3.18659 -2.08116,-3.65363 0,-0.13704 -0.10072,-0.38274 -0.22397,-0.54604 -0.59245,-0.78529 -1.67038,-2.931 -1.74973,-3.483 -0.0919,-0.63962 0.16957,-3.1297 0.34498,-3.28472 0.0545,-0.048 1.03158,-0.20625 2.17148,-0.35151 1.13994,-0.14524 2.26372,-0.32126 2.49729,-0.39114 l 0.4247,-0.12708 0.0666,1.61846 c 0.0382,0.92952 -0.0124,2.1684 -0.12043,2.91034 -0.10293,0.71055 -0.22554,2.18102 -0.27273,3.26771 -0.14816,3.41253 -0.24821,4.78809 -0.34709,4.7721 -0.0527,-0.009 -0.37208,-0.33768 -0.7099,-0.73149 z"
       id="path10251" />
    <path
       style="fill:url(#linearGradient10291);fill-opacity:1;stroke:#000000;stroke-width:0.148809"
       d="m 103.14251,94.511734 c -0.4808,-0.113223 -1.30033,-0.209007 -1.82119,-0.212962 l -0.94704,-0.0076 0.50994,-0.320661 c 0.28046,-0.176341 0.77219,-0.541432 1.09273,-0.811295 0.32052,-0.269863 0.77909,-0.541166 1.01906,-0.60292 0.23995,-0.06179 0.50909,-0.175293 0.59808,-0.252337 0.33679,-0.291597 1.54107,-0.899383 1.78201,-0.899383 0.1382,0 0.41338,-0.11954 0.6115,-0.265756 0.34893,-0.257391 1.59102,-0.950131 1.70362,-0.950131 0.0306,0 -0.10417,0.222261 -0.29946,0.493944 -0.19524,0.271683 -0.50014,0.801729 -0.67752,1.177902 -0.17738,0.376161 -0.62743,1.175527 -1.00009,1.776388 -0.63078,1.01699 -0.7128,1.092025 -1.18751,1.086326 -0.28048,-0.0038 -0.90333,-0.09882 -1.38413,-0.211913 z"
       id="path10261" />
    <path
       style="fill:url(#linearGradient10299);fill-opacity:1;stroke:#000000;stroke-width:0.148809"
       d="m 109.91742,96.123595 c -0.28047,-0.06053 -1.00166,-0.298181 -1.60267,-0.528227 -0.601,-0.230045 -1.24025,-0.45424 -1.42054,-0.498215 -0.1803,-0.04398 -0.32782,-0.10602 -0.32782,-0.137889 0,-0.03184 0.22266,-0.382946 0.4948,-0.780196 0.27215,-0.397264 0.59949,-0.985956 0.72744,-1.308222 0.41721,-1.050717 2.45373,-3.745682 2.83055,-3.745682 0.0713,0 0.30672,-0.170971 0.52287,-0.379964 0.21616,-0.208981 0.53815,-0.379964 0.7155,-0.379964 0.17736,0 0.55097,-0.127185 0.83024,-0.282689 0.27929,-0.155491 0.67169,-0.334081 0.87204,-0.396872 0.20033,-0.0628 0.56092,-0.202372 0.80132,-0.310173 0.24039,-0.107788 0.86241,-0.277824 1.38226,-0.37779 0.51983,-0.10008 1.1324,-0.282815 1.36123,-0.40626 0.22885,-0.123458 0.4503,-0.188738 0.49215,-0.145079 0.0418,0.0436 -0.63627,0.827545 -1.50693,1.741966 -2.19466,2.305044 -3.04158,3.423454 -3.70642,4.894533 -1.62212,3.589333 -1.36905,3.277289 -2.46602,3.040723 z"
       id="path10263" />
    <path
       style="fill:url(#linearGradient10321);fill-opacity:1;stroke:#000000;stroke-width:0.148809"
       d="m 117.03484,98.711353 c -0.37253,-0.13876 -0.76591,-0.328116 -0.87417,-0.420779 -0.1083,-0.09275 -0.47274,-0.245437 -0.80992,-0.339477 -0.33718,-0.09401 -0.65248,-0.237501 -0.70065,-0.318829 -0.0483,-0.08125 -0.23972,-0.147859 -0.42565,-0.147859 -0.18591,0 -0.70528,-0.175406 -1.15416,-0.389757 -0.77928,-0.37218 -0.80703,-0.404782 -0.6144,-0.721955 0.11106,-0.182672 0.35016,-0.708321 0.53159,-1.168084 0.18141,-0.45975 0.41718,-0.943889 0.52394,-1.075863 0.10665,-0.131962 0.1941,-0.347375 0.1941,-0.478693 0,-0.445875 1.43982,-2.317667 3.16431,-4.11373 1.54392,-1.607957 2.45187,-2.430814 2.85275,-2.585408 0.17641,-0.06811 0.56902,-0.393194 0.8725,-0.722549 0.30348,-0.329381 0.63131,-0.601114 0.72849,-0.603843 0.0972,-0.0025 0.53732,-0.13727 0.97805,-0.299016 0.44072,-0.161708 1.19471,-0.29928 1.6755,-0.305674 0.4808,-0.0063 1.13644,-0.11019 1.45696,-0.23064 0.32053,-0.120425 0.81226,-0.218736 1.09273,-0.218357 l 0.50994,6.83e-4 -1.31128,1.379503 c -0.72119,0.758702 -1.51547,1.595194 -1.76509,1.85884 -0.24959,0.263671 -0.53054,0.633273 -0.62433,0.821354 -0.0938,0.18808 -0.2608,0.341966 -0.37113,0.341966 -0.26652,0 -1.45966,1.759467 -1.93442,2.852579 -0.20808,0.479097 -0.49721,1.031914 -0.6425,1.228461 -0.14529,0.196572 -0.30753,0.59846 -0.36051,0.89309 -0.13724,0.763087 -1.58342,4.413162 -1.88734,4.763494 -0.14002,0.161405 -0.29361,0.284332 -0.34129,0.273136 -0.0477,-0.01137 -0.39148,-0.133832 -0.76402,-0.272593 z"
       id="path10265" />
    <path
       style="fill:url(#linearGradient10313);fill-opacity:1;stroke:#000000;stroke-width:0.148809"
       d="m 125.1427,102.56923 c -0.48082,-0.29121 -1.15053,-0.60443 -1.48828,-0.69605 -0.33776,-0.0917 -1.11576,-0.49701 -1.72889,-0.90088 -0.61311,-0.40388 -1.43674,-0.8551 -1.83029,-1.00274 -0.39355,-0.147618 -0.68669,-0.339704 -0.65145,-0.426858 0.95899,-2.371208 1.83867,-4.677869 1.84116,-4.827788 0.006,-0.322923 1.42193,-3.160086 1.92787,-3.861153 0.2601,-0.360403 0.55336,-0.657397 0.65167,-0.659987 0.0983,-0.0025 0.29169,-0.192781 0.42972,-0.42265 0.13801,-0.229881 0.45096,-0.629128 0.69541,-0.887227 0.24445,-0.258086 0.80703,-0.87363 1.25017,-1.367878 0.44313,-0.494247 1.28297,-1.343174 1.8663,-1.886526 0.58334,-0.543353 1.22399,-1.1418 1.42369,-1.32988 0.24102,-0.227013 0.54746,-0.341967 0.91159,-0.341967 0.30167,0 0.92529,-0.07266 1.3858,-0.161455 0.46048,-0.08883 0.91063,-0.135943 1.00029,-0.104756 0.0897,0.03121 -0.19457,0.462897 -0.63166,0.959381 -0.82961,0.94236 -2.04281,2.98947 -2.40324,4.055148 -0.11547,0.341537 -0.26732,0.695255 -0.33734,0.78606 -0.07,0.09086 -0.30213,0.643863 -0.51578,1.229016 -0.21367,0.585154 -0.44971,1.181277 -0.52453,1.324738 -0.0748,0.143473 -0.19965,0.519621 -0.27739,0.835923 -0.0778,0.316302 -0.27313,1.088045 -0.43424,1.714987 -0.1611,0.626955 -0.36829,1.447664 -0.46045,1.823825 -0.0921,0.376173 -0.22836,0.807731 -0.30277,0.959039 -0.0744,0.151296 -0.19376,0.698452 -0.26528,1.215875 -0.0716,0.517448 -0.19677,1.248578 -0.27835,1.624753 -0.0815,0.37617 -0.15118,1.17978 -0.15467,1.78584 -0.004,0.60603 -0.0556,1.09982 -0.1156,1.09729 -0.0601,-0.003 -0.50265,-0.24286 -0.98343,-0.53406 z"
       id="path10267" />
    <path
       style="fill:url(#linearGradient10277);fill-opacity:1;stroke:#000000;stroke-width:0.148809"
       d="m 130.33593,106.09494 c -0.17606,-0.19547 -0.72815,-0.57249 -1.22685,-0.83778 -0.49872,-0.26529 -1.01667,-0.64133 -1.15103,-0.83563 -0.30825,-0.44585 -0.39833,-2.90824 -0.14174,-3.87479 0.0966,-0.36373 0.23559,-1.047671 0.30897,-1.519868 0.15091,-0.971285 0.26206,-1.47223 0.78048,-3.518278 0.47072,-1.857703 0.89713,-3.118689 1.34424,-3.975096 0.11574,-0.22187 0.21062,-0.504281 0.21062,-0.627574 0,-0.522655 1.1308,-2.921954 1.63909,-3.477766 0.14024,-0.153343 0.25498,-0.411706 0.25498,-0.57416 0,-0.264189 0.56161,-0.841306 0.68917,-0.708207 0.0281,0.02944 -0.0742,0.284243 -0.2271,0.566439 -0.15305,0.282209 -0.59059,1.299642 -0.97236,2.260956 -0.38177,0.961314 -0.80847,1.987226 -0.94824,2.279796 -0.13977,0.292584 -0.33058,0.908103 -0.42406,1.367866 -0.0935,0.459762 -0.23132,1.075307 -0.30631,1.367878 -0.15391,0.600494 -0.34687,5.036137 -0.34385,7.903274 10e-4,1.49336 0.0543,1.9974 0.2466,2.35578 0.13449,0.25081 0.24499,0.56732 0.24549,0.70338 4.8e-4,0.13608 0.10306,0.50255 0.22798,0.81436 0.2784,0.69509 0.2148,0.79678 -0.20608,0.32942 z"
       id="path10269" />
    <path
       style="fill:#00ff00;fill-opacity:0.857143;stroke:#000000;stroke-width:1.25535"
       id="path10375"
       sodipodi:type="arc"
       sodipodi:cx="13.757704"
       sodipodi:cy="74.762497"
       sodipodi:rx="5.3907714"
       sodipodi:ry="6.0794454"
       sodipodi:start="0"
       sodipodi:end="6.2827563"
       sodipodi:arc-type="arc"
       d="m 19.148475,74.762497 a 5.3907714,6.0794454 0 0 1 -5.390193,6.079445 5.3907714,6.0794454 0 0 1 -5.3913495,-6.078141 5.3907714,6.0794454 0 0 1 5.3890365,-6.080749 5.3907714,6.0794454 0 0 1 5.392506,6.076837"
       sodipodi:open="true" />
    <path
       style="fill:#00ff00;fill-opacity:0.857143;stroke:#000000;stroke-width:1.25535"
       id="path10377"
       sodipodi:type="arc"
       sodipodi:cx="22.936579"
       sodipodi:cy="101.51202"
       sodipodi:rx="6.1192541"
       sodipodi:ry="6.991363"
       sodipodi:start="0"
       sodipodi:end="6.2827563"
       sodipodi:open="true"
       sodipodi:arc-type="arc"
       d="m 29.055833,101.51202 a 6.1192541,6.991363 0 0 1 -6.118598,6.99136 6.1192541,6.991363 0 0 1 -6.11991,-6.98986 6.1192541,6.991363 0 0 1 6.117285,-6.992866 6.1192541,6.991363 0 0 1 6.121222,6.988366" />
    <path
       style="fill:#00ff00;fill-opacity:0.857143;stroke:#000000;stroke-width:1.25535"
       id="path10379"
       sodipodi:type="arc"
       sodipodi:cx="35.757896"
       sodipodi:cy="82.817757"
       sodipodi:rx="2.9139307"
       sodipodi:ry="6.8393764"
       sodipodi:start="0"
       sodipodi:end="6.2827563"
       sodipodi:open="true"
       sodipodi:arc-type="arc"
       d="m 38.671827,82.817757 a 2.9139307,6.8393764 0 0 1 -2.913618,6.839376 2.9139307,6.8393764 0 0 1 -2.914243,-6.837909 2.9139307,6.8393764 0 0 1 2.912993,-6.840843 2.9139307,6.8393764 0 0 1 2.914868,6.836442" />
    <path
       style="fill:#00ff00;fill-opacity:0.857143;stroke:#000000;stroke-width:1.25535"
       id="path10381"
       sodipodi:type="arc"
       sodipodi:cx="23.519386"
       sodipodi:cy="129.47748"
       sodipodi:rx="4.6622891"
       sodipodi:ry="6.6873903"
       sodipodi:start="0"
       sodipodi:end="6.2827563"
       sodipodi:open="true"
       sodipodi:arc-type="arc"
       d="m 28.181675,129.47748 a 4.6622891,6.6873903 0 0 1 -4.661789,6.68739 4.6622891,6.6873903 0 0 1 -4.662789,-6.68596 4.6622891,6.6873903 0 0 1 4.660789,-6.68882 4.6622891,6.6873903 0 0 1 4.663789,6.68452" />
    <path
       style="fill:#00ff00;fill-opacity:0.857143;stroke:#000000;stroke-width:1.25535"
       id="path10383"
       sodipodi:type="arc"
       sodipodi:cx="11.572248"
       sodipodi:cy="106.07163"
       sodipodi:rx="3.496717"
       sodipodi:ry="5.7754736"
       sodipodi:start="0"
       sodipodi:end="6.2827563"
       sodipodi:open="true"
       sodipodi:arc-type="arc"
       d="m 15.068965,106.07163 a 3.496717,5.7754736 0 0 1 -3.496342,5.77548 3.496717,5.7754736 0 0 1 -3.4970914,-5.77424 3.496717,5.7754736 0 0 1 3.4955914,-5.77671 3.496717,5.7754736 0 0 1 3.497842,5.77299" />
    <path
       style="fill:#00ff00;fill-opacity:0.857143;stroke:#000000;stroke-width:1.25535"
       id="path10385"
       sodipodi:type="arc"
       sodipodi:cx="12.59212"
       sodipodi:cy="88.745224"
       sodipodi:rx="3.3510201"
       sodipodi:ry="4.8635564"
       sodipodi:start="0"
       sodipodi:end="6.2827563"
       sodipodi:open="true"
       sodipodi:arc-type="arc"
       d="M 15.94314,88.745224 A 3.3510201,4.8635564 0 0 1 12.59248,93.60878 3.3510201,4.8635564 0 0 1 9.2411001,88.746267 3.3510201,4.8635564 0 0 1 12.591042,83.881668 3.3510201,4.8635564 0 0 1 15.94314,88.743137" />
    <path
       style="fill:#ffaaaa;fill-opacity:0.857143;stroke:#000000;stroke-width:1.25535"
       id="path10387"
       sodipodi:type="arc"
       sodipodi:cx="26.578979"
       sodipodi:cy="90.41703"
       sodipodi:rx="3.0596271"
       sodipodi:ry="3.7996535"
       sodipodi:start="0"
       sodipodi:end="6.2827563"
       sodipodi:open="true"
       sodipodi:arc-type="arc"
       d="m 29.638607,90.41703 a 3.0596271,3.7996535 0 0 1 -3.059299,3.799654 3.0596271,3.7996535 0 0 1 -3.059955,-3.798839 3.0596271,3.7996535 0 0 1 3.058642,-3.800468 3.0596271,3.7996535 0 0 1 3.060611,3.798023" />
    <path
       style="fill:#ffaaaa;fill-opacity:0.857143;stroke:#000000;stroke-width:0.148809"
       d="m 21.879688,107.66336 c -1.284442,-0.33668 -2.756542,-1.49476 -3.500196,-2.75355 -1.13271,-1.91734 -1.086508,-5.011481 0.103742,-6.943398 1.459402,-2.368946 4.189003,-3.327556 6.420316,-2.254751 3.880979,1.865942 4.629683,7.409749 1.433985,10.617999 -1.095629,1.09994 -3.082154,1.69427 -4.457782,1.3337 z"
       id="path10562" />
    <path
       style="fill:#ffaaaa;fill-opacity:0.857143;stroke:#000000;stroke-width:0.148809"
       d="m 10.847705,110.90316 c -0.722843,-0.38848 -1.4096612,-1.41665 -1.7676721,-2.64619 -0.4022588,-1.38157 -0.3394646,-3.5697 0.1393921,-4.85716 0.4195512,-1.12799 1.200887,-2.06227 1.910039,-2.2839 1.634512,-0.51087 3.211025,1.92225 3.211025,4.95572 0,3.28109 -1.784524,5.74959 -3.492784,4.83153 z"
       id="path10564" />
    <path
       style="fill:#ffaaaa;fill-opacity:0.857143;stroke:#000000;stroke-width:0.148809"
       d="m 22.73751,135.33211 c -1.130817,-0.37449 -2.09916,-1.4957 -2.745419,-3.17886 -0.47593,-1.23955 -0.47593,-4.11197 0,-5.35152 0.923887,-2.40618 2.568638,-3.66007 4.188882,-3.19338 1.226231,0.3532 2.207111,1.45018 2.855373,3.19338 0.441676,1.18767 0.539475,3.44974 0.201571,4.66226 -0.489671,1.75715 -1.359908,3.07199 -2.407085,3.63688 -0.552625,0.29812 -1.556527,0.40901 -2.093322,0.23124 z"
       id="path10566" />
    <path
       style="fill:#ffaaaa;fill-opacity:0.857143;stroke:#000000;stroke-width:0.148809"
       d="m 11.759793,92.607655 c -1.200053,-0.619676 -1.8837247,-2.289337 -1.759168,-4.296288 0.113689,-1.832139 0.948849,-3.234957 2.149221,-3.610132 0.49095,-0.153444 0.645042,-0.133946 1.214507,0.153621 2.451235,1.237862 2.4783,6.529178 0.0397,7.760659 -0.762359,0.384981 -0.884592,0.384387 -1.644248,-0.0076 z"
       id="path10568" />
    <path
       style="fill:#ffaaaa;fill-opacity:0.857143;stroke:#000000;stroke-width:0.148809"
       d="M 12.490108,79.884037 C 11.379696,79.47051 10.620261,78.858504 9.98386,77.864348 8.2080872,75.090291 9.1770083,71.212671 11.986697,69.848997 c 2.206054,-1.070703 4.765904,0.0064 5.938793,2.497816 0.379705,0.806708 0.421653,1.046983 0.421653,2.41567 0,1.368668 -0.04191,1.608962 -0.421653,2.415658 -1.069128,2.271431 -3.436896,3.450154 -5.435382,2.705896 z"
       id="path10570" />
    <path
       style="fill:#ffaaaa;fill-opacity:0.857143;stroke:#000000;stroke-width:0.148809"
       d="m 35.1257,88.518339 c -2.074467,-1.900048 -2.074467,-9.501134 0,-11.401169 0.273141,-0.250188 0.557617,-0.454873 0.632174,-0.454873 0.07461,0 0.359031,0.204685 0.632161,0.454873 2.07448,1.900035 2.07448,9.501121 0,11.401169 -0.27313,0.250162 -0.557604,0.454847 -0.632161,0.454847 -0.07462,0 -0.359033,-0.204685 -0.632174,-0.454847 z"
       id="path10572" />
  </g>
</svg>
