<?xml version="1.0" encoding="UTF-8" standalone="no"?>
<!-- Created with Inkscape (http://www.inkscape.org/) -->

<svg
   width="210mm"
   height="297mm"
   viewBox="0 0 210 297"
   version="1.1"
   id="svg5"
   inkscape:version="1.2.1 (9c6d41e410, 2022-07-14)"
   sodipodi:docname="slimak.svg"
   xmlns:inkscape="http://www.inkscape.org/namespaces/inkscape"
   xmlns:sodipodi="http://sodipodi.sourceforge.net/DTD/sodipodi-0.dtd"
   xmlns="http://www.w3.org/2000/svg"
   xmlns:svg="http://www.w3.org/2000/svg">
  <sodipodi:namedview
     id="namedview7"
     pagecolor="#ffffff"
     bordercolor="#000000"
     borderopacity="0.25"
     inkscape:showpageshadow="2"
     inkscape:pageopacity="0.0"
     inkscape:pagecheckerboard="0"
     inkscape:deskcolor="#d1d1d1"
     inkscape:document-units="mm"
     showgrid="false"
     inkscape:zoom="1.0544998"
     inkscape:cx="490.27985"
     inkscape:cy="350.87726"
     inkscape:window-width="1920"
     inkscape:window-height="1017"
     inkscape:window-x="1912"
     inkscape:window-y="-8"
     inkscape:window-maximized="1"
     inkscape:current-layer="layer1" />
  <defs
     id="defs2" />
  <g
     inkscape:label="Warstwa 1"
     inkscape:groupmode="layer"
     id="layer1">
    <path
       sodipodi:type="spiral"
       style="fill:none;fill-rule:evenodd;stroke:#000000;stroke-width:0.264583"
       id="path112"
       sodipodi:cx="40.096771"
       sodipodi:cy="24.838709"
       sodipodi:expansion="1"
       sodipodi:revolution="3"
       sodipodi:radius="23.668699"
       sodipodi:argument="-18.19706"
       sodipodi:t0="0.018139675"
       d="m 40.330758,25.198688 c 0.315913,1.253349 -1.542211,1.346056 -2.247705,0.948938 -1.81765,-1.023143 -1.57298,-3.59066 -0.370129,-4.976375 2.027586,-2.335833 5.685803,-1.866639 7.705044,0.20868 2.886836,2.967008 2.172727,7.804833 -0.787488,10.433714 -3.887374,3.452263 -9.93325,2.484728 -13.162384,-1.366297 -4.024778,-4.799901 -2.799932,-12.0664 1.945106,-15.891054 5.708497,-4.6012325 14.202296,-3.117037 18.619723,2.523915 5.180087,6.614853 3.435357,16.339936 -3.102724,21.348393 -7.519814,5.760507 -18.478754,3.754494 -24.077062,-3.681533 -6.342004,-8.42385 -4.074207,-20.618406 4.260341,-26.8057312 9.327242,-6.9242716 22.758671,-4.3943424 29.534401,4.8391492 5.692796,7.757744 5.652489,18.531635 0.255343,26.429188"
       transform="matrix(3.3432429,0,0,3.4866572,-16.018929,12.046348)" />
    <path
       style="fill:none;stroke:#000000;stroke-width:0.903339px;stroke-linecap:butt;stroke-linejoin:miter;stroke-opacity:1"
       d="m 154.21684,139.86467 c 1.50391,0.28852 2.93578,0.81436 4.37451,1.31452 0.10964,0.0381 0.57918,0.14445 0.66732,0.15467 0.0983,0.0112 0.20158,-0.0282 0.29654,0 0.0856,0.0255 0.14275,0.11307 0.22232,0.15464 0.56899,0.29671 1.26401,0.31069 1.85363,0.54128 0.10359,0.0405 0.1899,0.12431 0.29655,0.15463 0.41305,0.11745 0.85383,0.15509 1.26043,0.3093 0.15579,0.0591 0.28752,0.1773 0.44488,0.23197 0.14277,0.0496 0.29889,0.0394 0.44486,0.0773 0.34826,0.0908 0.91638,0.26701 1.26048,0.38662 0.73306,0.25484 -0.18823,0.066 0.66726,0.3093 0.1451,0.0412 0.29989,0.0361 0.44489,0.0773 0.40227,0.11444 0.79031,0.32629 1.18631,0.46394 0.19325,0.0672 0.40233,0.08 0.59317,0.15468 0.20694,0.0808 0.38343,0.23639 0.59316,0.30929 0.57904,0.20129 1.20282,0.32649 1.77944,0.54129 0.15612,0.0581 0.28651,0.18112 0.44488,0.23196 0.16716,0.0536 0.34947,0.0331 0.51901,0.0773 0.56688,0.14781 1.07963,0.50419 1.6312,0.69594 0.65799,0.22874 1.33639,0.4203 2.00186,0.6186 0.76738,0.22865 -0.36749,-0.10694 0.44488,0.23196 0.15948,0.0665 1.13698,0.4296 1.3346,0.46396 0.0977,0.0171 0.2016,-0.0282 0.29655,0 0.0856,0.0255 0.14275,0.11307 0.22232,0.15462 0.1889,0.0985 0.39089,0.1687 0.59312,0.23198 0.47474,0.14852 0.92846,0.2753 1.40875,0.38662 0.16147,0.0375 0.31092,0.19706 0.44489,0.23197 0.0719,0.0189 0.15043,-0.0189 0.22232,0 0.0337,0.009 0.0428,0.061 0.0742,0.0773 0.14108,0.0736 0.35201,0.15466 0.51904,0.15466 0.34612,0.15471 0.72505,0.24627 1.03837,0.46408 0.20562,0.14296 0.22368,0.50333 0.44486,0.6186 0.32663,0.17023 0.91384,0.82354 1.03804,1.08255 0.11767,0.24547 0.49527,0.3619 0.59312,0.46395 0.17486,0.18224 0.22401,0.50334 0.44489,0.6186 0.16851,0.0878 0.30958,0.098 0.44486,0.3093 0.0986,0.15446 0.3059,0.66452 0.44488,0.77326 0.0912,0.0715 0.52205,0.0868 0.59315,0.30929 0.0301,0.0978 -0.0441,0.21708 0,0.30931 0.0234,0.0461 0.11333,-0.0365 0.14811,0 0.22835,0.23807 0.36488,0.68984 0.59316,0.9279 0.12597,0.13141 0.30223,0.1978 0.44489,0.30931 0.49098,0.38403 -0.23738,-0.13955 0.14811,0.46394 0.0612,0.0959 0.21831,0.0731 0.29654,0.15464 0.0877,0.0915 0.25642,0.6898 0.29654,0.77324 0.0625,0.1304 0.23403,0.1789 0.29656,0.3093 0.0447,0.0937 0.0862,0.39915 0.14843,0.46396 0.0352,0.0365 0.11333,-0.0365 0.14844,0 0.0348,0.0365 -0.0167,0.10569 0,0.15466 0.0301,0.0945 0.26646,0.36958 0.29655,0.46396 0.0301,0.0978 -0.0441,0.21708 0,0.30929 0.0625,0.1304 0.21263,0.19265 0.29654,0.3093 0.19558,0.27218 0.24907,0.65572 0.44485,0.92791 0.57189,0.7952 1.10301,1.64814 1.6312,2.4744 0.27515,0.43035 0.11596,0.72279 0.44486,1.2372 0.0612,0.096 0.23536,0.0587 0.29654,0.15464 0.2123,0.33192 -0.21999,0.27191 0.14844,0.46394 0.0441,0.023 0.13273,-0.049 0.14845,0 0.0469,0.14672 -0.0361,0.31391 0,0.46395 0.0134,0.0556 0.28082,0.60199 0.29654,0.61861 0.0351,0.0365 0.1261,-0.0461 0.14843,0 0.0441,0.0922 -0.0441,0.21708 0,0.30929 0.0234,0.0461 0.11333,-0.0365 0.14811,0 0.0829,0.0866 -0.0334,0.67252 0,0.77326 0.0949,0.29709 0.29656,0.24806 0.29656,0.61859"
       id="path347" />
    <path
       style="fill:none;stroke:#000000;stroke-width:0.903339px;stroke-linecap:butt;stroke-linejoin:miter;stroke-opacity:1"
       d="m 70.878427,139.16874 c 0.259094,-2.36141 -1.329499,-0.45861 -1.779476,-0.92789 -0.06987,-0.0728 0.08847,-0.26321 0,-0.30931 -0.176857,-0.0922 -0.405582,0.0652 -0.593154,0 -0.481879,-0.16753 -0.586151,-0.77142 -1.18631,-0.92791 -0.42184,-0.10994 -2.100288,-0.64388 -2.372629,-0.92789 -0.06987,-0.0728 0.08847,-0.26321 0,-0.30931 -0.176824,-0.0922 -0.416311,0.0923 -0.593155,0 -0.08847,-0.0461 0.06987,-0.23639 0,-0.30929 -0.225434,-0.23514 -1.17175,-0.14707 -1.482886,-0.3093 -0.51748,-0.26984 -0.908195,-0.5683 -1.482888,-0.92791 -0.52284,-0.32715 -2.394858,-0.95108 -2.669205,-1.23719 -0.06987,-0.0728 0.08228,-0.25212 0,-0.30931 -0.296847,-0.20641 -3.557134,-1.23532 -3.558939,-1.2372 -0.06988,-0.0728 0.06987,-0.23639 0,-0.30931 -0.139814,-0.1458 -0.453346,0.14582 -0.593155,0 -0.148674,-0.15505 -0.225166,-0.79996 -0.593154,-0.92789 -0.18759,-0.0652 -0.405582,0.0652 -0.593155,0 -0.265287,-0.0922 -0.34306,-0.48818 -0.593155,-0.61861 -0.279628,-0.1458 -0.629623,-0.12844 -0.889741,-0.30929 -0.08228,-0.0572 0.06987,-0.2364 0,-0.3093 -0.139814,-0.14582 -0.416303,0.0922 -0.593154,0 -0.125033,-0.0652 -0.19772,-0.20621 -0.296579,-0.30931 -0.296576,-0.10307 -0.599467,-0.18821 -0.889731,-0.30928 -2.497085,-1.04169 0.218748,0.22816 -0.593154,-0.61861 -0.37964,-0.39592 -1.311619,-0.14665 -1.779472,-0.3093 -2.148234,-0.74679 0.46759,0.0892 -0.889733,-0.61861 -0.08847,-0.0461 -0.226672,0.0728 -0.296579,0 -0.06988,-0.0728 0.06987,-0.23639 0,-0.30929 -0.303802,-0.31683 -0.889735,0.4719 -0.889735,-0.3093"
       id="path349" />
    <path
       style="fill:none;stroke:#000000;stroke-width:0.903339px;stroke-linecap:butt;stroke-linejoin:miter;stroke-opacity:1"
       d="m 192.47538,165.14996 c 0.39544,0.2062 0.9886,1.03101 1.18632,0.61861 0.19758,-0.41241 -1.259,-1.07341 -1.18632,-0.61861 0.15345,0.9594 1.03,1.62416 1.4829,2.47441 0.69694,1.30825 0.25308,2.25571 -0.29654,3.40229 -0.32798,0.68389 -0.18389,0.096 -0.59317,0.30931 -0.44805,0.23364 -0.71488,1.07332 -1.18631,1.23719 -0.2815,0.0978 -0.68001,-0.21872 -0.88971,0 -0.0699,0.0728 0.0699,0.2364 0,0.30931 -0.22064,0.23019 -2.25445,0.093 -2.66921,0.3093 -1.06927,0.55756 -2.32184,0.60536 -3.55895,0.9279 -0.69636,0.18156 -1.74516,-0.32719 -2.3726,0 -0.0886,0.0461 0.0699,0.2364 0,0.30931 -0.25141,0.26223 -2.78351,-0.24971 -3.26236,0 -0.12504,0.0652 -0.17151,0.24409 -0.29655,0.3093 -0.83029,0.43295 -3.15361,-0.26035 -4.15211,0 -2.4627,0.64208 -5.10887,0.61859 -7.71102,0.61859 -0.81461,0 -1.87281,-0.1661 -2.66918,0 -0.21665,0.0452 -0.37347,0.28386 -0.59315,0.30931 -3.35866,0.38919 -7.26253,0 -10.67684,0 -0.59315,0 -1.21674,-0.19564 -1.77946,0 -0.13263,0.0461 -0.16395,0.26321 -0.29657,0.3093 -0.82462,0.28663 -5.38418,0 -6.22815,0 -2.0042,0 -4.24357,-0.29567 -6.22814,0 -2.69045,0.40084 -5.27238,0.6186 -8.0076,0.6186 -1.21353,0 -3.71228,-0.35909 -4.74525,0 -2.13912,0.74363 -5.14657,0.30931 -7.41445,0.30931 -2.18652,0 -4.09724,0.0611 -6.22814,-0.30931 -0.91513,-0.15906 -1.29618,0.0973 -2.07604,-0.3093 -0.65757,-0.34288 -3.67908,0 -4.44866,0 -2.68097,0 -5.656708,0.39444 -8.304185,0 -0.309494,-0.0461 -0.580264,-0.26321 -0.889745,-0.3093 -1.353941,-0.2017 -2.790582,0.14198 -4.152078,0 -3.38522,-0.35305 -0.946147,-0.30931 -2.965791,-0.30931 -0.713536,0 -2.00215,0.2319 -2.669209,0 -1.644559,-0.5717 -3.354761,0.0426 -5.041823,-0.3093 -0.216776,-0.0452 -0.376387,-0.26408 -0.59315,-0.30929 -1.045631,-0.2181 -2.216742,0.21809 -3.262359,0 -0.306546,-0.064 -0.583186,-0.24536 -0.889732,-0.30931 -1.290654,-0.26921 -2.912298,0.43098 -4.152091,0 -0.132628,-0.0461 -0.17151,-0.2441 -0.296582,-0.3093 -0.316313,-0.16492 -1.499888,0 -1.779464,0 -0.843437,0 -1.849466,0.17099 -2.669209,0 -0.306542,-0.064 -0.58026,-0.26321 -0.889734,-0.3093 -0.940127,-0.14005 -2.688408,0.45393 -3.558936,0 -1.267496,-0.66093 1.829433,-0.12514 -1.482887,-0.61861 -0.851308,-0.12685 -1.348886,0.0699 -2.076051,-0.3093 -0.318678,-0.16617 -2.127372,-0.13877 -2.37262,-0.3093 -0.183944,-0.12789 -0.09887,-0.5155 -0.296579,-0.6186 -0.494301,-0.25773 -0.988597,0.17182 -1.482895,0 -0.37311,-0.12971 -0.748723,-0.46648 -1.18631,-0.6186 -0.187589,-0.0652 -0.453346,0.14581 -0.593154,0 -0.06987,-0.0728 0.06987,-0.2364 0,-0.3093 -0.139815,-0.14582 -0.416311,0.0922 -0.593155,0 -0.250109,-0.13044 -0.343061,-0.4882 -0.593155,-0.6186 -0.409791,-0.2137 -1.04684,-0.15771 -1.482895,-0.30931 -0.497305,-0.17286 -0.955987,-1.05403 -1.482886,-1.2372 -0.281367,-0.0978 -0.680019,0.21872 -0.889733,0 -0.156297,-0.163 -0.140283,-0.45558 -0.296579,-0.6186 -0.349611,-0.3646 -3.051967,-1.19755 -3.262361,-1.8558 -0.06255,-0.1956 0.08847,-0.43417 0,-0.6186 -0.139814,-0.29163 -0.668681,-0.0787 -0.889733,-0.3093 -0.156296,-0.163 -0.140283,-0.45559 -0.296579,-0.6186 -0.312627,-0.32604 -0.873696,-0.29257 -1.18632,-0.61861 -0.06987,-0.0728 0.06987,-0.23639 0,-0.30929 -0.09887,-0.10308 -0.790874,-0.20621 -0.889734,-0.30931 -0.06988,-0.0728 0.06987,-0.2364 0,-0.3093 -0.148272,-0.15467 -0.444866,-0.15467 -0.593155,-0.3093 -0.156296,-0.16301 -0.140281,-0.45559 -0.296579,-0.61861 -0.36123,-0.37672 -0.66262,-0.14486 -0.889733,-0.61859 -0.04423,-0.0922 0.06988,-0.2364 0,-0.30931 -0.06987,-0.0728 -0.226672,0.0728 -0.296579,0 -0.139815,-0.1458 0.08847,-0.43416 0,-0.61859 -0.280197,-0.58442 -0.889735,-0.28235 -0.889735,-0.92791 -0.999856,0.64791 -1.82422,1.76827 -2.965828,2.16513 -0.187589,0.0652 -0.453346,-0.14581 -0.593154,0 -0.148306,0.15464 -0.148306,0.46395 -0.296579,0.6186 -0.139814,0.14581 -0.453346,-0.14581 -0.593154,0 -0.156298,0.163 -0.112633,0.49072 -0.296579,0.6186 -0.164522,0.11432 -0.405583,-0.0652 -0.593156,0 -0.132625,0.0461 -0.171541,0.24411 -0.296579,0.3093 -0.08843,0.0461 -0.226672,-0.0728 -0.296579,0 -0.06991,0.073 0.08843,0.26321 0,0.3093 -0.57599,0.30035 -2.590331,0.0757 -3.262356,0.30931 -0.539994,0.18772 -0.942895,0.43087 -1.482889,0.61859 -0.325899,0.11332 -4.470787,0.14313 -4.745248,0 -0.294239,-0.15341 -0.582533,-0.51181 -0.889734,-0.61859 -0.18759,-0.0652 -0.416311,0.0922 -0.593159,0 -0.08843,-0.0461 0.08843,-0.26321 0,-0.30931 -0.176856,-0.0922 -0.405582,0.0652 -0.593154,0 -0.420627,-0.14623 -0.423458,-0.75092 -0.593155,-0.92789 -0.139814,-0.14582 -0.45335,0.14581 -0.593158,0 -0.139814,-0.14582 0.139815,-0.47281 0,-0.61861 -0.06991,-0.0728 -0.226672,0.073 -0.296579,0 -0.07305,-0.0762 -0.84794,-1.10644 -0.889734,-1.2372 -0.06252,-0.19563 0.06252,-0.42298 0,-0.6186 -0.02976,-0.0933 -0.69842,-0.52886 -0.889734,-0.9279 -0.150479,-0.31387 -0.237002,-1.48437 -0.296579,-1.5465 -0.06991,-0.0728 -0.226671,0.073 -0.296579,0 -0.136337,-0.14219 -0.476538,-0.99396 -0.593155,-1.2372 -0.08843,-0.18445 0.139814,-0.47279 0,-0.6186 -0.06991,-0.073 -0.26532,0.0978 -0.296579,0 -0.09378,-0.29344 0.05817,-0.62461 0,-0.9279 -0.106144,-0.55358 -0.386496,-0.80615 -0.593155,-1.2372 -0.387869,-0.80902 0.08829,-7.64044 -0.296579,-8.04181 -0.06991,-0.073 -0.252382,0.0922 -0.296579,0 -0.295709,-0.61679 0,-3.74522 0,-4.63951 0,-1.42783 -0.290996,-8.67784 0,-9.5883 0.0442,-0.13832 0.252381,-0.17099 0.296579,-0.3093 0.190967,-0.59746 -0.27107,-1.59972 0,-2.1651 0.195045,-0.40685 0.459462,-0.81892 0.593158,-1.2372 0.199358,-0.62373 0.100326,-1.24182 0.296579,-1.85581 0.196818,-0.6158 0.767947,-0.80088 0.889735,-0.9279 0.139814,-0.14581 -0.139815,-0.47279 0,-0.6186 0.06991,-0.0728 0.226672,0.073 0.296579,0 0.05466,-0.057 0.241917,-0.87091 0.296579,-0.92789 0.156296,-0.16305 0.436844,-0.14631 0.593154,-0.30931 0.190198,-0.19836 0.554344,-1.52626 0.593155,-1.5465 0.176858,-0.0922 0.428645,0.11432 0.593158,0 0.217244,-0.15104 1.226753,-1.78082 1.779468,-2.1651 0.371875,-0.25854 1.219776,-0.3442 1.482889,-0.6186 0.613631,-0.63996 -0.93771,0.0251 0.296579,-0.6186 0.373909,-0.19498 1.085093,-0.10182 1.482889,-0.30931 1.357323,-0.70777 -1.258505,0.12821 0.889733,-0.6186 0.187589,-0.0652 0.453348,0.14582 0.593158,0 0.06991,-0.0729 -0.06991,-0.23639 0,-0.3093 0.253452,-0.26432 2.296441,0 2.669203,0 0.921751,0 2.40909,-0.29661 3.262356,0 0.295342,0.10269 0.594392,0.51594 0.889733,0.61861 0.18759,0.0652 0.405586,-0.0652 0.593156,0 0.777426,0.27025 -0.185718,0.4249 0.296579,0.9279 0.139814,0.14581 0.405585,-0.0652 0.593158,0 0.33302,0.11569 2.301678,2.70971 2.669201,3.093 0.312627,0.32604 0.818452,0.36284 1.18631,0.6186 0.397481,0.27635 1.159684,0.59082 1.482891,0.9279 0.06991,0.073 -0.06991,0.23639 0,0.30931 0.139816,0.1458 0.453348,-0.14582 0.593156,0 0.06991,0.073 -0.06991,0.23639 0,0.30929 0.139814,0.14582 0.453346,-0.14581 0.593154,0 0.06991,0.073 -0.08224,0.25213 0,0.3093 0.209957,0.94308 0.82174,0.11919 1.186314,0.30931 0.345477,0.18015 0.54426,0.43845 0.889733,0.61859 0.176858,0.0922 0.453348,-0.14581 0.593158,0 0.06991,0.073 -0.06991,0.2364 0,0.3093 0.197719,0.20621 0.98859,-0.2062 1.18631,0 0.18184,0.18965 0.203203,0.61861 0.889734,0.61861"
       id="path351" />
    <path
       style="fill:none;stroke:#000000;stroke-width:0.903339px;stroke-linecap:butt;stroke-linejoin:miter;stroke-opacity:1"
       d="m 28.764345,129.88973 c -0.581417,0.49745 -1.990965,-0.35366 -2.669195,0 -0.430811,0.22466 -0.779136,0.71559 -1.18632,0.92791 -0.333489,0.17391 -0.538419,0.80578 -0.889733,0.92789 -0.187557,0.0652 -0.405582,-0.0652 -0.593156,0 -0.220821,0.0767 -1.134279,1.1558 -1.18631,1.23721 -0.05482,0.0858 0.06988,0.2364 0,0.3093 -0.06987,0.0728 -0.226672,-0.0728 -0.296579,0 -0.07853,0.082 0,0.80054 0,0.92791 0,0.63401 -0.309416,2.60897 0,3.09299 0.155094,0.24265 0.438045,0.37597 0.593156,0.61861 0.05484,0.0858 -0.06987,0.2364 0,0.3093 0.613631,0.63996 -0.02407,-0.97794 0.593154,0.3093 0.08986,0.18744 0.172311,0.79829 0.296579,0.9279 0.139815,0.14582 0.453351,-0.14582 0.593156,0 0.06987,0.0728 -0.06988,0.2364 0,0.3093 0.139814,0.14581 0.416313,-0.0922 0.593154,0 0.919419,0.47944 1.845232,0.6186 2.965784,0.6186 0.366707,0 1.945303,-0.17294 2.076044,-0.30931 0.1013,-0.10557 0.809896,-1.46322 0.88974,-1.54649 0.613622,-0.63995 -0.02407,0.97794 0.593155,-0.3093 0.278793,-0.58154 0.529225,-6.0767 0.296579,-6.80462 -0.08847,-0.27662 -0.468111,-0.35777 -0.593155,-0.61859 -0.04423,-0.0922 0.06987,-0.2364 0,-0.3093 -0.06987,-0.0728 -0.226672,0.0728 -0.296579,0 -0.06987,-0.0728 0.06988,-0.23639 0,-0.30931 -0.06987,-0.0728 -0.199057,0.0171 -0.296579,0 -0.49723,-0.0865 -0.9886,-0.2062 -1.482895,-0.3093 z"
       id="path353" />
    <path
       style="fill:none;stroke:#000000;stroke-width:0.903339px;stroke-linecap:butt;stroke-linejoin:miter;stroke-opacity:1"
       d="m 22.013265,135.32826 c 0.06987,-0.0912 0.141017,-0.18127 0.209721,-0.27339 0.07078,-0.0948 0.174483,-0.34599 0.262144,-0.43742 0.01237,-0.0129 0.04008,0.0129 0.05245,0 0.03708,-0.0386 -0.01637,-0.11219 0,-0.16404 0.01806,-0.0566 0.0788,-0.10982 0.104841,-0.16405 0.01572,-0.0325 -0.01106,-0.0747 0,-0.10932 0.03982,-0.12469 0.10338,-0.21562 0.1573,-0.32806 0.01572,-0.0325 -0.02475,-0.0836 0,-0.10932 0.108486,-0.1132 -0.0043,0.17286 0.10484,-0.0547 0.01605,-0.0331 0.03042,-0.1411 0.05245,-0.16404 0.01237,-0.0129 0.0368,0.009 0.05245,0 0.108053,-0.0563 0.109329,-0.22105 0.209721,-0.27339 0.134666,-0.0702 0.291264,-0.13972 0.419427,-0.27339 0.01237,-0.0129 -0.01237,-0.0419 0,-0.0547 0.10846,-0.1132 -0.0043,0.17287 0.10484,-0.0547 0.008,-0.0164 -0.01572,-0.0465 0,-0.0547 0.03109,-0.0164 0.07175,0.0112 0.104841,0 0.04687,-0.0164 0.05794,-0.0931 0.104841,-0.10932 0.03309,-0.0112 0.07095,0.009 0.104841,0 0.09488,0.0327 0.0975,-0.0886 0.157299,-0.10932 0.113634,-0.0395 0.350128,-0.0912 0.471856,-0.10932 0.205509,-0.0307 0.423619,0.0307 0.629128,0 0.433578,-0.0646 0.922674,-0.10058 1.363133,-0.0547 0.03891,0.004 0.06776,0.0419 0.104841,0.0547 0.109053,0.0378 0.258967,0.01 0.366997,0.0547 0.05847,0.0244 0.0975,0.0886 0.157301,0.10932 0.04971,0.0171 0.105551,-0.009 0.157265,0 0.155729,0.0272 0.336163,0.14794 0.471845,0.21869 0.195479,0.10195 0.423399,0.18759 0.629141,0.27339 0.02308,0.01 0.02842,0.0485 0.05245,0.0547 0.05085,0.0132 0.10588,-0.0112 0.157299,0 0.249674,0.052 -0.0224,0.039 0.157299,0.16404 0.02909,0.0202 0.07358,-0.0164 0.104841,0 0.01572,0.009 -0.01237,0.0419 0,0.0547 0.03912,0.0407 0.132559,0.002 0.1573,0.0547 0.01572,0.0324 -0.01939,0.0791 0,0.10932 0.02675,0.0418 0.446924,0.24738 0.471852,0.27339 0.01237,0.0129 -0.0097,0.0395 0,0.0547 0.188558,0.29497 0.01639,-0.0376 0.209721,0.16404 0.09197,0.096 0.07128,0.12902 0.157266,0.21872 0.01939,0.0202 0.09996,0.0496 0.104841,0.0547 0.02475,0.0259 -0.02473,0.0836 0,0.10933 0.01237,0.0129 0.04008,-0.0129 0.05245,0 0.09291,0.0969 0.101431,0.15693 0.157266,0.27339 0.05794,0.12094 0.03243,0.0171 0.104841,0.0547 0.01639,0.009 0.250142,0.30299 0.262144,0.32806 0.03628,0.0756 0.02675,0.19298 0.05245,0.27339 0.05456,0.17067 0.03493,-0.0181 0.104841,0.0547 0.03493,0.0365 -0.03493,0.0728 0,0.10933 0.01237,0.0129 0.04008,-0.0129 0.05245,0 0.02473,0.0259 -0.01572,0.0767 0,0.10932 0.01605,0.0331 0.173281,0.23539 0.209722,0.27339"
       id="path355" />
    <path
       style="fill:none;stroke:#000000;stroke-width:0.903339px;stroke-linecap:butt;stroke-linejoin:miter;stroke-opacity:1"
       d="m 30.087189,164.36178 c 0.604016,-0.22911 0.545377,-0.56878 0.943697,-0.98419 0.0553,-0.0577 0.16636,-0.0415 0.209722,-0.10932 0.03875,-0.0607 -0.02206,-0.14954 0,-0.21872 0.03109,-0.0978 0.154892,-0.13291 0.209721,-0.21872 0.04336,-0.0678 0.03982,-0.17349 0.104841,-0.21871 0.05821,-0.0404 0.160274,0.0516 0.209721,0 0.01,-0.01 0.503663,-1.02902 0.524285,-1.09355 0.02206,-0.0692 -0.02206,-0.14954 0,-0.21872 0.06148,-0.19245 0.260271,-0.3769 0.314566,-0.54677 0.02206,-0.0692 -0.01705,-0.148 0,-0.21871 0.04574,-0.19068 0.164018,-0.35611 0.209721,-0.54677 0.04333,-0.18086 -0.08031,-0.48851 0,-0.65613 0.235764,-0.49175 0.10484,-1.38876 0.10484,-1.96838 0,-0.2775 0.01132,-1.73785 -0.10484,-1.85901 -0.02475,-0.0257 -0.08013,0.0259 -0.104841,0 -0.07412,-0.0773 0.05821,-0.23709 0,-0.32806 -0.04333,-0.0678 -0.166359,-0.0415 -0.209721,-0.10932 -0.07757,-0.12131 0.04423,-0.29909 0,-0.43741 0.03919,-0.23824 -0.174752,-0.0365 -0.209721,-0.10932 -0.136037,-0.28371 0.212495,-0.32806 -0.209723,-0.32806"
       id="path357" />
    <path
       style="fill:none;stroke:#000000;stroke-width:0.903339px;stroke-linecap:butt;stroke-linejoin:miter;stroke-opacity:1"
       d="m 28.51434,155.06668 c 0.530041,-0.1062 2.730055,0.16206 3.04083,0 0.304202,-0.15865 0.748385,-0.34309 1.048565,-0.65613 0.02475,-0.0259 -0.02475,-0.0836 0,-0.10932 0.06439,-0.0671 0.244357,-0.0722 0.314566,-0.21872 0.08582,-0.17897 0.0995,-0.28789 0.314566,-0.43742 0.02909,-0.0202 0.08013,0.0259 0.104841,0 0.14533,-0.15156 0.209086,-0.43708 0.419426,-0.54676 0.171107,-0.0892 0.229247,-0.30519 0.419426,-0.43741 0.05503,-0.0382 0.280231,-0.11132 0.314566,-0.21872 0.02206,-0.0692 -0.04945,-0.16716 0,-0.21872 0.04945,-0.0516 0.160276,0.0516 0.209723,0 0.04945,-0.0516 -0.03109,-0.15352 0,-0.21871 0.04423,-0.0923 0.16549,-0.1265 0.209721,-0.21873 0.03109,-0.0652 -0.02206,-0.14954 0,-0.21872 0.06589,-0.20612 0.367137,-0.32869 0.419426,-0.54677 0.04483,-0.18709 -0.09073,-0.54677 0.209721,-0.54677"
       id="path359" />
    <path
       style="fill:none;stroke:#000000;stroke-width:0.903339px;stroke-linecap:butt;stroke-linejoin:miter;stroke-opacity:1"
       d="m 25.368653,118.10497 c -0.448951,-0.36404 -0.615568,-0.59953 -0.733986,-1.09354 -0.03795,-0.15815 -0.179064,-0.27757 -0.209721,-0.43742 -0.02039,-0.10724 0.04687,-0.23025 0,-0.32805 -0.03493,-0.0729 -0.174752,-0.0364 -0.209721,-0.10935 -0.04687,-0.0978 0.02039,-0.22085 0,-0.32806 -0.07766,-0.40491 -0.469438,-0.91691 -0.524281,-1.20289 -0.02039,-0.10721 0.02039,-0.22085 0,-0.32806 -0.05707,-0.29759 -0.365133,-0.48235 -0.419428,-0.76548 -0.09806,-0.51131 0.136505,-0.15265 -0.10484,-0.65613 -0.282437,-0.58908 -0.737462,-1.07254 -1.048565,-1.64031 -0.05482,-0.10006 -0.04353,-0.23214 -0.104841,-0.32806 -0.08228,-0.12866 -0.241015,-0.19379 -0.314566,-0.32806 -0.07147,-0.13047 -0.05423,-0.29668 -0.104841,-0.43742 -0.441903,-1.22895 0.05821,0.29755 -0.52428,-0.76547 -0.13383,-0.24427 -0.196182,-0.67376 -0.419427,-0.98419 -0.210958,-0.29333 -0.555085,-0.56386 -0.733996,-0.87483 -0.05686,-0.0989 -0.04794,-0.22922 -0.104841,-0.32806 -0.09989,-0.17364 -0.311858,-0.26914 -0.419426,-0.43742 -0.209721,-0.32805 0,-0.21871 -0.314566,-0.65612 -0.118648,-0.16495 -0.317708,-0.26059 -0.419426,-0.43742 -0.113739,-0.19769 -0.103841,-0.45374 -0.209721,-0.65613 -0.316405,-0.60495 -0.545444,-0.53973 -0.943711,-1.09353 -0.06633,-0.0923 -0.03858,-0.23584 -0.104841,-0.32806 -0.168298,-0.23402 -0.246363,-0.0765 -0.419423,-0.43742"
       id="path361" />
    <path
       style="fill:none;stroke:#000000;stroke-width:0.903339px;stroke-linecap:butt;stroke-linejoin:miter;stroke-opacity:1"
       d="m 29.877474,117.5582 c 0,-0.14581 0.02742,-0.29444 0,-0.43742 -0.0097,-0.0506 -0.09288,-0.0593 -0.104841,-0.10934 -0.140016,-0.58409 0.04192,-1.5742 0,-2.18708 -0.03042,-0.44417 -0.223696,-1.25397 -0.104841,-1.74967 0.07008,-0.29215 0.272341,-0.56673 0.314566,-0.87483 0.06863,-0.50119 -0.0054,-0.9041 0.104841,-1.42161 0.08535,-0.4008 0.265252,-0.79158 0.314566,-1.20289 0.116371,-0.97103 0.253517,-1.46129 0.733995,-2.29644 0.117082,-0.20352 0.178228,-0.46654 0.314565,-0.65612 0.151215,-0.21028 0.258065,-0.4542 0.419427,-0.65613 0.08067,-0.10097 0.225469,-0.12576 0.314566,-0.21872 0.678825,-0.70794 -0.334616,0.0604 0.524284,-0.65612 0.06105,-0.0509 0.154458,-0.0517 0.209721,-0.10935 0.0553,-0.0577 0.04961,-0.16108 0.104841,-0.21872 0.08626,-0.09 0.783733,-0.67927 0.838842,-0.76547 0.473791,-0.74117 -0.607864,0.63394 0.524281,-0.54677 0.0553,-0.0577 0.04961,-0.16109 0.104841,-0.21872 0.184947,-0.19288 0.92339,-0.46032 1.048564,-0.65613 0.03875,-0.0607 -0.04945,-0.16715 0,-0.21871 0.04945,-0.0516 0.143392,0.023 0.209721,0 0.148273,-0.0516 0.274281,-0.15816 0.41942,-0.21872 0.06987,-0.0364 0.139814,-0.0729 0.209721,-0.10935 0,-0.0364 -0.03109,-0.093 0,-0.10934 0.01505,-0.007 0.372545,-0.10935 0.419427,-0.10935"
       id="path363" />
    <path
       style="fill:#803300;stroke-width:0.151436"
       d="m 111.0605,157.02794 c -6.41729,-0.41175 -12.714635,-1.88855 -18.606031,-4.36331 -11.310803,-4.75126 -20.717321,-12.78148 -27.261976,-23.2732 -5.143894,-8.24618 -8.176037,-17.04784 -9.391458,-27.26139 -0.380602,-3.198374 -0.380602,-11.648033 0,-14.846408 1.647452,-13.844101 6.645446,-25.950393 15.099624,-36.574754 1.593738,-2.002846 5.72086,-6.311111 7.614641,-7.948836 12.752171,-11.027997 28.22148,-16.624942 44.78328,-16.203036 10.77585,0.274512 20.52659,2.773134 30.25096,7.751817 11.68744,5.983722 21.28718,14.80496 28.28193,25.988363 6.86792,10.980652 10.85469,23.450257 11.84152,37.037309 0.25758,3.546435 0.10201,11.251755 -0.29757,14.734845 -1.42581,12.42981 -5.29161,23.88634 -11.52916,34.16732 -1.1372,1.87438 -1.10762,1.85079 -1.90128,1.51705 -0.16311,-0.0686 -0.99725,-0.34634 -1.85361,-0.6172 -0.85637,-0.27089 -1.85732,-0.61952 -2.22434,-0.77473 -0.36701,-0.1552 -0.96759,-0.36476 -1.3346,-0.46566 -0.36702,-0.10095 -1.16778,-0.37628 -1.77947,-0.61192 -1.4329,-0.55204 -1.95255,-0.73914 -3.03992,-1.0945 -0.48935,-0.15993 -1.85732,-0.63629 -3.03994,-1.05857 -1.1826,-0.42229 -2.65066,-0.91761 -3.26234,-1.10073 -0.6117,-0.18312 -1.27899,-0.39058 -1.4829,-0.46103 -0.20389,-0.0705 -0.83783,-0.26717 -1.40875,-0.43717 -0.5709,-0.17 -1.83877,-0.55677 -2.81748,-0.85949 -0.9787,-0.30272 -1.95814,-0.59425 -2.17651,-0.64782 -0.39278,-0.0963 -0.38081,-0.11844 1.11503,-2.05526 12.22021,-15.82291 15.34447,-37.29227 8.02688,-55.159368 -2.41706,-5.901636 -5.62989,-10.855117 -9.98977,-15.402018 -8.52059,-8.886092 -19.54601,-13.827856 -31.60111,-14.164092 -3.41623,-0.09529 -5.47207,0.04529 -8.60077,0.588239 -11.63244,2.018565 -21.994204,9.230353 -27.955322,19.456908 -5.110295,8.766949 -7.025993,19.08212 -5.329968,28.699471 2.942375,16.6848 16.015359,28.68274 31.87654,29.25521 6.43936,0.23241 12.37369,-1.48 17.441,-5.03274 8.69336,-6.09502 13.31659,-17.00541 11.60752,-27.392804 -1.54118,-9.367069 -8.00987,-16.389392 -16.75921,-18.193613 -1.81015,-0.373265 -5.17753,-0.37333 -6.86973,-1.28e-4 -6.6902,1.47551 -11.29873,6.506462 -12.0042,13.104522 -0.38331,3.58511 0.52369,6.603475 2.64586,8.804953 1.70485,1.76855 3.42816,2.43258 5.90863,2.27671 2.08265,-0.13088 3.51378,-0.90647 4.18514,-2.26813 0.16976,-0.34432 0.26614,-2.260058 0.12123,-2.411119 -0.0346,-0.03617 -0.2599,-0.01087 -0.50047,0.05619 -0.41104,0.114568 -0.43834,0.170821 -0.45267,0.932739 -0.0345,1.83504 -1.67202,2.78733 -4.47967,2.6051 -1.6148,-0.10482 -2.828,-0.70651 -4.09248,-2.02969 -1.63528,-1.711176 -2.37456,-3.80689 -2.35162,-6.666427 0.0635,-7.917426 6.97506,-14.096297 15.23939,-13.623879 12.52155,0.715768 21.00222,13.364099 18.15601,27.078436 -1.70917,8.23559 -6.90574,15.06839 -14.29281,18.79316 -4.25465,2.14531 -8.54028,3.06696 -13.42784,2.8877 -2.7476,-0.10083 -4.47423,-0.3613 -6.96957,-1.05162 -13.181581,-3.64656 -22.572633,-15.12887 -24.33463,-29.753594 -0.267558,-2.220669 -0.231453,-6.865615 0.07147,-9.201681 0.944423,-7.282157 3.504566,-13.776278 7.773252,-19.717887 1.458861,-2.030595 5.329599,-6.041979 7.321298,-7.587305 5.72106,-4.438914 11.85539,-7.083809 19.02979,-8.204956 2.11539,-0.330571 7.33155,-0.45214 9.65869,-0.225101 10.50901,1.025251 20.1978,5.64291 27.76693,13.233656 4.09624,4.107933 7.91015,9.912329 10.24435,15.590812 6.0519,14.722727 4.85216,32.337176 -3.19476,46.905096 -7.66724,13.88056 -20.82752,23.46665 -36.26841,26.41828 -4.01152,0.76682 -9.26379,1.1085 -13.17873,0.8573 z"
       id="path665" />
    <path
       style="fill:#b3b3b3;stroke-width:0.151436"
       d="m 116.92216,176.35832 c -4.03366,-0.13387 -6.13204,-0.31976 -6.81462,-0.60367 -0.33701,-0.14017 -1.67752,-0.13775 -5.80568,0.01 -4.42736,0.15894 -5.55835,0.15674 -6.457244,-0.0125 -1.105205,-0.20817 -5.85013,-0.49114 -9.097365,-0.54254 -0.978712,-0.0155 -2.213214,-0.1107 -2.743355,-0.21146 -0.576591,-0.10957 -1.470338,-0.14468 -2.224323,-0.0872 -0.85514,0.0652 -1.451213,0.0322 -1.853622,-0.10245 -0.713616,-0.23887 -3.964378,-0.48281 -6.833766,-0.5128 -1.378133,-0.0144 -2.162142,-0.0851 -2.30501,-0.20765 -0.229965,-0.19738 -3.75754,-0.37693 -7.071992,-0.35994 -1.138931,0.005 -1.793422,-0.0469 -1.738243,-0.13998 0.160628,-0.27104 -0.468025,-0.46887 -1.797227,-0.56554 -0.720939,-0.0524 -1.639879,-0.1925 -2.042083,-0.31126 -0.402212,-0.11882 -1.070369,-0.21593 -1.484798,-0.21593 -0.639196,0 -0.77572,-0.0527 -0.899896,-0.34797 -0.123992,-0.29475 -0.293755,-0.36073 -1.110263,-0.43154 -0.62008,-0.0537 -1.251448,-0.23304 -1.770141,-0.50261 -0.443451,-0.23047 -0.906264,-0.41903 -1.028467,-0.41903 -0.122215,0 -0.363433,-0.13838 -0.536048,-0.3075 -0.172623,-0.16913 -0.669961,-0.37793 -1.105213,-0.46402 -0.598063,-0.11832 -0.948502,-0.30759 -1.434784,-0.77504 -0.443901,-0.42673 -0.777498,-0.61855 -1.075747,-0.61855 -0.252624,0 -0.468767,-0.0991 -0.520018,-0.23835 -0.04821,-0.13109 -0.789405,-0.58007 -1.647046,-0.99772 -1.145098,-0.55765 -1.559339,-0.83439 -1.559339,-1.04177 0,-0.46159 -0.431802,-0.9698 -0.824,-0.9698 -0.204645,0 -0.36231,-0.0905 -0.36231,-0.20801 0,-0.2919 -0.444335,-0.67636 -0.926805,-0.80195 -0.22429,-0.0583 -0.407802,-0.20659 -0.407802,-0.32938 0,-0.12282 -0.200186,-0.29604 -0.444866,-0.385 -0.244672,-0.089 -0.444866,-0.226 -0.444866,-0.30456 0,-0.0786 -0.152871,-0.21548 -0.339728,-0.30428 -0.186847,-0.0887 -0.403724,-0.31347 -0.481937,-0.49929 -0.0782,-0.18583 -0.288634,-0.4049 -0.467591,-0.48682 -0.178956,-0.082 -0.437826,-0.40899 -0.575251,-0.72683 -0.137435,-0.31784 -0.441443,-0.7559 -0.675579,-0.97347 -0.234127,-0.21755 -0.425689,-0.53421 -0.425689,-0.70366 0,-0.16946 -0.05007,-0.30705 -0.111211,-0.30575 -0.06121,9.2e-4 -0.544963,0.34954 -1.075101,0.77388 -1.60303,1.28313 -2.262173,1.69816 -2.696973,1.69816 -0.253985,0 -0.486326,0.11982 -0.599798,0.3093 -0.101866,0.17011 -0.302053,0.30929 -0.444865,0.30929 -0.142805,0 -0.343,0.1392 -0.444866,0.30931 -0.101866,0.17012 -0.263849,0.3093 -0.359966,0.3093 -0.237542,0 -1.086407,0.513 -1.087575,0.65726 -4.42e-4,0.0637 -0.317904,0.11045 -0.705308,0.10383 -0.387406,-0.006 -0.620958,-0.0473 -0.519011,-0.0902 0.101945,-0.0428 0.185361,-0.17878 0.185361,-0.30195 0,-0.12319 0.08977,-0.25986 0.199479,-0.30377 0.182052,-0.0728 0.794003,-1.3384 1.302736,-2.69416 0.24912,-0.66391 0.237568,-4.63834 -0.01548,-5.32792 -0.161681,-0.44058 -0.132172,-0.49207 0.849555,-1.48199 0.559374,-0.56405 1.13183,-1.2778 1.272104,-1.5861 0.140283,-0.30831 0.320009,-0.60242 0.399381,-0.65359 0.189952,-0.12243 0.186688,-0.69337 -0.0036,-0.69337 -0.08156,0 -0.148288,-0.17397 -0.148288,-0.38662 0,-0.21263 -0.03778,-0.38662 -0.08386,-0.38662 -0.239621,0 -0.657552,0.34944 -0.657552,0.54979 0,0.64506 -2.032079,3.16182 -2.55292,3.16182 -0.1725,0 -0.264574,0.11656 -0.264574,0.33507 0,0.1843 -0.0413,0.29199 -0.0918,0.23934 -0.05051,-0.0527 -0.188713,0.005 -0.307164,0.12888 -0.161054,0.16795 -0.60945,0.2246 -1.777687,0.2246 -1.363692,0 -1.550857,0.0311 -1.47229,0.24463 0.04953,0.13454 0.09001,0.38432 0.09001,0.55507 0,0.29711 0.08129,0.3084 1.890636,0.26277 l 1.890628,-0.0477 0.12007,0.92312 c 0.167395,1.2869 -4.42e-4,3.24587 -0.348289,4.06604 -0.159876,0.37694 -0.290686,0.77729 -0.290686,0.88968 0,0.11245 -0.17403,0.39932 -0.386733,0.6376 -0.212702,0.2383 -0.58836,0.72514 -0.834792,1.08189 -0.293915,0.42551 -0.734774,0.79395 -1.281515,1.07101 -0.79136,0.40102 -0.946885,0.42293 -3.078848,0.43391 -1.858075,0.01 -2.292911,-0.0312 -2.520917,-0.23644 -0.385715,-0.34718 -1.231785,-0.75723 -1.562436,-0.75723 -0.152605,0 -0.336799,-0.15658 -0.409324,-0.34796 -0.07254,-0.19139 -0.345449,-0.52195 -0.606512,-0.73459 -0.796879,-0.64909 -1.148671,-1.10185 -1.244513,-1.60161 -0.05043,-0.26272 -0.289864,-0.691 -0.532182,-0.95173 -0.277719,-0.29883 -0.486635,-0.73115 -0.565168,-1.16959 -0.07528,-0.42026 -0.281247,-0.8589 -0.520417,-1.10832 -0.281345,-0.29341 -0.395807,-0.57277 -0.395807,-0.96595 0,-0.30425 -0.08341,-0.5867 -0.185361,-0.62769 -0.101959,-0.041 -0.199116,-0.27916 -0.215932,-0.52928 -0.01681,-0.25011 -0.183636,-0.75374 -0.370722,-1.11916 -0.320628,-0.62626 -0.340876,-0.84195 -0.352756,-3.75741 -0.01743,-4.27651 -0.03122,-4.50846 -0.283981,-4.77206 -0.190836,-0.19902 -0.222433,-1.17889 -0.222433,-6.89841 0,-5.81326 0.02998,-6.71414 0.234127,-7.03909 0.17655,-0.28101 0.210367,-0.57444 0.137515,-1.19311 -0.08041,-0.68286 -0.0345,-0.96307 0.27379,-1.67101 0.203707,-0.46782 0.416949,-1.25498 0.473854,-1.74924 0.08519,-0.73982 0.17724,-0.95553 0.520922,-1.22053 0.229606,-0.17704 0.553047,-0.65057 0.718753,-1.0523 0.165715,-0.40172 0.467369,-0.84389 0.67036,-0.9826 0.20567,-0.14054 0.44782,-0.52634 0.546954,-0.87142 0.121912,-0.42433 0.261867,-0.61923 0.444689,-0.61923 0.1528,0 0.623885,-0.46674 1.102603,-1.09247 0.4597,-0.60086 1.013058,-1.16495 1.229698,-1.25352 1.109857,-0.45382 1.394165,-0.62679 1.459676,-0.88805 0.0521,-0.20789 0.254065,-0.30709 0.741735,-0.36441 0.368563,-0.0434 0.860657,-0.2257 1.093545,-0.40526 0.23288,-0.17957 0.595049,-0.32649 0.804805,-0.32649 0.209757,0 0.414004,-0.0886 0.45388,-0.19702 0.05502,-0.14955 0.70676,-0.19613 2.705243,-0.19331 2.502942,0.004 2.653663,0.0208 3.056919,0.35167 0.233287,0.19138 0.548626,0.34797 0.700745,0.34797 0.171712,0 0.276578,0.11007 0.276578,0.29036 0,0.35852 0.257648,0.59118 0.732421,0.66138 0.238638,0.0354 0.793606,0.56863 1.631175,1.56762 1.127053,1.34424 1.406744,1.58481 2.492867,2.14409 0.672864,0.34649 1.223391,0.72315 1.223391,0.83703 0,0.11382 0.242247,0.32694 0.538338,0.47347 0.296083,0.14654 0.700161,0.43519 0.897949,0.64146 0.291934,0.30446 0.45358,0.35666 0.858845,0.27737 0.288898,-0.0566 0.53931,-0.0301 0.594366,0.0628 0.170527,0.28776 1.306469,0.77685 1.80424,0.77685 0.334172,0 0.535508,0.0966 0.644664,0.30931 0.09176,0.1788 0.310492,0.3093 0.518453,0.3093 0.197851,0 0.479107,0.12881 0.625008,0.28627 0.314986,0.3399 1.109149,0.64163 1.688787,0.64163 0.228457,0 0.468732,0.0955 0.533961,0.212 0.06519,0.11657 0.552322,0.37173 1.082461,0.56697 0.530129,0.19522 1.063973,0.43116 1.18631,0.52429 0.437488,0.33306 1.161594,0.70719 1.368706,0.70719 0.115924,0 0.367502,0.17398 0.559055,0.38663 0.191553,0.21265 0.499824,0.38662 0.685052,0.38662 0.219523,0 0.404141,0.14567 0.530237,0.4184 0.163113,0.35276 0.502742,0.53161 2.165196,1.14018 1.084461,0.39698 2.052043,0.83393 2.150195,0.97098 0.09814,0.13705 0.779011,0.51739 1.513042,0.8452 0.73403,0.32783 1.660233,0.81318 2.058235,1.07857 0.397994,0.26541 1.015253,0.52816 1.371671,0.5839 0.356427,0.0557 0.648042,0.15599 0.648042,0.22276 0,0.19124 1.631105,1.02705 2.545003,1.30412 0.456012,0.13825 0.953298,0.39448 1.10509,0.5694 0.631792,0.72806 1.944072,1.10749 2.587796,0.7482 0.248512,-0.1387 0.286828,-0.10769 0.286828,0.23198 0,0.33036 0.06831,0.39206 0.434066,0.39206 0.347785,0 0.738322,0.30479 1.964821,1.53341 9.659505,9.67612 22.101299,15.64882 35.626785,17.10269 2.88657,0.31028 8.80396,0.31109 11.577,0.001 12.65481,-1.41242 23.52343,-6.64629 32.58788,-15.69294 1.56071,-1.55765 1.78644,-1.73017 2.15019,-1.64336 0.22353,0.0533 1.30726,0.37819 2.40831,0.72187 2.41623,0.75421 3.08691,0.95941 4.81939,1.47443 1.52429,0.45314 2.91111,0.89073 3.55894,1.12294 0.24468,0.0877 0.87861,0.30974 1.40875,0.49342 0.53012,0.18365 1.16407,0.4196 1.40875,0.5243 0.24466,0.1047 1.04543,0.38426 1.77946,0.62122 0.73403,0.23698 1.73497,0.59156 2.22434,0.78795 0.48935,0.19639 1.3902,0.5265 2.0019,0.73357 0.61169,0.20706 1.71274,0.58635 2.44677,0.84285 0.73403,0.25651 2.0143,0.68872 2.84505,0.96047 l 1.51046,0.4941 1.67775,1.77057 c 3.32723,3.51128 4.62932,5.26805 5.73733,7.74073 0.0828,0.18472 0.57857,0.98504 1.10174,1.77847 0.52321,0.79345 0.99808,1.6459 1.05531,1.89437 0.0573,0.24845 0.23533,0.6258 0.3958,0.83853 0.39476,0.52342 0.87617,1.68528 0.87617,2.11467 0,0.19247 0.29486,0.76766 0.65524,1.2782 0.79806,1.13059 1.12424,1.7692 1.12424,2.2011 0,0.48778 -0.6017,1.85348 -0.81661,1.85348 -0.1028,0 -0.42805,0.27836 -0.72279,0.6186 -0.43278,0.49957 -0.63672,0.6186 -1.05994,0.6186 -0.32901,0 -0.55581,0.0863 -0.60941,0.23198 -0.0621,0.16906 -0.3171,0.23197 -0.93989,0.23197 -0.47,0 -1.24963,0.13163 -1.73251,0.2925 -1.55889,0.51937 -3.19352,0.79451 -4.47297,0.7529 -0.95485,-0.0311 -1.27384,0.0125 -1.40874,0.19181 -0.13845,0.18414 -0.47654,0.22279 -1.63943,0.18746 -1.17483,-0.0357 -1.51672,0.005 -1.72594,0.20175 -0.22236,0.20986 -0.53187,0.23107 -2.09391,0.14357 -1.44882,-0.0812 -2.09718,-0.047 -3.09345,0.1634 -0.89504,0.18896 -2.46422,0.30028 -5.41255,0.38399 -2.30392,0.0653 -4.48212,0.20086 -4.89354,0.30432 -0.55064,0.13847 -2.19753,0.16005 -6.3996,0.0838 -5.21427,-0.0946 -5.68889,-0.0816 -6.04977,0.16498 -0.36537,0.24968 -0.74629,0.25567 -5.68596,0.0896 -5.09353,-0.17128 -5.38995,-0.16541 -7.81525,0.15492 -2.01338,0.26592 -3.43147,0.33935 -7.04372,0.36475 -3.0593,0.0215 -4.69076,0.0919 -5.04183,0.21764 -0.70319,0.2518 -3.76593,0.31322 -8.23005,0.16507 z M 29.682613,140.65601 c 0.212826,-0.0845 0.536303,-0.43057 0.718834,-0.76927 0.182539,-0.33871 0.450351,-0.64816 0.595145,-0.68764 0.144795,-0.0395 0.365557,-0.27811 0.490598,-0.53028 0.288466,-0.58176 0.539515,-3.10547 0.539515,-5.42352 0,-1.70031 -0.02097,-1.82467 -0.407793,-2.41935 -0.829131,-1.27465 -0.885054,-1.29479 -3.921417,-1.41249 l -1.882435,-0.073 -1.038207,0.93188 c -0.571005,0.51255 -1.16823,0.93189 -1.32716,0.93189 -0.306935,0 -0.837339,0.47598 -1.606248,1.4414 l -0.470333,0.59055 -0.01362,2.01913 -0.01362,2.01914 0.528997,0.83115 c 0.290943,0.45712 0.584053,0.83114 0.651359,0.83114 0.06731,0 0.205662,0.20969 0.307458,0.46599 0.23808,0.59943 0.722912,0.81794 3.113258,1.40302 0.649263,0.15892 3.216823,0.056 3.735754,-0.14977 z"
       id="path667" />
  </g>
</svg>
