<?xml version="1.0" encoding="UTF-8" standalone="no"?>
<!-- Created with Inkscape (http://www.inkscape.org/) -->

<svg
   width="210mm"
   height="297mm"
   viewBox="0 0 210 297"
   version="1.1"
   id="svg757"
   inkscape:version="1.2.1 (9c6d41e410, 2022-07-14)"
   sodipodi:docname="zaba.svg"
   xmlns:inkscape="http://www.inkscape.org/namespaces/inkscape"
   xmlns:sodipodi="http://sodipodi.sourceforge.net/DTD/sodipodi-0.dtd"
   xmlns="http://www.w3.org/2000/svg"
   xmlns:svg="http://www.w3.org/2000/svg">
  <sodipodi:namedview
     id="namedview759"
     pagecolor="#ffffff"
     bordercolor="#000000"
     borderopacity="0.25"
     inkscape:showpageshadow="2"
     inkscape:pageopacity="0.0"
     inkscape:pagecheckerboard="0"
     inkscape:deskcolor="#d1d1d1"
     inkscape:document-units="mm"
     showgrid="false"
     inkscape:zoom="1.4912879"
     inkscape:cx="446.59385"
     inkscape:cy="442.57049"
     inkscape:window-width="1920"
     inkscape:window-height="1017"
     inkscape:window-x="1912"
     inkscape:window-y="-8"
     inkscape:window-maximized="1"
     inkscape:current-layer="layer1" />
  <defs
     id="defs754" />
  <g
     inkscape:label="Warstwa 1"
     inkscape:groupmode="layer"
     id="layer1">
    <ellipse
       style="fill:#b3b3b3;stroke-width:0.264583;stroke:#000000;stroke-opacity:1"
       id="path813"
       cx="56.705399"
       cy="83.301735"
       rx="12.043626"
       ry="17.56362" />
    <ellipse
       style="fill:#ffffff;stroke-width:0.264583;stroke:#000000;stroke-opacity:1"
       id="path813-4"
       cx="83.050835"
       cy="83.301743"
       rx="12.043626"
       ry="17.56362" />
    <ellipse
       style="fill:#000000;stroke-width:0.264583"
       id="path837"
       cx="56.818546"
       cy="84.008064"
       rx="5.2782259"
       ry="8.5161285" />
    <ellipse
       style="fill:#000000;stroke-width:0.264583"
       id="path837-9"
       cx="83.83065"
       cy="83.653229"
       rx="5.2782259"
       ry="8.5161285" />
    <ellipse
       style="fill:#e6e6e6;stroke-width:0.264583"
       id="path965"
       cx="58.104839"
       cy="80.858871"
       rx="0.7096774"
       ry="1.0201613" />
    <ellipse
       style="fill:#e6e6e6;stroke-width:0.264583"
       id="path967"
       cx="86.004028"
       cy="80.548386"
       rx="0.6653226"
       ry="1.0645161" />
    <path
       style="fill:none;stroke:#000000;stroke-width:0.264583px;stroke-linecap:butt;stroke-linejoin:miter;stroke-opacity:1"
       d="m 49.67742,62.629031 c 0.05914,-0.14785 0.118279,-0.295699 0.177419,-0.443548 0.05914,-0.02957 0.140742,-0.03369 0.177419,-0.08871 0.03281,-0.04921 -0.01871,-0.121315 0,-0.177419 0.02936,-0.08809 0.134863,-0.26973 0.177419,-0.354838 0.184594,-0.369189 -0.0061,0.09483 0.177419,-0.08871 0.01561,-0.01561 0.220546,-0.375171 0.266128,-0.443547 0.06222,-0.09333 0.197663,-0.463788 0.266132,-0.532257 0.04675,-0.04675 0.140739,-0.0337 0.177419,-0.08871 0.0328,-0.04921 -0.02646,-0.124523 0,-0.177419 0.09592,-0.191849 0.204001,-0.165573 0.354838,-0.266131 0.142692,0.0419 0.06532,-0.154032 0.08871,-0.177419 0.0209,-0.0209 0.0678,0.0209 0.08871,0 0.183544,-0.183544 -0.28048,0.0072 0.08871,-0.177419 0.684403,-0.342201 1.166064,-0.570309 1.862905,-0.709676 0.183383,-0.03668 0.34712,-0.150971 0.532257,-0.177421 0.117091,-0.01672 0.238167,0.01945 0.354838,0 0.321281,-0.05355 0.06334,-0.07602 0.266128,-0.177419 0.09272,-0.04636 1.36348,-0.0093 1.419355,0 0.06522,0.01087 0.112199,0.07784 0.177422,0.08871 0.116668,0.01945 0.238167,-0.01945 0.354838,0 0.130442,0.02175 0.225165,0.151485 0.354838,0.177419 0.06545,0.0131 0.567869,0.03561 0.620969,0.08871 0.159348,0.159348 -0.382762,0.06538 0.177419,0.177419 0.112249,0.02244 0.352901,-0.0019 0.443547,0.08871 0.0209,0.0209 -0.0209,0.0678 0,0.08871 0.07675,0.07675 0.434626,0.168495 0.532257,0.266129 0.04675,0.04675 0.03369,0.140742 0.08871,0.177419 0.04921,0.03281 0.124521,-0.02646 0.177419,0 0.07481,0.0374 0.107829,0.131027 0.177419,0.177419 0.02461,0.0164 0.0678,-0.0209 0.08871,0 0.04675,0.04675 0.04195,0.130667 0.08871,0.177419 0.0209,0.0209 0.0678,-0.0209 0.08871,0 0.06871,0.06871 0.30498,0.368763 0.354838,0.44355 -0.05844,0.126153 0.165727,0.07702 0.177419,0.08871 0.0209,0.0209 -0.0209,0.0678 0,0.08871 0.0545,0.0545 0.206724,0.05861 0.266131,0.177419 0.01323,0.02646 -0.0209,0.0678 0,0.08871 0.0209,0.0209 0.0678,-0.0209 0.08871,0 0.06612,0.06612 0.0226,0.20001 0.08871,0.266129 0.05808,0.05808 0.205002,0.05517 0.266128,0.177419 0.02646,0.0529 -0.02646,0.124523 0,0.177422 0.0374,0.0748 0.150972,0.09807 0.177419,0.177419 0.01871,0.0561 -0.02646,0.124523 0,0.177419 0.01323,0.02646 0.05914,0 0.08871,0"
       id="path1085" />
    <path
       style="fill:none;stroke:#000000;stroke-width:0.264583px;stroke-linecap:butt;stroke-linejoin:miter;stroke-opacity:1"
       d="m 77.036661,62.859449 c 0.05914,-0.14785 0.118279,-0.295699 0.177419,-0.443548 0.05914,-0.02957 0.140742,-0.03369 0.177419,-0.08871 0.03281,-0.04921 -0.01871,-0.121315 0,-0.177419 0.02936,-0.08809 0.134863,-0.26973 0.177419,-0.354838 0.184594,-0.369189 -0.0061,0.09483 0.177419,-0.08871 0.01561,-0.01561 0.220546,-0.375171 0.266128,-0.443547 0.06222,-0.09333 0.197663,-0.463788 0.266132,-0.532257 0.04675,-0.04675 0.140739,-0.0337 0.177419,-0.08871 0.0328,-0.04921 -0.02646,-0.124523 0,-0.177419 0.09592,-0.191849 0.204001,-0.165573 0.354838,-0.266131 0.142692,0.0419 0.06532,-0.154032 0.08871,-0.177419 0.0209,-0.0209 0.0678,0.0209 0.08871,0 0.183544,-0.183544 -0.28048,0.0072 0.08871,-0.177419 0.684403,-0.342201 1.166064,-0.570309 1.862905,-0.709676 0.183383,-0.03668 0.34712,-0.150971 0.532257,-0.177421 0.117091,-0.01672 0.238167,0.01945 0.354838,0 0.321281,-0.05355 0.06334,-0.07602 0.266128,-0.177419 0.09272,-0.04636 1.36348,-0.0093 1.419355,0 0.06522,0.01087 0.112199,0.07784 0.177422,0.08871 0.116668,0.01945 0.238167,-0.01945 0.354838,0 0.130442,0.02175 0.225165,0.151485 0.354838,0.177419 0.06545,0.0131 0.567869,0.03561 0.620969,0.08871 0.159348,0.159348 -0.382762,0.06538 0.177419,0.177419 0.112249,0.02244 0.352901,-0.0019 0.443547,0.08871 0.0209,0.0209 -0.0209,0.0678 0,0.08871 0.07675,0.07675 0.434626,0.168495 0.532257,0.266129 0.04675,0.04675 0.03369,0.140742 0.08871,0.177419 0.04921,0.03281 0.124521,-0.02646 0.177419,0 0.07481,0.0374 0.107829,0.131027 0.177419,0.177419 0.02461,0.0164 0.0678,-0.0209 0.08871,0 0.04675,0.04675 0.04195,0.130667 0.08871,0.177419 0.0209,0.0209 0.0678,-0.0209 0.08871,0 0.06871,0.06871 0.30498,0.368763 0.354838,0.44355 -0.05844,0.126153 0.165727,0.07702 0.177419,0.08871 0.0209,0.0209 -0.0209,0.0678 0,0.08871 0.0545,0.0545 0.206724,0.05861 0.266131,0.177419 0.01323,0.02646 -0.0209,0.0678 0,0.08871 0.0209,0.0209 0.0678,-0.0209 0.08871,0 0.06612,0.06612 0.0226,0.20001 0.08871,0.266129 0.05808,0.05808 0.205002,0.05517 0.266128,0.177419 0.02646,0.0529 -0.02646,0.124523 0,0.177422 0.0374,0.0748 0.150972,0.09807 0.177419,0.177419 0.01871,0.0561 -0.02646,0.124523 0,0.177419 0.01323,0.02646 0.05914,0 0.08871,0"
       id="path1085-8" />
    <path
       style="fill:none;stroke:#000000;stroke-width:0.264583px;stroke-linecap:butt;stroke-linejoin:miter;stroke-opacity:1"
       d="m 67.508064,75.580644 c 0.300339,0.06678 1.920695,-0.119626 2.040323,0 0.0209,0.0209 -0.0209,0.0678 0,0.08871 0.02951,0.02952 0.336937,-0.006 0.354838,0 0.03967,0.01323 0.04904,0.07549 0.08871,0.08871 0.227616,0.07587 0.292449,-0.0312 0.532257,0.08871 0.152609,0.07631 0.678397,-0.119991 0.798388,0 0.0209,0.0209 -0.0209,0.0678 0,0.08871 0.07182,0.07182 0.59685,0 0.709676,0"
       id="path1160" />
    <path
       style="fill:none;stroke:#000000;stroke-width:0.264583px;stroke-linecap:butt;stroke-linejoin:miter;stroke-opacity:1"
       d="m 94.341729,76.778108 c 0.725601,-0.110352 1.646751,-0.27283 2.383634,-0.125452 0.05799,0.01159 0.06808,0.111109 0.125455,0.125452 0.121708,0.03043 0.253346,-0.02461 0.376364,0 0.09169,0.01834 0.160192,0.102778 0.250907,0.125455 0.08114,0.02029 0.171567,-0.02646 0.25091,0 0.124931,0.04165 0.251431,0.209267 0.376365,0.25091 0.119014,0.03967 0.264152,-0.05611 0.376361,0 0.293656,0.146828 0.450477,0.150159 0.752727,0.250909 0.129947,0.04331 0.251904,0.188678 0.376364,0.250908 0.07481,0.0374 0.176102,-0.0374 0.250907,0 0.282987,0.141496 0.591887,0.358671 0.878177,0.501819 0.0374,0.01871 0.0836,0 0.12546,0 0.0836,0.04182 0.1761,0.06935 0.25091,0.125455 0.0946,0.07097 0.15249,0.185298 0.25091,0.250907 0.0696,0.04639 0.1761,-0.0374 0.25091,0 0.32831,0.164158 0.65558,0.48805 1.00363,0.627274 0.0777,0.03106 0.18132,-0.04639 0.25091,0 0.0778,0.05187 0.0593,0.184787 0.12546,0.250907 0.0526,0.05257 0.30032,0.08744 0.37636,0.125455 0.10477,0.05239 0.23537,0.368593 0.25091,0.376364 0.0748,0.0374 0.1761,-0.0374 0.2509,0 0.0245,0.01222 0.0982,0.223687 0.12546,0.250907 0.0296,0.02957 0.0836,0 0.12545,0 0.0836,0.04182 0.19905,0.04765 0.25091,0.125455 0.17952,0.269282 -0.18608,0.220596 0.12546,0.376365 0.30899,0.154492 -0.11325,-0.364162 0.37636,0.125454 0.0661,0.06612 0.0736,0.173104 0.12546,0.250907 0.10988,0.164833 0.47433,0.387115 0.62727,0.50182 0.25757,0.193177 0.64901,0.272653 0.87818,0.501816 0.0661,0.06612 0.0593,0.184788 0.12545,0.25091 0.25957,0.25957 -0.0101,-0.396658 0.25091,0.125455 0.0187,0.0374 -0.0296,0.09588 0,0.125452 0.0296,0.02957 0.10675,-0.0374 0.12546,0 0.0374,0.07481 -0.0374,0.176104 0,0.25091 -0.30958,0.379812 0.34124,0.215789 0.37636,0.250909 0.0627,0.06273 0.0627,0.188183 0.12545,0.25091 0.0296,0.02957 0.0959,-0.02957 0.12546,0 0.25957,0.25957 -0.39666,-0.01013 0.12545,0.250907 0.0374,0.01871 0.0959,-0.02957 0.12546,0 0.0296,0.02957 -0.0296,0.09588 0,0.125455 0.0627,0.06273 0.18818,0.06273 0.25091,0.125455 0.0546,0.05462 0.0694,0.417687 0.12545,0.501816 0.12342,0.185121 0.42849,0.407287 0.50182,0.627275 0.0397,0.119014 -0.0561,0.264152 0,0.376361 0.26105,0.522111 -0.009,-0.134114 0.25091,0.125455 0.0627,0.06273 -0.0627,0.313637 0,0.376362 0.0272,0.02722 0.23868,0.100997 0.25091,0.125455 0.0561,0.11221 -0.0887,0.287655 0,0.376364 0.0296,0.02957 0.0959,-0.02957 0.12545,0 0.0526,0.05257 0.0874,0.300332 0.12546,0.376362 0.28707,0.574157 -0.052,-0.532355 0.2509,0.376365 0.0265,0.07934 -0.0591,0.19177 0,0.250909 0.25957,0.25957 -0.0102,-0.396658 0.25091,0.125453 0.0374,0.07481 -0.0591,0.19177 0,0.250909 0.16728,0.167273 0.12038,-0.266128 0.25091,0.125455 0.10888,0.326634 -0.006,0.241856 0.25091,0.627272 0.0232,0.0348 0.10675,-0.0374 0.12545,0 0.0771,0.154217 0.0367,0.35397 0.12546,0.501819 0.0481,0.08018 0.19904,0.04765 0.25091,0.125455 0.25091,0.376362 -0.12546,0.125452 0,0.376362 0.0873,0.174611 0.42969,0.931505 0.50182,1.003636 0.0296,0.02957 0.0959,-0.02957 0.12545,0 0.15783,0.157824 0.17239,1.14445 0.25091,1.379998 0.0132,0.03967 0.0959,-0.02957 0.12545,0 0.0591,0.05914 -0.0374,0.176101 0,0.250909 0.0265,0.0529 0.10676,0.06935 0.12546,0.125455 0.0639,0.19163 -0.037,0.567801 0,0.752726 0.0183,0.09169 0.0959,0.162198 0.12545,0.250907 0.0627,0.188183 -0.0627,0.439092 0,0.627275 0.20938,0.628128 0.21112,1.220819 0.37637,1.881814"
       id="path1162" />
    <path
       style="fill:none;stroke:#000000;stroke-width:0.264583px;stroke-linecap:butt;stroke-linejoin:miter;stroke-opacity:1"
       d="m 44.912684,77.029018 c -0.744648,-0.04373 -1.584502,0.06817 -2.132724,0.25091 -0.151289,0.05043 -0.349406,0.345879 -0.501817,0.376362 -0.164025,0.0328 -0.336227,-0.02365 -0.501819,0 -1.655913,0.236561 0.583967,0.0087 -0.627271,0.250909 -0.205031,0.041 -0.428911,-0.06612 -0.627272,0 -0.0561,0.01871 -0.06935,0.106754 -0.125455,0.125455 -0.112908,0.03764 -0.263453,-0.03764 -0.376364,0 -0.08871,0.02957 -0.167273,0.08364 -0.250907,0.125455 -0.125455,0 -0.254656,-0.03043 -0.376365,0 -0.146275,0.03657 -0.233323,0.203229 -0.376364,0.250907 -0.07934,0.02646 -0.171564,-0.02646 -0.250907,0 -0.189085,0.06303 -0.982046,0.480229 -1.129091,0.627274 -0.127595,0.127595 -0.08962,0.412216 -0.376362,0.627272 -0.07481,0.0561 -0.167275,0.08364 -0.25091,0.125454 -0.125455,0.08364 -0.258625,0.156718 -0.376364,0.25091 -0.275214,0.22017 -0.46573,0.483772 -0.752727,0.627272 -0.202924,0.101462 -0.187674,0.376025 -0.376361,0.501816 -0.0778,0.05187 -0.199041,0.04765 -0.25091,0.125455 -0.04639,0.06959 0.02646,0.171564 0,0.25091 -0.06634,0.199006 -0.383982,0.258527 -0.501817,0.376362 -0.02957,0.02957 0,0.08364 0,0.125454 -0.08364,0.08364 -0.156286,0.179941 -0.250909,0.25091 -0.07481,0.0561 -0.194805,0.05065 -0.25091,0.125455 -0.07934,0.105791 -0.03195,0.282853 -0.125455,0.376362 -0.05914,0.05914 -0.181319,-0.04639 -0.250907,0 -0.0778,0.05187 -0.07359,0.173106 -0.125455,0.250909 -0.157398,0.236099 -0.501433,0.375595 -0.627271,0.627272 -0.416081,1.248241 0.177419,-0.236559 -0.376365,0.501817 -0.07934,0.105793 -0.0521,0.266334 -0.125455,0.376364 -0.0232,0.03479 -0.09589,-0.02957 -0.125454,0 -0.09081,0.09081 -0.232458,0.822828 -0.250907,0.878181 -0.144169,0.432501 -0.51692,0.813126 -0.627275,1.254543 -0.09036,0.361458 0.07766,0.346504 -0.125452,0.752727 -0.191291,0.382582 -0.09946,-0.229447 -0.250909,0.376364 -0.02029,0.08114 0.02646,0.171564 0,0.25091 -0.01871,0.05611 -0.111112,0.06808 -0.125455,0.125455 -0.03043,0.121708 0.02461,0.253343 0,0.376361 -0.0431,0.215496 -0.193265,0.328888 -0.25091,0.50182 -0.05018,0.150545 0.05018,0.351271 0,0.501816 -0.122518,0.36756 -0.157088,0.753817 -0.250907,1.129091 -0.108236,0.432941 0.108236,0.947058 0,1.379998 -0.01434,0.05737 -0.106754,0.06935 -0.125455,0.125455 -0.129159,0.387477 0.181608,1.016783 0,1.379998 -0.172468,0.344935 -0.207711,0.791784 -0.376364,1.129091 -0.117089,0.23418 0.117091,0.643998 0,0.878181 -0.167273,0.334544 -0.125455,-0.376365 -0.125455,0.125452 -1.134173,0.429364 -3.209847,-0.402344 -4.265449,0.125457 -0.284206,0.142103 -1.549122,1.178311 -1.630908,1.505453 -0.03043,0.121709 0.03043,0.254655 0,0.376363 -0.05623,0.224914 -0.442212,0.38885 -0.501817,0.627272 -0.03043,0.121709 0.03967,0.257347 0,0.376364 -0.01322,0.03967 -0.102258,-0.0348 -0.125455,0 -0.225201,0.337802 -0.193353,0.51216 -0.376363,0.878181 -0.09531,0.190617 -0.309864,0.302319 -0.376363,0.501813 -0.0529,0.15869 0.04057,0.33954 0,0.50182 -0.03657,0.14628 -0.221339,0.22852 -0.250909,0.37637 -0.08494,0.4247 -0.266861,2.46123 -0.125455,2.88545 0.0187,0.0561 0.08364,0.0836 0.125455,0.12545 0,0.12546 -0.03043,0.25466 0,0.37636 0.01434,0.0574 0.106753,0.0694 0.125454,0.12546 0.110235,0.3307 -0.0029,1.87607 0.125455,2.13272 0.01504,0.0301 0.576831,0.70229 0.627272,0.75273 0.06612,0.0661 0.184788,0.0593 0.250909,0.12546 0.06827,0.0683 0.281932,0.53284 0.376363,0.62727 0.02957,0.0296 0.09588,-0.0296 0.125454,0 0.25957,0.25957 -0.396656,-0.0102 0.125455,0.25091 0.10543,0.0527 0.428907,0.0525 0.501818,0.12545 0.02957,0.0296 -0.03479,0.10226 0,0.12546 0.11003,0.0734 0.266332,0.0521 0.376363,0.12545 0.03479,0.0232 0,0.0836 0,0.12545 0.08364,0.0418 0.162199,0.0959 0.250909,0.12546 0.07934,0.0264 0.191769,-0.0591 0.250909,0 0.02957,0.0296 -0.02957,0.0959 0,0.12545 0.06374,0.0637 0.555308,-0.018 0.627272,0 0.245689,0.0614 0.421126,0.27329 0.627272,0.37637 0.07481,0.0374 0.191769,-0.0591 0.250909,0 0.02957,0.0296 -0.02957,0.0959 0,0.12545 0.09776,0.0978 1.220517,0.0914 1.254544,0.12546 0.02957,0.0296 -0.02957,0.0959 0,0.12545 0.166016,0.16602 0.625238,0.12545 0.878181,0.12545"
       id="path1166" />
    <path
       style="fill:none;stroke:#000000;stroke-width:0.264583px;stroke-linecap:butt;stroke-linejoin:miter;stroke-opacity:1"
       d="m 112.53262,95.47082 c 0.19806,0.05269 1.66728,-0.08908 1.75636,0 0.0296,0.02957 -0.0296,0.09588 0,0.125455 0.0627,0.06273 0.31364,-0.06273 0.37637,0 0.16727,0.167272 -0.26613,0.12038 0.12545,0.250907 0.11902,0.03967 0.26416,-0.05611 0.37637,0 0.26408,0.132043 0.77373,0.348549 1.00363,0.501819 0.251,0.167333 1.01972,0.659432 1.12909,0.878181 0.0187,0.0374 -0.0296,0.09588 0,0.125453 0.0727,0.07271 0.4291,0.178196 0.50182,0.250909 0.0494,0.04939 0.20612,0.427175 0.25091,0.50182 0.24343,0.405717 0.54542,0.83993 0.75272,1.254543 0.11659,0.233177 0.11522,0.993393 0.25091,1.129093 0.0296,0.0296 0.10675,-0.0374 0.12546,0 0.0374,0.0748 -0.0164,0.16889 0,0.2509 0.0719,0.35961 0.12588,0.37722 0.25091,0.62728 0.0674,0.13488 0.0806,0.69871 0.12545,0.87818 0.0227,0.0907 0.0836,0.16727 0.12545,0.25091 0.0418,0.12545 0.0995,0.24669 0.12546,0.37636 0.0517,0.25834 0.11831,2.39793 0,2.63454 -0.16585,0.3317 -0.12788,0.75999 -0.25091,1.12909 -0.0861,0.25827 -0.30245,0.58255 -0.37636,0.87818 -0.0697,0.2789 -0.0369,0.48696 -0.12546,0.75273 -0.11552,0.34657 -0.46815,0.81085 -0.62727,1.12909 -0.11548,0.23096 -0.26088,0.02 -0.37636,0.25091 -0.1545,0.30899 0.36416,-0.11325 -0.12546,0.37636 -0.0935,0.0935 -0.28285,0.032 -0.37636,0.12546 -0.0627,0.0627 -0.0627,0.18818 -0.12546,0.25091 -0.0296,0.0296 -0.0959,-0.0296 -0.12545,0 -0.0296,0.0296 0,0.0836 0,0.12545 -0.0836,0.0836 -0.1525,0.1853 -0.25091,0.25091 -0.14279,0.0952 -0.33694,0.0705 -0.50182,0.12545 -0.15089,0.0503 -0.54636,0.43303 -0.75272,0.50182 -0.11902,0.0397 -0.26416,-0.0561 -0.37637,0 -0.0529,0.0265 -0.0726,0.099 -0.12545,0.12546 -0.0748,0.0374 -0.19177,-0.0591 -0.25091,0 -0.0296,0.0296 0.0296,0.0959 0,0.12545 -5.3e-4,5.3e-4 -1.12089,0.12546 -1.25455,0.12546 -0.16727,0.29273 -0.33454,0.58545 -0.50181,0.87818 0,0.0836 0.0265,0.17156 0,0.25091 -0.13053,0.39158 -0.0836,-0.0418 -0.25091,0.12545 -0.0887,0.0887 0.0561,0.26415 0,0.37636 -0.0187,0.0374 -0.0959,-0.0296 -0.12545,0 -0.13224,0.13224 -0.11867,0.36958 -0.25091,0.50182 -0.0296,0.0296 -0.0959,-0.0296 -0.12546,0 -0.0296,0.0296 0.0187,0.088 0,0.12546 -0.13978,0.27955 -0.76424,1.00939 -1.00363,1.12909 -0.18519,0.0926 -0.0528,0.34003 -0.12546,0.37636 -0.0748,0.0374 -0.1761,-0.0374 -0.25091,0 -0.0374,0.0187 0.0232,0.0907 0,0.12545 0.10735,0.58204 -0.26974,0.1443 -0.37636,0.25091 -0.0296,0.0296 0.0187,0.0881 0,0.12546 -0.0961,0.19214 -0.22356,0.0981 -0.37636,0.25091 -0.0435,0.0435 -0.20767,0.48019 -0.25091,0.50181 -0.0748,0.0374 -0.19177,-0.0591 -0.25091,0 -0.0591,0.0591 0.0374,0.17611 0,0.25091 -0.003,0.005 -0.32572,0.17494 -0.37636,0.25091 -0.31434,0.4715 -0.72382,0.84927 -1.12909,1.25455 -0.23144,0.23144 -0.35415,0.57064 -0.62728,0.75272 -0.18282,0.12188 -0.2613,0.0783 -0.37636,0.25091 -0.0519,0.0778 -0.0477,0.19904 -0.12545,0.25091 -0.0696,0.0464 -0.18132,-0.0464 -0.25091,0 -0.0177,0.0118 -0.72188,0.85504 -0.75273,0.87818 -0.1518,0.0506 -0.4796,0.14015 -0.62727,0.25091 -0.90239,0.67679 0.26476,-0.1393 -0.37636,0.50182 -0.13224,0.13224 -0.34621,0.14717 -0.50182,0.25091 -0.0984,0.0656 -0.14512,0.19801 -0.25091,0.25091 -0.0374,0.0187 -0.0959,-0.0296 -0.12546,0 -0.0661,0.0661 -0.0593,0.18478 -0.12545,0.2509 -0.0642,0.0642 -1.28781,0.64391 -1.50545,0.75273 -0.1058,0.0529 -0.1387,0.21351 -0.25091,0.25091 -0.26765,0.0892 -0.64193,0.0147 -0.87818,0.25091 -0.0661,0.0661 -0.0593,0.18479 -0.12546,0.25091 -0.0591,0.0591 -0.1761,-0.0374 -0.25091,0 -0.4891,0.24455 -1.117,0.37032 -1.630903,0.62727 -0.318723,0.15936 0.12848,0.14994 -0.376364,0.25091 -0.123018,0.0246 -0.254654,-0.0304 -0.376363,0 -0.05737,0.0143 -0.08364,0.0836 -0.125454,0.12545 -0.08364,0.0418 -0.160193,0.10278 -0.250909,0.12546 -0.231125,0.0578 -0.40271,0.0506 -0.627272,0.12545 -0.05611,0.0187 -0.06935,0.10675 -0.125455,0.12546 -0.119016,0.0397 -0.264153,-0.0561 -0.376363,0 -0.202666,0.10133 -0.381622,0.32723 -0.627272,0.37636 -0.164024,0.0328 -0.352205,-0.0748 -0.501818,0 -0.350949,0.17547 -0.682299,0.42735 -1.12909,0.50182 -0.123747,0.0206 -0.254654,-0.0304 -0.376363,0 -0.146276,0.0366 -0.23637,0.19491 -0.376363,0.25091 -1.262859,0.50514 0.266364,-0.098 -0.627273,0.12545 -0.421998,0.1055 -0.840444,0.36378 -1.254544,0.50182 -0.07934,0.0264 -0.176102,-0.0374 -0.250909,0 -0.0529,0.0264 -0.06808,0.11111 -0.125454,0.12545 -0.121709,0.0304 -0.253345,-0.0246 -0.376363,0 -0.459854,0.092 -0.907718,0.40736 -1.379999,0.50182 -1.096698,0.21934 -2.177464,0.60709 -3.261815,0.87818 -0.616787,0.1542 -1.246276,0.24926 -1.881817,0.37636 -0.384433,0.0769 -0.742573,0.31195 -1.12909,0.37637 -0.123747,0.0206 -0.254654,-0.0304 -0.376363,0 -0.05737,0.0143 -0.06808,0.11111 -0.125454,0.12545 -0.162279,0.0406 -0.343129,-0.0529 -0.501818,0 -0.08871,0.0296 -0.167273,0.0836 -0.250909,0.12546 -0.125454,0 -0.254654,-0.0304 -0.376363,0 -0.05737,0.0143 -0.06746,0.11385 -0.125455,0.12545 -0.522726,0.10455 -1.10818,-0.10454 -1.630907,0 -0.09169,0.0183 -0.159217,0.10712 -0.250909,0.12546 -0.760972,0.15219 -1.730941,0 -2.509089,0 -1.740062,0 -3.447117,0.0318 -5.143631,-0.25091 -0.692156,-0.11536 -1.437716,0.0993 -2.132725,0 -0.130912,-0.0187 -0.245922,-0.10372 -0.376364,-0.12546 -0.628991,-0.10483 -1.178678,0.0152 -1.881816,-0.12545 -0.348485,-0.0697 -0.209091,0.10454 -0.627272,0 -0.05737,-0.0144 -0.08364,-0.0836 -0.125455,-0.12546 -0.125454,-0.0418 -0.245452,-0.10675 -0.376363,-0.12545 -0.494084,-0.0706 -1.011369,-0.0549 -1.505453,-0.12546 -0.594316,-0.0849 -1.157522,-0.41626 -1.756362,-0.50181 -0.124194,-0.0178 -0.250909,0 -0.376363,0 -0.250909,-0.0418 -0.503297,-0.0756 -0.752727,-0.12546 -0.675254,-0.13505 -1.334973,-0.35242 -2.007271,-0.50182 -1.022613,-0.22724 -2.153666,-0.38421 -3.136361,-0.75272 -0.175109,-0.0657 -0.321997,-0.19953 -0.501817,-0.25091 -0.298794,-0.0854 -0.6924,-0.0632 -1.003636,-0.12546 -0.962276,-0.19245 -1.859622,-0.64348 -2.759997,-1.00363 -1.45417,-0.58167 -0.145494,-0.007 -1.254545,-0.37636 -0.403378,-0.13446 -0.663292,-0.42307 -1.003635,-0.62728 -0.113395,-0.068 -0.262968,-0.0574 -0.376363,-0.12545 -0.101424,-0.0609 -0.145117,-0.19801 -0.250909,-0.25091 -0.154218,-0.0771 -0.343338,-0.0575 -0.501818,-0.12545 -0.701019,-0.30044 -1.328859,-0.91534 -2.007271,-1.25455 -0.236559,-0.11828 -0.511951,-0.14146 -0.752726,-0.25091 -0.931059,-0.42321 -1.810389,-0.98433 -2.759998,-1.38 -0.244136,-0.10172 -0.511951,-0.14146 -0.752726,-0.2509 -0.532739,-0.24216 -1.183784,-0.62039 -1.630908,-1.00364 -0.134707,-0.11546 -0.22232,-0.28834 -0.376363,-0.37636 -0.149703,-0.0855 -0.352115,-0.0399 -0.501818,-0.12546 -0.154043,-0.088 -0.217674,-0.29702 -0.376363,-0.37636 -0.19072,-0.0954 -0.436552,-0.0301 -0.627272,-0.12546 -0.158689,-0.0793 -0.22232,-0.28833 -0.376364,-0.37636 -0.149703,-0.0855 -0.334545,-0.0836 -0.501817,-0.12545 -0.167273,-0.0836 -0.343228,-0.15179 -0.501818,-0.25091 -0.683409,-0.42713 -1.348294,-0.94068 -2.007271,-1.38 -0.417143,-0.2781 -0.94669,-0.63058 -1.379999,-0.87818 -0.114817,-0.0656 -0.262968,-0.0574 -0.376363,-0.12546 -0.101424,-0.0609 -0.152494,-0.1853 -0.250909,-0.25091 -0.902107,-0.6014 -1.8346,-1.17798 -2.759997,-1.75636 -0.566559,-0.3541 -2.141267,-1.8319 -2.509089,-2.38363 -0.05187,-0.0778 -0.20909,-0.0418 -0.250909,-0.12546 -0.0374,-0.0748 0,-0.16727 0,-0.2509 0,-0.21475 -0.332779,-0.87819 -0.501817,-0.87819"
       id="path1168" />
    <path
       style="fill:none;stroke:#000000;stroke-width:0.264583px;stroke-linecap:butt;stroke-linejoin:miter;stroke-opacity:1"
       d="m 66.354837,104.23387 c 0,0.41398 0,0.82796 0,1.24194"
       id="path1170" />
    <path
       style="fill:none;stroke:#000000;stroke-width:0.264583px;stroke-linecap:butt;stroke-linejoin:miter;stroke-opacity:1"
       d="m 69.903225,104.05645 c 0,0.14785 0.0209,0.29719 0,0.44355 -0.0093,0.0654 -0.0678,0.11469 -0.08871,0.17742 -0.09586,0.28758 0,0.75563 0,1.06451"
       id="path1172" />
    <path
       style="fill:none;stroke:#000000;stroke-width:0.264583px;stroke-linecap:butt;stroke-linejoin:miter;stroke-opacity:1"
       d="m 37.524192,105.65322 c 0.241554,-0.0588 0.887288,0.65061 1.064517,0.70968 0.340762,0.11359 0.01582,-0.15344 0.354838,0.0887 0.483005,0.345 0.310671,0.29285 0.709678,0.53226 0.192027,0.11522 0.436039,0.15517 0.620967,0.26613 0.179295,0.10758 0.273404,0.32201 0.44355,0.44355 0.301495,0.21535 0.644411,0.36656 0.975807,0.53226 0.0529,0.0265 0.124521,-0.0265 0.177419,0 0.161359,0.0807 0.292947,0.26447 0.443548,0.35483 0.08018,0.0481 0.182493,0.0469 0.266128,0.0887 0.283872,0.14194 0.514517,0.39033 0.798388,0.53226 0.142428,0.0712 0.308515,0.093 0.443548,0.17742 0.106386,0.0665 0.161745,0.19654 0.266128,0.26613 0.0778,0.0519 0.182494,0.0469 0.266131,0.0887 0.251529,0.12576 0.480455,0.37944 0.709676,0.53226 0.0778,0.0519 0.20001,0.0226 0.266129,0.0887 0.217125,0.21712 -0.635027,-0.0588 0.177419,0.26613 0.08237,0.0329 0.183766,-0.0329 0.266131,0 0.175797,0.0703 0.279154,0.2609 0.443548,0.35484 0.343921,0.19652 0.720595,0.33573 1.064516,0.53225 0.185137,0.1058 0.341538,0.25948 0.532257,0.35484 0.467392,0.2337 0.930132,0.43751 1.419355,0.62097 0.295095,0.11066 0.430569,0.35051 0.709678,0.44355 0.349586,0.11653 0.72711,0.21023 1.064517,0.35484 0.681376,0.29202 -0.207806,0.0786 0.620967,0.35484 0.143039,0.0477 0.308689,0.0213 0.443547,0.0887 0.05914,0.0296 0.03581,0.13774 0.08871,0.17741 0.222771,0.16708 0.293594,0.041 0.532259,0.0887 0.122219,0.0245 0.365173,0.23254 0.443548,0.26613 0.384942,0.16498 0.847087,0.29548 1.241935,0.44355 0.538115,0.20179 1.140812,0.26199 1.685483,0.44355 0.877094,0.29236 -0.225313,0.0756 0.798389,0.35484 0.606279,0.16535 1.264793,0.24418 1.862902,0.44355 0.125455,0.0418 0.231018,0.13098 0.35484,0.17742 0.273027,0.10238 0.517361,0.0931 0.798386,0.17742 0.152524,0.0457 0.289922,0.13552 0.44355,0.17741 0.772917,0.2108 1.61303,0.22449 2.395159,0.35484 0.378767,0.0631 0.767866,0.2311 1.153226,0.26613 0.20614,0.0187 0.416386,-0.0315 0.620969,0 0.184841,0.0284 0.35183,0.12822 0.532257,0.17742 0.519674,0.14173 1.071105,0.0898 1.596774,0.17742 0.09224,0.0154 0.177422,0.0591 0.266131,0.0887 0.118279,0.0296 0.234143,0.0715 0.354838,0.0887 0.204909,0.0293 0.415576,-0.0257 0.620967,0 0.120978,0.0151 0.233666,0.0752 0.35484,0.0887 0.467204,0.0519 0.951153,-0.0426 1.419355,0 0.150156,0.0136 0.29329,0.0762 0.443547,0.0887 1.164442,0.097 2.379504,0 3.548388,0 2.150049,0 4.339238,0.10552 6.475807,-0.0887 0.859012,-0.0781 0.217792,-0.0659 0.887095,-0.17742 0.145838,-0.0243 0.297185,0.0209 0.44355,0 0.768628,-0.1098 1.495293,-0.44036 2.21774,-0.62097 0.143436,-0.0358 0.297712,0.0243 0.44355,0 0.18447,-0.0307 0.347784,-0.14667 0.532257,-0.17742 0.292915,-0.0488 0.593765,-0.12853 0.887098,-0.17742 0.0875,-0.0146 0.18197,0.0281 0.266128,0 0.101145,-0.0337 0.163616,-0.14813 0.266129,-0.17741 0.113728,-0.0325 0.237749,0.0167 0.354838,0 0.241345,-0.0345 0.483592,-0.10206 0.709679,-0.17742 0.08416,-0.0281 0.180067,0.0215 0.266128,0 0.234122,-0.0585 0.47204,-0.19824 0.709679,-0.26613 0.454768,-0.12994 0.912876,-0.2504 1.330645,-0.35484 0.294063,-0.0735 0.528987,-0.32809 0.798385,-0.44355 0.23222,-0.0995 0.469998,-0.18624 0.709679,-0.26613 0.05611,-0.0187 0.124523,0.0265 0.177419,0 0.132241,-0.0661 0.222597,-0.20001 0.354838,-0.26613 0.109048,-0.0545 0.240681,-0.0459 0.354838,-0.0887 0.247642,-0.0929 0.489617,-0.20813 0.709679,-0.35484 0.06959,-0.0464 0.105701,-0.13438 0.177419,-0.17742 0.298174,-0.1789 0.204186,0.002 0.443547,-0.17742 0.683974,-0.51297 1.353415,-1.08159 2.040324,-1.59677 0.0748,-0.0561 0.200009,-0.0226 0.266128,-0.0887 0.04676,-0.0468 0.03581,-0.13775 0.08871,-0.17742 0.07481,-0.0561 0.185946,-0.0406 0.266128,-0.0887 0.277114,-0.16627 0.528945,-0.44134 0.798388,-0.62097 0.05771,-0.0385 0.518719,-0.34807 0.532257,-0.35483 0.109051,-0.0545 0.248984,-0.0282 0.354841,-0.0887 0.213977,-0.12228 0.37759,-0.36243 0.620967,-0.44355 0.0561,-0.0187 0.124523,0.0265 0.177419,0 0.211719,-0.10586 0.43998,-0.39149 0.620969,-0.53226 0.23341,-0.18154 0.473117,-0.35484 0.709676,-0.53226 0.105793,-0.0793 0.249047,-0.0981 0.35484,-0.17742 0.198704,-0.14903 0.333544,-0.38322 0.532254,-0.53226 0.1058,-0.0793 0.24481,-0.10406 0.35484,-0.17742 0.23727,-0.15817 0.39443,-0.35103 0.62097,-0.53225 0.10326,-0.0826 0.24481,-0.10407 0.35484,-0.17742 0.15923,0.0254 0.0536,-0.14234 0.0887,-0.17742 0.0418,-0.0418 0.1356,0.0418 0.17742,0 0.0468,-0.0468 0.052,-0.12241 0.0887,-0.17742 0.0814,-0.12204 0.13685,-0.0912 0.26612,-0.17742 0.20381,-0.13587 -0.038,-0.0507 0.17743,-0.26613 0.10885,-0.10886 0.3136,-0.1341 0.44354,-0.17742 0.20493,-0.0683 0.34766,-0.26254 0.53226,-0.35484 0.0265,-0.0132 0.0678,0.0209 0.0887,0 0.0468,-0.0468 0.042,-0.13066 0.0887,-0.17742 0.0418,-0.0418 0.12452,0.0265 0.17742,0 0.0748,-0.0374 0.10261,-0.14001 0.17742,-0.17742 0.0265,-0.0132 0.0591,0 0.0887,0 0.0591,-0.0296 0.1224,-0.052 0.17742,-0.0887 0.15923,0.0254 0.0536,-0.14234 0.0887,-0.17742 0.0768,-0.0768 0.50234,-0.11758 0.53226,-0.17741 0.0265,-0.0529 -0.0265,-0.12453 0,-0.17742 0.0572,-0.11441 0.17742,0.14179 0.17742,-0.0887"
       id="path1174" />
    <ellipse
       style="fill:#000000;stroke-width:0.264583"
       id="path1228"
       cx="34.419353"
       cy="105.12097"
       rx="3.3709676"
       ry="3.1935484" />
    <ellipse
       style="fill:#000000;stroke-width:0.264583"
       id="path1228-0"
       cx="108.49194"
       cy="104.85483"
       rx="3.3709676"
       ry="3.1935484" />
    <ellipse
       style="fill:#ff0000;stroke-width:0.243835"
       id="path1252"
       cx="34.419357"
       cy="105.12096"
       rx="3.1048386"
       ry="2.75" />
    <ellipse
       style="fill:#ff0000;stroke-width:0.243835"
       id="path1252-1"
       cx="108.49194"
       cy="104.85484"
       rx="3.1048386"
       ry="2.75" />
    <path
       style="fill:none;stroke:#000000;stroke-width:0.264583px;stroke-linecap:butt;stroke-linejoin:miter;stroke-opacity:1"
       d="m 44.834275,76.997654 c 0.166111,0.05131 0.354288,-0.02304 0.517501,0.03136 0.03136,0.01046 0.06273,0.02091 0.09409,0.03137"
       id="path1356" />
    <path
       style="fill:none;stroke:#000000;stroke-width:0.264583px;stroke-linecap:butt;stroke-linejoin:miter;stroke-opacity:1"
       d="m 71.948113,75.884248 c 0.05165,0.02003 0.103137,0.01569 0.156819,0.01569 0.06702,0.02954 0.08729,0.03135 0.141137,0.03135"
       id="path1358" />
    <path
       style="fill:none;stroke:#000000;stroke-width:0.264583px;stroke-linecap:butt;stroke-linejoin:miter;stroke-opacity:1"
       d="m 94.420138,76.840836 c -0.05651,0.0097 -0.09641,0.02469 -0.141136,0.04704 -0.01402,0.007 -0.03217,-0.0049 -0.04705,0 -0.05813,0.01937 0.0191,0.01569 -0.03136,0.01569"
       id="path1360" />
    <path
       style="fill:#29db29;stroke-width:0.335281;fill-opacity:0.85714287"
       d="m 286.65181,489.0215 c -4.89396,-0.12266 -9.1185,-0.36341 -9.38786,-0.535 -0.26937,-0.1716 -2.7529,-0.34382 -5.51897,-0.38272 -7.50958,-0.10561 -14.9312,-0.7029 -15.98021,-1.28608 -0.50007,-0.278 -2.26936,-0.58807 -4.02337,-0.70509 -1.93423,-0.12904 -4.28405,-0.56363 -6.14831,-1.13711 -1.65964,-0.51054 -3.95792,-1.01676 -5.10729,-1.12495 -1.14937,-0.10818 -4.1669,-0.71005 -6.70561,-1.33747 -2.53872,-0.62743 -6.50181,-1.54772 -8.80686,-2.04511 -2.30505,-0.49738 -5.29626,-1.3445 -6.64713,-1.88249 -1.35086,-0.53799 -2.85963,-0.98039 -3.3528,-0.98312 -1.75405,-0.01 -5.25767,-1.04415 -10.084,-2.97734 -2.69196,-1.07827 -5.44221,-2.05882 -6.11166,-2.17901 -0.66945,-0.12018 -2.14559,-0.81857 -3.2803,-1.55197 -1.13472,-0.73341 -2.18856,-1.33346 -2.34187,-1.33346 -0.15331,0 -0.64095,-0.2849 -1.08363,-0.63312 -0.44268,-0.34821 -1.34742,-0.78291 -2.01052,-0.96601 -0.66311,-0.18309 -2.62212,-1.28711 -4.35337,-2.45337 -1.73125,-1.16626 -4.11618,-2.47339 -5.29984,-2.90473 -1.18366,-0.43133 -4.12575,-1.82147 -6.53797,-3.08919 -2.41222,-1.26772 -5.33866,-2.61389 -6.50321,-2.99151 -2.6078,-0.8456 -5.75188,-2.69827 -7.84289,-4.62149 -0.93171,-0.85695 -1.9027,-1.45158 -2.37032,-1.45158 -0.43565,0 -1.10242,-0.3569 -1.48171,-0.79312 -0.37928,-0.43621 -1.26889,-0.90179 -1.97692,-1.03461 -0.70801,-0.13283 -1.48667,-0.52614 -1.73033,-0.87402 -0.24367,-0.34788 -1.17879,-0.85101 -2.07805,-1.11806 -1.87839,-0.55782 -1.95783,-0.60559 -8.23073,-4.9485 -2.58166,-1.78736 -5.59918,-3.72544 -6.70561,-4.30685 -1.10643,-0.58141 -2.238,-1.25914 -2.5146,-1.50607 -0.27661,-0.24693 -2.91695,-1.9786 -5.86742,-3.84816 -9.68021,-6.13386 -14.99895,-11.46105 -15.82791,-15.85306 -0.14825,-0.78542 -0.33869,-0.92202 -1.28551,-0.92202 -0.61131,0 -1.31681,-0.20534 -1.56778,-0.4563 -0.25097,-0.25097 -1.46876,-0.56473 -2.7062,-0.69725 -1.23743,-0.13252 -2.24988,-0.37981 -2.24988,-0.54954 0,-0.16973 -0.31568,-0.30859 -0.7015,-0.30859 -0.38583,0 -1.08512,-0.30176 -1.55398,-0.67056 -0.51334,-0.4038 -1.360162,-0.67057 -2.128601,-0.67057 -0.701866,0 -1.369366,-0.15087 -1.483335,-0.33528 -0.113968,-0.1844 -0.440632,-0.33528 -0.72592,-0.33528 -0.285288,0 -1.090196,-0.45263 -1.788685,-1.00584 -0.698488,-0.55321 -1.512301,-1.00584 -1.808472,-1.00584 -0.664736,0 -1.498304,-0.81264 -2.505931,-2.44301 -0.423224,-0.68479 -0.917809,-1.24508 -1.099079,-1.24508 -0.361323,0 -1.892494,-1.6989 -2.537553,-2.81553 -0.242111,-0.4191 -0.412037,-2.05468 -0.419101,-4.03392 -0.01095,-3.06781 -0.303641,-4.81083 -1.05888,-6.30577 -0.648656,-1.28396 0.03309,-9.87851 0.879443,-11.08685 0.27656,-0.39485 0.502837,-1.2035 0.502837,-1.797 0,-0.5935 0.169632,-1.18393 0.37696,-1.31206 0.207327,-0.12814 0.812335,-1.19318 1.34446,-2.36675 0.532126,-1.17358 1.116876,-2.13378 1.299444,-2.13378 0.182569,0 0.331943,-0.40666 0.331943,-0.90368 0,-0.5096 0.369363,-1.28921 0.847007,-1.78776 0.465854,-0.48625 0.908752,-1.39976 0.984219,-2.03003 0.107554,-0.89826 0.631044,-1.60954 2.421979,-3.29084 3.740021,-3.51106 4.581653,-3.72159 12.022165,-3.00729 6.50284,0.62428 8.85045,-0.10421 8.38205,-2.60104 -0.15007,-0.79989 0.0572,-2.04664 0.67772,-4.07576 0.7217,-2.36015 0.85683,-3.3249 0.70137,-5.00753 -0.11022,-1.19308 -0.055,-2.16915 0.12906,-2.28293 0.17688,-0.10932 0.3209,-1.43459 0.32005,-2.94505 -0.002,-2.66826 0.7026,-7.41212 1.40291,-9.45189 0.18993,-0.55321 0.50177,-1.76022 0.69298,-2.68224 0.1912,-0.92202 0.57816,-1.94287 0.85991,-2.26855 0.28174,-0.32567 0.61948,-1.38223 0.75052,-2.34791 0.13657,-1.00636 0.68602,-2.51516 1.28732,-3.53496 0.57698,-0.97855 1.20447,-2.48689 1.39443,-3.35186 0.18996,-0.86497 0.54818,-1.72731 0.79605,-1.91631 0.24786,-0.189 0.50804,-0.64163 0.57818,-1.00584 0.0701,-0.36421 0.33832,-0.6622 0.59595,-0.6622 0.25763,0 0.63275,-0.47416 0.83361,-1.05368 0.37609,-1.08512 2.65853,-3.52258 3.6575,-3.90592 0.30988,-0.11892 0.56342,-0.39187 0.56342,-0.60658 0,-0.2147 0.90526,-1.24379 2.01168,-2.28686 1.10643,-1.04308 2.01169,-2.08041 2.01169,-2.3052 0,-0.62376 4.29773,-4.71751 6.31458,-6.01488 1.06939,-0.68791 1.96127,-1.56176 2.2186,-2.17376 0.44741,-1.06407 3.79228,-3.26625 4.97366,-3.27453 0.3292,-0.002 0.93383,-0.22389 1.34364,-0.4924 0.4098,-0.26852 1.04572,-0.48673 1.41314,-0.48492 0.69284,0.003 2.30795,-0.297 3.18266,-0.59199 0.2766,-0.0933 1.25094,-0.21285 2.1652,-0.26571 0.91425,-0.0529 1.71893,-0.26606 1.78816,-0.47377 0.0692,-0.20771 0.78068,-0.37765 1.58098,-0.37765 1.04049,0 1.72515,-0.22634 2.40285,-0.79436 0.52126,-0.43689 1.74727,-0.96496 2.72447,-1.17348 1.98682,-0.42396 7.4479,-0.51772 7.43549,-0.12767 -0.004,0.13831 -0.15306,0.85497 -0.33037,1.59259 -0.17731,0.73762 -0.62013,3.0762 -0.98404,5.19685 -5.33526,31.09003 5.51779,63.49294 25.67912,76.66767 12.18121,7.96 26.55023,7.62728 38.62362,-0.89435 11.45571,-8.08564 20.18536,-23.14528 23.83512,-41.11826 1.16239,-5.72412 1.69865,-11.63689 1.69865,-18.72923 0,-9.42817 -0.98947,-17.13597 -3.22241,-25.10186 -0.4584,-1.63534 -0.74372,-3.06307 -0.63405,-3.17275 0.40849,-0.40849 6.45383,-0.15822 8.71787,0.36091 1.29074,0.29595 2.74348,0.45876 3.22832,0.36179 0.48484,-0.097 0.98416,-0.0102 1.10961,0.19276 0.12545,0.20298 0.8227,0.36906 1.54943,0.36906 0.72673,0 1.32133,0.11661 1.32133,0.25915 0,0.14253 -0.37635,1.74276 -0.83633,3.55608 -8.34083,32.88051 2.23454,69.57139 24.1872,83.9167 12.18121,7.96 26.55023,7.62728 38.62362,-0.89435 6.86232,-4.84354 12.6278,-11.99663 17.1602,-21.29021 5.78052,-11.8528 8.37357,-23.79289 8.37357,-38.55728 0,-8.59892 -0.56027,-13.54055 -2.59104,-22.85323 -0.1088,-0.49893 0.0627,-0.84286 0.55065,-1.10397 0.979,-0.52395 7.26503,-0.88031 7.81321,-0.44293 0.23643,0.18863 1.17887,0.45154 2.09431,0.58423 0.91545,0.13269 1.96743,0.45347 2.33775,0.71285 0.37032,0.25938 0.99005,0.4716 1.37718,0.4716 0.974,0 3.89583,1.0013 4.53781,1.55509 0.29113,0.25113 0.76946,0.4566 1.06296,0.4566 0.70195,0 5.11857,2.25021 5.63282,2.86984 0.22045,0.26563 0.7223,0.48297 1.11522,0.48297 0.39292,0 1.45714,0.52806 2.36493,1.17348 0.90779,0.64541 1.92572,1.17348 2.26207,1.17348 0.33635,0 0.61155,0.15461 0.61155,0.34358 0,0.18897 0.40567,0.49782 0.9015,0.68633 0.49582,0.18851 1.10788,0.6374 1.36013,0.99754 0.25225,0.36014 0.6764,0.6548 0.94254,0.6548 0.26616,0 0.48391,0.15461 0.48391,0.34357 0,0.18897 0.3772,0.48699 0.83821,0.66227 0.51781,0.19687 0.8382,0.58137 0.8382,1.00592 0,0.47972 0.27842,0.74514 0.92202,0.87897 0.51815,0.10775 1.21574,0.63901 1.59258,1.21286 0.36881,0.56163 1.65126,1.59862 2.84989,2.30442 1.19863,0.70581 2.3302,1.43685 2.5146,1.62454 1.34745,1.37146 1.60941,1.76737 1.69692,2.5646 0.10539,0.96002 0.63262,1.45947 1.54948,1.46782 0.31028,0.003 0.64952,0.26916 0.75387,0.59187 0.10435,0.32271 0.71803,0.94566 1.36372,1.38434 0.64569,0.43868 1.17399,1.07466 1.17399,1.41328 0,0.33862 0.45263,1.13119 1.00584,1.76127 0.63879,0.72754 1.00584,1.51209 1.00584,2.14993 0,0.55239 0.22632,1.19217 0.50292,1.42174 0.27661,0.22956 0.50292,0.62996 0.50292,0.88978 0,0.25981 0.23499,0.56256 0.52219,0.67277 0.28721,0.11021 0.44449,0.40286 0.34953,0.65033 -0.095,0.24748 0.01,0.64522 0.23219,0.88388 0.48081,0.51532 1.4454,2.46325 1.74555,3.52503 0.11729,0.41491 0.35397,0.75438 0.52594,0.75438 0.17198,0 0.31269,0.22101 0.31269,0.49113 0,0.27012 0.30175,0.65261 0.67056,0.84999 0.36881,0.19738 0.67056,0.65532 0.67056,1.01764 0,0.36232 0.30176,0.96052 0.67056,1.32933 0.36881,0.36881 0.67057,0.89688 0.67057,1.17348 0,0.27661 0.28918,0.7921 0.64262,1.14554 0.35344,0.35344 0.57336,0.71188 0.48871,0.79653 -0.23842,0.23843 1.509,4.00396 2.209,4.76016 0.37578,0.40596 0.72139,1.4705 0.86915,2.67715 0.13488,1.10177 0.51492,2.48334 0.84454,3.07018 0.32961,0.58683 0.51573,1.38646 0.4136,1.77695 -0.10209,0.3905 -0.0285,1.3475 0.16392,2.12668 0.19225,0.77918 0.61765,3.19082 0.94532,5.35922 0.32767,2.16838 0.68961,4.09435 0.80431,4.27992 0.13941,0.22557 1.0731,0.21714 2.81719,-0.0254 2.2146,-0.30802 2.77877,-0.28211 3.73473,0.17152 0.61933,0.29389 1.2168,0.68119 1.32771,0.86066 0.11094,0.17947 0.65041,0.32631 1.1989,0.32631 1.76012,0 8.3169,3.89165 8.34131,4.95081 0.005,0.23349 0.53628,0.67561 1.17985,0.9825 0.64354,0.30689 1.24597,0.79479 1.33871,1.08424 0.0927,0.28944 0.91622,1.79502 1.83,3.34572 1.19276,2.02426 1.72501,3.32922 1.88716,4.62689 0.12422,0.99409 0.43382,2.01542 0.68803,2.26962 0.25421,0.25421 0.46751,0.73701 0.47405,1.07288 0.007,0.33588 0.22752,0.98788 0.49105,1.4489 0.26353,0.46101 0.48452,1.32296 0.49105,1.91545 0.006,0.59249 0.31362,1.8428 0.68243,2.77848 0.54628,1.38586 0.6705,2.49137 0.6703,5.96364 -3e-4,4.76956 -0.58534,8.3009 -1.85172,11.1776 -0.45666,1.03728 -0.83026,2.31756 -0.83026,2.84507 0,1.32774 -1.56533,4.29387 -3.10128,5.87655 -0.70469,0.72614 -1.19427,1.46099 -1.08795,1.63301 0.10632,0.17202 -0.17344,0.4048 -0.62168,0.5173 -0.44824,0.1125 -1.31105,0.79587 -1.9174,1.51859 -0.60636,0.72274 -1.34783,1.31406 -1.64774,1.31406 -0.29987,0 -1.25898,0.45263 -2.13128,1.00584 -0.87233,0.55321 -1.94912,1.00584 -2.39283,1.00584 -0.44374,0 -0.90003,0.15088 -1.01399,0.33528 -0.11396,0.18441 -0.50007,0.33528 -0.85798,0.33528 -0.35795,0 -0.65078,0.15088 -0.65078,0.33528 0,0.18504 -0.87274,0.33528 -1.94761,0.33528 -1.07116,0 -2.19445,0.1886 -2.49617,0.4191 -0.53936,0.41207 -2.2212,3.31932 -3.63672,6.28652 -0.39587,0.82982 -0.92742,1.62941 -1.18119,1.77688 -0.25381,0.14747 -0.46145,0.47003 -0.46145,0.7168 0,0.3994 -2.90306,3.77876 -4.44247,5.17131 -0.32271,0.29192 -0.58674,0.72355 -0.58674,0.95918 0,0.23563 -0.16853,0.42842 -0.37452,0.42842 -0.45894,0 -2.97829,2.55286 -2.97829,3.0179 0,0.1842 -0.23105,0.3349 -0.51344,0.3349 -0.2824,0 -0.59663,0.21678 -0.69831,0.48174 -0.10167,0.26496 -1.46179,1.83614 -3.02249,3.49153 -1.5607,1.65538 -3.27496,3.6135 -3.80946,4.35136 -0.53451,0.73786 -1.28208,1.44004 -1.66127,1.56038 -0.37919,0.12036 -0.84547,0.51036 -1.03616,0.86668 -0.1907,0.35632 -0.54411,0.64785 -0.78536,0.64785 -0.24126,0 -1.05564,0.73173 -1.80975,1.62605 -0.84179,0.99832 -2.10107,1.98319 -3.26198,2.55117 -1.03998,0.50882 -1.99308,1.19946 -2.11801,1.53475 -0.22555,0.6054 -2.499,2.33477 -3.06931,2.33477 -0.16378,0 -0.38647,0.2794 -0.49486,0.6209 -0.11657,0.36729 -1.32404,1.1415 -2.9563,1.89551 -1.51758,0.70105 -3.06099,1.53325 -3.42979,1.84936 -0.36881,0.3161 -1.27407,0.66554 -2.01169,0.77653 -0.74718,0.11243 -1.58765,0.50328 -1.89778,0.88256 -0.30617,0.37441 -0.67121,0.68075 -0.8112,0.68075 -0.68588,0 -6.86768,2.47141 -7.20826,2.88177 -0.21501,0.25907 -0.78736,0.47584 -1.27189,0.4817 -0.48454,0.006 -1.17384,0.23218 -1.5318,0.50292 -0.35795,0.27075 -0.91391,0.49226 -1.23547,0.49226 -0.32156,0 -1.00939,0.17508 -1.5285,0.38905 -0.51912,0.21398 -1.14752,0.35478 -1.39645,0.31289 -0.24892,-0.0419 -1.05776,0.32433 -1.79742,0.81381 -0.81941,0.54226 -1.61075,0.82043 -2.02545,0.71198 -0.39357,-0.10292 -1.50509,0.23821 -2.63548,0.80883 -1.07518,0.54275 -2.43171,0.98681 -3.01452,0.98681 -0.5828,0 -1.53008,0.28339 -2.10506,0.62977 -0.57498,0.34636 -1.63058,0.73403 -2.34578,0.86147 -0.7152,0.12744 -2.12958,0.59842 -3.14307,1.04664 -1.01348,0.44821 -2.19221,0.81493 -2.61939,0.81493 -0.42719,0 -0.86995,0.15087 -0.98391,0.33528 -0.11397,0.1844 -0.64664,0.33528 -1.18371,0.33528 -0.53708,0 -1.7729,0.35071 -2.74628,0.77935 -0.97338,0.42864 -2.82592,1.03853 -4.11675,1.3553 -1.29083,0.31677 -4.45923,1.16937 -7.04089,1.89466 -2.58167,0.72529 -6.30583,1.62768 -8.27592,2.00531 -1.9701,0.37763 -4.14466,0.92169 -4.83235,1.20903 -0.68771,0.28734 -2.47053,0.73553 -3.96183,0.99599 -1.49131,0.26045 -3.16409,0.56072 -3.71731,0.66725 -4.27811,0.82384 -13.516,1.12691 -25.32685,0.83089 z m 17.28012,-43.58514 c 0.92202,-0.1973 2.50069,-0.4449 3.50815,-0.55022 1.00746,-0.10532 3.49692,-0.68372 5.53213,-1.28532 2.03521,-0.6016 4.20752,-1.12093 4.82735,-1.15406 0.61983,-0.0331 1.37421,-0.19256 1.6764,-0.35427 0.57801,-0.30931 3.71332,-0.87922 4.16729,-0.7575 0.14577,0.0391 0.5984,-0.11006 1.00584,-0.33145 0.40744,-0.22138 1.57062,-0.53372 2.58484,-0.69408 1.01423,-0.16036 2.1791,-0.34469 2.58862,-0.40962 0.40951,-0.0649 1.69196,-0.42247 2.84989,-0.79456 1.15792,-0.37209 2.94264,-0.90935 3.96604,-1.19393 1.0234,-0.28458 2.8826,-1.05005 4.13155,-1.70105 1.24895,-0.651 2.494,-1.18363 2.76678,-1.18363 0.27277,0 1.05391,-0.29613 1.73586,-0.65807 0.68195,-0.36193 2.06972,-1.04284 3.08395,-1.51311 2.78994,-1.29364 3.54997,-1.78352 7.48225,-4.8227 1.9946,-1.54157 4.06915,-3.02367 4.61011,-3.29354 0.54097,-0.26987 0.98358,-0.6305 0.98358,-0.8014 0,-0.1709 0.16581,-0.31072 0.36846,-0.31072 0.20265,0 1.56982,-0.90526 3.03816,-2.01169 1.46834,-1.10642 2.91021,-2.01168 3.20416,-2.01168 0.29396,0 1.00133,-0.35548 1.57195,-0.78996 0.57062,-0.43448 1.38102,-0.89856 1.8009,-1.0313 0.41987,-0.13274 1.476,-0.8595 2.34696,-1.61504 0.87096,-0.75553 2.2202,-1.77857 2.99832,-2.27341 0.77811,-0.49485 1.98512,-1.37999 2.68224,-1.96699 2.50828,-2.11203 5.12015,-4.05812 5.44647,-4.05812 0.18301,0 1.14613,-0.8134 2.14029,-1.80756 0.99416,-0.99416 2.16381,-1.92062 2.59923,-2.05882 0.70583,-0.22402 2.54221,-1.36308 2.98397,-1.85086 0.0922,-0.10181 0.77114,-0.4656 1.50876,-0.80841 0.73762,-0.34281 1.492,-0.80604 1.6764,-1.02939 0.18441,-0.22335 0.66102,-0.48308 1.05915,-0.57717 0.60896,-0.14392 0.81787,0.0755 1.31604,1.38214 0.73457,1.92669 3.74176,4.9952 5.92355,6.04434 5.27165,2.53493 11.82933,1.32794 15.68077,-2.88616 2.11193,-2.31078 3.01059,-4.69139 3.01059,-7.9753 0,-3.62079 -0.92203,-5.84227 -3.49111,-8.41135 -2.35598,-2.35598 -4.73907,-3.43329 -8.2433,-3.72649 -7.08586,-0.59288 -13.74692,4.8962 -13.74692,11.32823 0,1.38587 -0.15525,1.82371 -0.88716,2.50203 -0.48794,0.4522 -1.09618,0.82219 -1.35165,0.82219 -0.25547,0 -0.54407,0.20741 -0.64135,0.46091 -0.0973,0.25349 -0.77149,0.72904 -1.49824,1.05676 -0.72676,0.32772 -1.32138,0.7031 -1.32138,0.83419 0,0.13108 -0.94297,0.70401 -2.0955,1.27318 -1.15253,0.56916 -2.32885,1.30654 -2.61404,1.63861 -0.2852,0.33207 -1.08679,1.05639 -1.78133,1.6096 -0.69453,0.55321 -1.88209,1.5054 -2.63901,2.11596 -0.75693,0.61056 -1.7662,1.31178 -2.24283,1.55826 -0.47664,0.24648 -1.16801,0.78341 -1.53638,1.19319 -0.36838,0.40978 -1.43633,1.23683 -2.37323,1.83789 -0.9369,0.60106 -2.48842,1.79 -3.44782,2.64208 -0.9594,0.85208 -2.0226,1.54924 -2.36268,1.54924 -0.34007,0 -0.80766,0.22816 -1.03909,0.50701 -0.23143,0.27885 -1.34375,0.95088 -2.47184,1.49339 -1.12808,0.54252 -2.78415,1.59681 -3.68015,2.34288 -0.896,0.74607 -1.84371,1.3565 -2.10603,1.3565 -0.26231,0 -0.56378,0.22631 -0.66992,0.50292 -0.10615,0.2766 -0.34377,0.50292 -0.52805,0.50292 -0.18429,0 -2.26437,1.50876 -4.62241,3.3528 -2.35804,1.84405 -4.4702,3.35281 -4.69369,3.35281 -0.2235,0 -0.84985,0.37317 -1.39189,0.82927 -0.54204,0.4561 -1.61996,1.01155 -2.39537,1.23432 -0.7754,0.22278 -1.78702,0.65205 -2.24803,0.95394 -0.46101,0.30188 -1.51715,0.73912 -2.34696,0.97165 -0.82982,0.23252 -2.05262,0.77559 -2.71733,1.20682 -1.55917,1.01151 -10.55515,3.67191 -13.54379,4.00533 -0.55321,0.0617 -1.45847,0.27118 -2.01168,0.46548 -1.26326,0.44368 -5.65213,1.37544 -7.20854,1.53038 -0.64541,0.0642 -2.70776,0.59662 -4.583,1.18304 -1.87523,0.58643 -4.17803,1.12344 -5.11733,1.19337 -0.9393,0.0699 -2.57342,0.32044 -3.63137,0.55667 -2.18034,0.48686 -35.56863,0.62969 -42.99545,0.18394 -2.30505,-0.13836 -4.5682,-0.2569 -5.02921,-0.26343 -0.46101,-0.007 -1.58225,-0.22855 -2.49164,-0.49336 -0.90939,-0.26481 -2.35202,-0.48147 -3.20584,-0.48147 -0.85382,0 -2.73417,-0.30954 -4.17856,-0.68786 -1.44439,-0.37832 -2.84487,-0.60393 -3.11218,-0.50135 -0.26731,0.10258 -1.71658,-0.10549 -3.22058,-0.46236 -1.50401,-0.35688 -4.16788,-0.8137 -5.91972,-1.01516 -3.23717,-0.37228 -6.3362,-1.1243 -10.56134,-2.56284 -1.29083,-0.43949 -3.75144,-1.1046 -5.46802,-1.47802 -1.71657,-0.37342 -3.45633,-0.89864 -3.86614,-1.16715 -0.4098,-0.26852 -2.17374,-0.86255 -3.91985,-1.32009 -4.03972,-1.05852 -7.50008,-2.24775 -9.20483,-3.16342 -0.73489,-0.39474 -1.67787,-0.7177 -2.09551,-0.7177 -0.41764,0 -0.75934,-0.14506 -0.75934,-0.32236 0,-0.17729 -0.64123,-0.49308 -1.42495,-0.70175 -0.78372,-0.20867 -1.66349,-0.59199 -1.95505,-0.85184 -0.29156,-0.25984 -1.64944,-0.85133 -3.01752,-1.31443 -1.36808,-0.4631 -2.87483,-1.12591 -3.34833,-1.47291 -0.47351,-0.347 -1.99863,-1.10455 -3.38917,-1.68343 -1.39054,-0.57888 -3.23745,-1.50227 -4.10425,-2.05198 -0.86679,-0.54971 -2.43463,-1.45971 -3.48408,-2.02223 -4.03231,-2.16136 -4.59845,-2.50004 -4.85847,-2.90648 -0.14746,-0.2305 -0.41513,-0.4191 -0.59482,-0.4191 -0.33415,0 -3.1218,-1.77274 -4.72221,-3.00299 -0.49018,-0.3768 -1.01825,-0.68687 -1.17349,-0.68904 -0.15524,-0.002 -1.48926,-0.7557 -2.96449,-1.67452 -1.47524,-0.91882 -3.88926,-2.25321 -5.3645,-2.9653 -1.47523,-0.7121 -3.05536,-1.70146 -3.5114,-2.19859 -0.45604,-0.49714 -1.48101,-1.19222 -2.2777,-1.54463 -0.79669,-0.35242 -2.00442,-1.09897 -2.68385,-1.65902 -0.67943,-0.56004 -1.48239,-1.01826 -1.78436,-1.01826 -0.30197,0 -1.32373,-0.63018 -2.27058,-1.40041 -1.71213,-1.39275 -1.72153,-1.41101 -1.72153,-3.34022 0,-3.02372 -1.07587,-5.44649 -3.49111,-7.86173 -2.35598,-2.35598 -4.73907,-3.43329 -8.2433,-3.72649 -5.59479,-0.46812 -11.22332,2.90347 -13.06518,7.82628 -0.93992,2.51215 -0.92183,6.15933 0.0433,8.73898 0.86836,2.3209 3.65167,5.27362 6.06489,6.43404 3.7237,1.79058 8.45943,1.72165 12.21358,-0.17778 2.23028,-1.12842 4.86593,-3.91732 5.65521,-5.98404 0.31812,-0.83296 0.68247,-1.51447 0.80967,-1.51447 0.12721,0 0.57424,0.36506 0.99341,0.81124 0.41917,0.44619 1.23757,0.99993 1.81867,1.23055 0.5811,0.23061 1.73549,0.90259 2.56531,1.49329 0.82982,0.59069 1.85229,1.17997 2.27216,1.30952 0.41988,0.12954 1.4753,0.85166 2.34538,1.60472 1.47089,1.27304 4.46153,2.92774 5.30509,2.93526 0.20193,0.002 0.64022,0.30503 0.97399,0.67384 0.33377,0.36881 0.77407,0.67056 0.97846,0.67056 0.20439,0 1.15575,0.52807 2.11413,1.17349 0.95839,0.64541 1.88778,1.17348 2.06531,1.17348 0.17753,0 0.74927,0.35655 1.27053,0.79232 0.52126,0.43578 1.26419,0.89127 1.65097,1.0122 0.38678,0.12093 1.43911,0.89549 2.33851,1.72123 0.93337,0.85693 2.1015,1.58881 2.72145,1.70512 0.5974,0.11207 1.27146,0.42702 1.49792,0.69989 0.22646,0.27287 1.47657,1.0304 2.77801,1.68341 1.30145,0.65301 2.74346,1.45026 3.20447,1.77167 0.46101,0.32141 2.10885,1.14048 3.66187,1.82015 1.55302,0.67967 3.24522,1.53593 3.76044,1.90281 0.51523,0.36687 1.72744,0.90184 2.69381,1.18882 0.96637,0.28698 2.57697,0.95933 3.57911,1.4941 1.00214,0.53477 2.08645,0.97231 2.40957,0.97231 0.32312,0 0.67433,0.22632 0.78048,0.50292 0.10734,0.27974 0.60683,0.50348 1.12553,0.50418 0.5129,6.7e-4 1.38572,0.27761 1.93959,0.61538 1.10903,0.67634 5.89202,2.29677 10.04544,3.40331 1.46877,0.3913 2.86492,0.87284 3.10258,1.07008 0.23766,0.19724 2.35523,0.85035 4.70571,1.45137 2.35047,0.60101 6.01929,1.61792 8.15291,2.25979 2.13362,0.64187 5.4529,1.35203 7.37617,1.57812 1.92328,0.2261 4.34846,0.62359 5.3893,0.8833 1.04084,0.25972 2.56836,0.47222 3.39448,0.47222 0.82611,0 2.15662,0.23095 2.95668,0.51323 0.80006,0.28227 2.59182,0.59766 3.9817,0.70084 1.38988,0.10319 3.04825,0.34675 3.68527,0.54124 1.31299,0.40088 3.30093,0.56495 8.46965,0.69905 1.97605,0.0513 3.70625,0.20665 3.8449,0.3453 0.39089,0.39089 37.21765,-0.0197 39.1663,-0.43671 z m -39.39257,-47.20674 c 0.002,-0.87592 0.0981,-2.38469 0.21434,-3.35281 0.19315,-1.60805 0.15336,-1.76022 -0.46026,-1.76022 -0.54491,0 -0.71193,0.2936 -0.8849,1.55555 -0.11727,0.85556 -0.21321,2.36433 -0.21321,3.35281 0,1.57373 0.0834,1.79725 0.67056,1.79725 0.57604,0 0.67097,-0.22449 0.67347,-1.59258 z m -13.07886,-1.92787 c 0,-2.29108 -0.0596,-2.5146 -0.67056,-2.5146 -0.61095,0 -0.67056,0.22352 -0.67056,2.5146 0,2.29109 0.0596,2.51461 0.67056,2.51461 0.61096,0 0.67056,-0.22352 0.67056,-2.51461 z"
       id="path1431"
       transform="scale(0.26458333)" />
    <path
       style="fill:#ffffff;fill-opacity:0.857143;stroke:#000000;stroke-width:0.335281;stroke-opacity:1"
       d="m 211.22682,380.33179 c -13.16352,-1.21859 -25.70356,-11.6229 -33.48756,-27.78416 -12.58224,-26.12346 -10.63503,-60.60876 4.73288,-83.82017 3.05846,-4.61944 9.30114,-11.05783 13.1572,-13.56968 6.16636,-4.0168 12.01119,-5.8766 18.46844,-5.8766 2.17715,0 4.99192,0.21739 6.25504,0.4831 11.95445,2.5147 22.34166,11.4496 29.65483,25.50857 6.06639,11.66215 9.00458,24.56915 9.00458,39.5557 0,14.89585 -2.86659,27.58509 -8.89338,39.36737 -9.16124,17.91011 -23.51943,27.55896 -38.89203,26.13587 z m 9.48165,-31.98885 c 11.20784,-5.53922 17.07147,-25.44475 12.64623,-42.93078 -2.33064,-9.20934 -6.85391,-15.87079 -12.75796,-18.78873 -2.5019,-1.2365 -2.78581,-1.29958 -5.84947,-1.29958 -3.0675,0 -3.34531,0.062 -5.86779,1.30864 -6.34838,3.13753 -11.0338,10.55772 -13.29934,21.06184 -1.0743,4.98095 -1.0743,14.65198 0,19.63293 2.15882,10.00928 6.847,17.69739 12.66863,20.7752 2.74308,1.45022 4.15613,1.76225 7.29818,1.6116 2.22546,-0.10671 3.04207,-0.32363 5.16152,-1.37112 z"
       id="path5060"
       transform="scale(0.26458333)" />
    <ellipse
       style="fill:#ffffff;fill-opacity:0.857143;stroke:#000000;stroke-width:0.289212;stroke-opacity:1"
       id="path5840"
       cx="50.298389"
       cy="144.41936"
       rx="8.0602655"
       ry="20.92317" />
    <ellipse
       style="fill:#ffffff;fill-opacity:0.857143;stroke:#000000;stroke-width:0.284457;stroke-opacity:1"
       id="path5840-9"
       cx="92.612907"
       cy="146.54839"
       rx="7.7965145"
       ry="20.925547" />
    <ellipse
       style="fill:#ffccaa;fill-opacity:0.857143;stroke:#000000;stroke-width:0.264583;stroke-opacity:1"
       id="path5867"
       cx="71.383568"
       cy="156.19075"
       rx="14.301805"
       ry="10.914535" />
    <ellipse
       style="fill:#ffffff;fill-opacity:0.857143;stroke:#000000;stroke-width:0.264583;stroke-opacity:1"
       id="path5869"
       cx="88.759003"
       cy="167.73256"
       rx="1.5681803"
       ry="2.2581797" />
    <ellipse
       style="fill:#ffffff;fill-opacity:0.857143;stroke:#000000;stroke-width:0.264583;stroke-opacity:1"
       id="path5869-7"
       cx="92.836281"
       cy="169.8653"
       rx="1.5681803"
       ry="2.2581797" />
    <ellipse
       style="fill:#ffffff;fill-opacity:0.857143;stroke:#000000;stroke-width:0.264583;stroke-opacity:1"
       id="path5869-0"
       cx="97.352638"
       cy="166.72893"
       rx="1.5681803"
       ry="2.2581797" />
    <ellipse
       style="fill:#ffffff;fill-opacity:0.857143;stroke:#000000;stroke-width:0.264583;stroke-opacity:1"
       id="path5869-5"
       cx="54.321766"
       cy="165.7253"
       rx="1.5681803"
       ry="2.2581797" />
    <ellipse
       style="fill:#ffffff;fill-opacity:0.857143;stroke:#000000;stroke-width:0.264583;stroke-opacity:1"
       id="path5869-3"
       cx="50.432678"
       cy="167.60712"
       rx="1.5681803"
       ry="2.2581797" />
    <ellipse
       style="fill:#ffffff;fill-opacity:0.857143;stroke:#000000;stroke-width:0.264583;stroke-opacity:1"
       id="path5869-79"
       cx="46.041775"
       cy="165.34894"
       rx="1.5681803"
       ry="2.2581797" />
    <path
       style="fill:none;stroke:#000000;stroke-width:0.264583px;stroke-linecap:butt;stroke-linejoin:miter;stroke-opacity:1"
       d="m 97.478089,124.95261 c 0.521724,0.95335 0.620763,1.98123 0.878182,3.01091 -0.213218,0.33957 0.19177,0.32439 0.250909,0.50181 0.02646,0.0794 -0.02646,0.17157 0,0.25091 0.01871,0.0561 0.09901,0.0726 0.125455,0.12546 0.0374,0.0748 -0.02646,0.17156 0,0.25091 0.108683,0.32605 0.235855,0.59716 0.376362,0.87818 0.05611,0.11221 -0.03043,0.25465 0,0.37636 0.04536,0.18143 0.205552,0.32039 0.25091,0.50182 0.09749,0.38995 0.0049,1.01842 0.125454,1.38 0.01871,0.0561 0.09901,0.0726 0.125455,0.12545 0.08364,0.16727 -0.08364,0.46 0,0.62727 0.02646,0.0529 0.106752,0.0694 0.125455,0.12546 0.0529,0.15869 -0.0529,0.34313 0,0.50181 0.01871,0.0561 0.111109,0.0681 0.125452,0.12546 0.08693,0.34771 -0.02159,0.45865 0.125455,0.75273 0.140302,0.28061 -0.147495,1.85977 0,2.00727 0.02957,0.0296 0.09588,-0.0296 0.125452,0 0.10313,0.10312 -0.0826,1.38317 0,1.63091 0.078,0.23404 0.15626,0.31251 0.25091,0.50181 0.14274,0.28548 0,1.34913 0,1.75636 0,1.42182 0,2.84364 0,4.26546 1.44022,1.41853 0.71894,0.23964 1.50546,0.50181 0.0561,0.0187 0.0694,0.10676 0.12545,0.12546 0.19836,0.0661 0.42028,-0.0296 0.62727,0 0.40506,0.0579 0.74918,0.30038 1.12909,0.37636 0.16403,0.0328 0.36264,-0.0928 0.50182,0 0.0984,0.0656 0.15249,0.1853 0.25091,0.25091 0.0348,0.0232 0.0836,0 0.12545,0 0.16728,0.0836 0.35579,0.13408 0.50182,0.25091 0.073,0.0584 0.0593,0.18479 0.12546,0.25091 0.13143,0.13143 0.53207,0.15571 0.62727,0.25091 0.19055,0.19055 0.71929,1.14862 0.87818,1.25454 0.0696,0.0464 0.18132,-0.0464 0.25091,0 0.0778,0.0519 0.0593,0.18479 0.12545,0.25091 0.0296,0.0296 0.0959,-0.0296 0.12546,0 0.0296,0.0296 -0.0187,0.0881 0,0.12546 0.0705,0.14106 0.32682,0.22775 0.37636,0.37636 0.0264,0.0793 -0.0264,0.17156 0,0.25091 0.0111,0.0334 0.23977,0.21749 0.25091,0.25091 0.0264,0.0793 -0.0264,0.17156 0,0.2509 0.13053,0.39159 0.0836,-0.0418 0.25091,0.12546 0.0591,0.0591 -0.0265,0.17156 0,0.25091 0.3029,0.90872 -0.0362,-0.19779 0.25091,0.37636 0.0374,0.0748 -0.0374,0.1761 0,0.25091 0.12419,0.24839 0.17179,0.43627 0.25091,0.75273 0.0556,0.22246 0.0845,3.38482 0,3.63818 -0.12569,0.37705 -0.21407,0.80448 -0.37637,1.12909 -0.0602,0.1204 0.0402,0.38133 0,0.50181 -0.0374,0.11221 -0.19801,0.14512 -0.25091,0.25091 -0.0561,0.11221 0.0397,0.25735 0,0.37637 -0.0187,0.0561 -0.099,0.0726 -0.12545,0.12545 -0.15206,0.30412 0.0144,0.86378 -0.25091,1.12909 -0.0296,0.0296 -0.0959,-0.0296 -0.12545,0 -0.0591,0.0591 0.0591,0.19177 0,0.25091 -0.0296,0.0296 -0.0959,-0.0296 -0.12546,0 -0.0296,0.0296 0.0187,0.0881 0,0.12545 -0.0678,0.13566 -0.52125,0.64671 -0.62727,0.75273 -0.0923,0.0923 -0.59892,0.44511 -0.62727,0.50182 -0.0187,0.0374 0.0296,0.0959 0,0.12545 -0.0296,0.0296 -0.0959,-0.0296 -0.12546,0 -0.1528,0.1528 -0.0588,0.28029 -0.25091,0.37636 -0.30898,0.1545 0.11326,-0.36416 -0.37636,0.12546 -0.0296,0.0296 0.0836,0 0.12545,0 0.2091,0 0.41819,0 0.62728,0 0.28525,0 1.29207,0.29165 1.6309,0.37636 0.23379,0.0584 0.42738,0.30974 0.62728,0.37637 0.15869,0.0529 0.33954,-0.0406 0.50181,0 0.4914,0.12284 1.07586,0.16156 1.50546,0.37636 0.10967,0.0548 0.39588,-0.0265 0.50182,0 0.22706,-0.0756 0.23332,0.20323 0.37636,0.25091 0.0793,0.0265 0.17156,-0.0265 0.25091,0 0.12995,0.0433 0.2519,0.18868 0.37636,0.25091 0.11221,0.0561 0.25466,-0.0304 0.37636,0 0.30392,0.076 0.56291,0.29754 0.87818,0.37636 0.56808,0.14202 1.20951,0.15762 1.75637,0.37636 0.10982,0.0439 0.14511,0.19802 0.25091,0.25091 0.0748,0.0374 0.1761,-0.0374 0.2509,0 0.21142,0.10571 0.24281,0.29003 0.50182,0.37637 0.0794,0.0264 0.19177,-0.0591 0.25091,0 0.0296,0.0296 -0.0296,0.0959 0,0.12545 0.25957,0.25957 -0.0101,-0.39666 0.25091,0.12545 0.0374,0.0748 -0.0591,0.19177 0,0.25091 0.0296,0.0296 0.0959,-0.0296 0.12545,0 0.0296,0.0296 0,0.0836 0,0.12546 0.0418,0.0836 0.0477,0.19904 0.12546,0.25091 0.18616,0.1241 0.24785,-0.003 0.37636,0.12545 0.0855,0.0855 0.10024,0.47661 0.12546,0.50182 0.0296,0.0296 0.088,-0.0187 0.12545,0 0.12334,0.0617 0.17104,0.34208 0.25091,0.50182 0.12604,0.25208 0,0.83586 0,1.12909 0,0.0836 0.0591,0.19177 0,0.25091 -0.0935,0.0935 -0.28286,0.0319 -0.37636,0.12545 -0.0661,0.0661 -0.0477,0.19904 -0.12546,0.25091 -0.0696,0.0464 -0.1761,-0.0374 -0.25091,0 -0.0374,0.0187 0.0296,0.0959 0,0.12545 -0.0661,0.0661 -0.16727,0.0836 -0.25091,0.12546 -0.23371,0.11685 -0.528,0.13855 -0.75272,0.25091 -0.19488,0.0974 -0.57339,-0.11957 -0.75273,0 -0.0984,0.0656 -0.14109,0.20698 -0.25091,0.2509 -0.29172,0.11669 -0.70455,-0.0997 -1.00363,0 -0.55972,0.18658 -1.15478,0.12546 -1.75636,0.12546 -1.12909,0 -2.25818,0 -3.38727,0 -0.50919,0 -1.13707,0.0988 -1.63091,0 -0.9078,-0.18156 0.57336,-0.12546 -0.62727,-0.12546 -0.63575,0 0.14961,0.0374 -0.50182,-0.12545 -0.39257,-0.0981 -0.85764,0.0794 -1.25455,0 -0.0917,-0.0183 -0.16019,-0.10277 -0.25091,-0.12545 -0.34548,-0.0864 -0.93772,0.15841 -1.25454,0 -0.41253,-0.20627 -1.01267,-0.12546 -1.50545,-0.12546 -0.5626,0 -2.838947,-0.2044 -2.885454,-0.25091 -0.04182,-0.0418 0.06631,-0.12545 0.125454,-0.12545"
       id="path5945" />
    <path
       style="fill:none;stroke:#000000;stroke-width:0.264583px;stroke-linecap:butt;stroke-linejoin:miter;stroke-opacity:1"
       d="m 45.038139,121.31443 c -0.558681,1.19484 -0.335806,2.67889 -0.878181,3.76364 -0.08364,0.16727 0.08364,0.45999 0,0.62727 -0.02646,0.0529 -0.08364,0.0836 -0.125455,0.12545 0,0.0836 0.02646,0.17157 0,0.25091 -0.0374,0.11221 -0.213505,0.1387 -0.250907,0.25091 -0.118761,0.35628 0.009,1.86382 -0.125455,2.13272 -0.150997,0.302 -0.0487,0.32028 -0.125455,0.62728 -0.05468,0.21874 -0.196223,0.40853 -0.250909,0.62727 -0.0218,0.0872 -0.104323,0.96137 -0.125455,1.00363 -0.02646,0.0529 -0.106752,0.0693 -0.125452,0.12546 -0.150546,0.45163 0.150545,1.05382 0,1.50545 -0.01871,0.0561 -0.106754,0.0693 -0.125455,0.12546 -0.01288,0.0386 -0.112572,0.46317 -0.125455,0.50181 -0.04838,0.14515 0.06741,0.36701 0,0.50182 -0.02646,0.0529 -0.106754,0.0694 -0.125455,0.12545 -0.05289,0.15869 0.0529,0.34313 0,0.50182 -0.01871,0.0561 -0.08364,0.0836 -0.125455,0.12546 -0.04182,0.12545 -0.09338,0.24807 -0.125454,0.37636 -0.04845,0.19381 0.06294,0.43845 0,0.62727 -0.01871,0.0561 -0.106752,0.0694 -0.125453,0.12546 -0.03764,0.11291 0.03764,0.26345 0,0.37636 -0.02957,0.0887 -0.102777,0.16019 -0.125454,0.25091 -0.09568,0.38271 0.06108,0.5051 -0.125455,0.87818 -0.117092,0.23418 0.117091,0.644 0,0.87818 -0.188677,0.37736 -0.019,0.55885 -0.125455,0.87818 -0.01871,0.0561 -0.09901,0.0726 -0.125455,0.12546 -0.134051,0.2681 0,1.51143 0,1.88181 0,0.14374 0.05685,0.51358 0,0.62728 -0.01871,0.0374 -0.106751,-0.0374 -0.125455,0 -0.07176,0.14352 -0.08427,1.21145 0,1.37999 0.01871,0.0374 0.09589,-0.0296 0.125455,0 0.06273,0.0627 -0.06273,0.31364 0,0.37637 0.02957,0.0296 0.09588,-0.0296 0.125455,0 0.06273,0.0627 -0.06273,0.31363 0,0.37636 0.02957,0.0296 0.09589,-0.0296 0.125455,0 0.04182,0.0418 -0.08364,0.0836 -0.125455,0.12545 -0.06273,0.0627 0.06273,0.31364 0,0.37637 -0.167272,0.16727 -0.125455,-0.20909 -0.125455,0.12545 0,0.1205 0.272047,0.48068 0.125455,0.62728 -0.124561,0.12456 -0.495186,0.12213 -0.752726,0.25091 -0.167273,0.0836 -0.46,-0.0836 -0.627272,0 -0.0529,0.0265 -0.08364,0.0836 -0.125455,0.12545 -0.08364,0 -0.171564,-0.0265 -0.250909,0 -0.273304,-0.0469 -0.04182,0.20909 -0.125455,0.25091 -0.07481,0.0374 -0.171564,-0.0265 -0.250907,0 -0.258599,0.0862 -0.499311,0.37511 -0.752729,0.50181 -0.07603,0.038 -0.323792,0.0729 -0.376362,0.12546 -0.05914,0.0591 0.0374,0.1761 0,0.25091 -0.09148,0.18296 -0.200695,0.20069 -0.25091,0.25091 -0.02957,0.0296 0.02957,0.0959 0,0.12545 -0.02957,0.0296 -0.09589,-0.0296 -0.125455,0 -0.04182,0.0418 -0.08363,0.33455 -0.125452,0.37636 -0.02957,0.0296 -0.09588,-0.0296 -0.125455,0 -0.06628,0.0663 -0.310089,0.561 -0.376364,0.62728 -0.02957,0.0296 -0.09588,-0.0296 -0.125455,0 -0.05914,0.0591 0.05914,0.19177 0,0.25091 -0.1528,0.1528 -0.280292,0.0588 -0.376362,0.25091 -0.0048,0.01 -0.243649,0.3691 -0.25091,0.37636 -0.06612,0.0661 -0.19904,0.0477 -0.250909,0.12545 -0.0098,0.0147 -0.193432,1.1396 -0.250907,1.25455 -0.08046,0.16091 -0.320686,0.33478 -0.376365,0.50181 -0.06856,0.20568 0.09654,0.55965 0,0.75273 -0.01871,0.0374 -0.106751,-0.0374 -0.125455,0 -0.0748,0.14961 0.07481,0.35221 0,0.50182 -0.01871,0.0374 -0.09588,-0.0296 -0.125454,0 -0.07958,0.0796 0.05223,0.39736 0,0.50182 -0.125027,0.25005 -0.125881,0.50267 -0.250907,0.75272 -0.09968,0.19936 0.05523,0.5318 0,0.75273 -0.04536,0.18143 -0.214234,0.31843 -0.25091,0.50182 -0.06247,0.31232 -0.03202,2.60252 0.125455,2.75999 0.02957,0.0296 0.09589,-0.0296 0.125455,0 0.265562,0.26557 0.235267,0.72145 0.376361,1.00364 0.04182,0.0836 0.209093,0.0418 0.25091,0.12546 0.0374,0.0748 -0.02646,0.17156 0,0.2509 0.01434,0.043 0.347694,0.47315 0.376365,0.50182 0.09351,0.0935 0.282852,0.0319 0.376361,0.12546 0.06273,0.0627 0.06273,0.18818 0.125455,0.2509 0.02957,0.0296 0.08805,-0.0187 0.125455,0 0.04456,0.0223 0.609783,0.48433 0.627272,0.50182 0.259569,0.25957 -0.396658,-0.0102 0.125454,0.25091 0.141124,0.0706 0.933136,0.43132 1.003636,0.50182 0.02957,0.0296 -0.02957,0.0959 0,0.12545 0.08245,0.0825 0.178933,0 -0.250909,0 -0.401458,0 -0.123658,0.0618 -0.25091,0.12546 -0.07785,0.0389 -0.390662,0 -0.501817,0 -0.130346,0 -0.741828,0.08 -0.878181,0.12545 -0.05611,0.0187 -0.06935,0.10675 -0.125455,0.12546 -0.191632,0.0639 -0.567801,-0.037 -0.752726,0 -0.317526,0.0635 -0.811808,0.25091 -1.129091,0.25091 -0.847203,0 -0.992952,0.06 -1.756359,0.2509 -0.199729,0.0499 -0.566955,-0.0929 -0.752729,0 -0.386014,0.19301 -0.874245,0.31167 -1.254543,0.50182 -0.149614,0.0748 -0.343131,-0.0529 -0.501817,0 -0.03967,0.0132 0.02957,0.0959 0,0.12546 -0.04418,0.0442 -0.474737,0.0492 -0.627274,0.12545 -0.19244,0.0962 -0.761011,0.57697 -0.878181,0.75273 -0.177666,0.26649 0.280828,-0.02 -0.125453,0.2509 -0.07781,0.0519 -0.18479,0.0593 -0.250909,0.12546 -0.299196,0.2992 -0.15916,1.013 -0.25091,1.38 -0.316886,1.26754 0.0453,-0.0906 -0.25091,0.50182 -0.03969,0.0794 -0.05306,0.91078 0,1.00363 0.2642,0.46235 0.816854,0.85774 1.254546,1.00364 0.03967,0.0132 0.08364,0 0.125455,0 0.125455,0.0418 0.258082,0.0663 0.376362,0.12545 0.0529,0.0265 0.06808,0.11111 0.125455,0.12546 0.162279,0.0406 0.352205,-0.0748 0.501819,0 0.105791,0.0529 0.145116,0.19801 0.250907,0.25091 0.256013,0.128 1.097566,0.13793 1.38,0.25091 0.03882,0.0155 -0.0374,0.10675 0,0.12545 0.11221,0.0561 0.287653,-0.0887 0.376362,0 0.02957,0.0296 -0.0374,0.10675 0,0.12545 0.183314,0.0917 0.549365,-0.0407 0.752727,0 0.596405,0.11928 1.141719,0.12546 1.756362,0.12546 1.459357,0 2.939931,0.0655 4.265451,-0.37636 0.230206,-0.0767 0.47021,-0.0313 0.752726,-0.12546 0.430779,-0.14359 1.383893,0.18623 1.756363,0 0.574156,-0.28708 -0.532355,0.052 0.376362,-0.25091 0.14215,-0.0474 0.368879,0.0665 0.501819,0 0.165743,-0.0829 1.127464,-0.37474 1.129088,-0.37636 0.02957,-0.0296 -0.02957,-0.0959 0,-0.12546 0.126481,-0.12648 0.444442,0.0574 0.627274,-0.12545"
       id="path5947" />
    <path
       style="fill:none;stroke:#000000;stroke-width:0.264583px;stroke-linecap:butt;stroke-linejoin:miter;stroke-opacity:1"
       d="m 55.325404,161.20894 c 0.09011,0.26767 0.147941,0.77521 0.376361,1.00363 0.25957,0.25957 -0.01016,-0.39665 0.25091,0.12546 0.148066,0.29613 0.17453,0.50726 0.501817,0.75272 0.105793,0.0793 0.282855,0.0319 0.376364,0.12546 0.09345,0.0935 0.180023,0.43093 0.250907,0.50182 0.02957,0.0296 0.08805,-0.0187 0.125455,0 0.178054,0.089 0.466918,0.38155 0.627274,0.50182 0.37981,-0.30958 0.215789,0.34124 0.250907,0.37636 0.02957,0.0296 0.09588,-0.0296 0.125455,0 0.02957,0.0296 -0.02957,0.0959 0,0.12545 0.05914,0.0591 0.19177,-0.0591 0.25091,0 0.06612,0.0661 0.04765,0.19904 0.125455,0.25091 0.109698,0.0731 0.486841,0.0552 0.627271,0.12546 0.329046,0.16452 0.671801,0.46135 1.003636,0.62727 0.109673,0.0548 0.39588,-0.0265 0.501817,0 0.167272,0.0418 0.631454,0.25509 0.752726,0.37636 0.02957,0.0296 -0.0374,0.10675 0,0.12546 0.149614,0.0748 0.34313,-0.0529 0.501819,0 0.05611,0.0187 0.08364,0.0836 0.125453,0.12545 0.08364,0.0418 0.160194,0.10278 0.250909,0.12545 0.08114,0.0203 0.16977,-0.0203 0.25091,0 0.227065,-0.0756 0.233323,0.20323 0.376362,0.25091 0.07935,0.0265 0.176104,-0.0374 0.250909,0 0.0374,0.0187 -0.02957,0.0959 0,0.12546 0.03748,0.0375 0.485667,-0.004 0.501817,0 0.428612,0.10715 0.63767,0.29446 1.129091,0.37636 0.389448,0.0649 0.855303,0 1.254543,0 0.832162,0 -0.177419,-0.0591 0.376365,0.12546 0.618336,0.20611 2.042154,-0.11964 2.759998,0 0.31134,0.0519 0.752266,0.12522 1.003633,0.25091 0.192961,0.0965 1.495108,0 1.756363,0 0.963713,0 2.115581,0.17298 3.010908,-0.12546 0.336793,-0.11226 0.727813,0.008 1.129088,-0.12545 0.42124,-0.14042 2.083154,0 2.634543,0 0.594098,0 1.053711,-0.16846 1.630908,-0.25091 0.165592,-0.0237 0.33954,0.0406 0.501817,0 0.04057,-0.0101 -0.02957,-0.0959 0,-0.12546 0.02551,-0.0255 1.462444,-0.15293 1.756362,-0.25091 0.07656,-0.0255 0.299805,-0.22538 0.376364,-0.25091 0.156552,-0.0522 0.620242,-0.11842 0.752727,-0.2509 0.06612,-0.0661 0.04765,-0.19904 0.125455,-0.25091 0.06959,-0.0464 0.171563,0.0265 0.250907,0 0.112209,-0.0374 0.145118,-0.19802 0.250909,-0.25091 0.0374,-0.0187 0.09588,0.0296 0.125455,0 0.167272,-0.16727 -0.266128,-0.12038 0.125455,-0.25091 0.213376,-0.0711 0.371306,0.0101 0.501817,-0.25091 0.01871,-0.0374 -0.02957,-0.0959 0,-0.12545 0.04182,-0.0418 0.334547,-0.0836 0.376364,-0.12546 0.02957,-0.0296 -0.02957,-0.0959 0,-0.12545 0.25957,-0.25957 -0.01013,0.39666 0.250907,-0.12546 0.01871,-0.0374 -0.02957,-0.0959 0,-0.12545 0.06612,-0.0661 0.18479,-0.0593 0.25091,-0.12545 0.02957,-0.0296 -0.02957,-0.0959 0,-0.12546 0.04182,-0.0418 0.334544,-0.0836 0.376364,-0.12545 0.02957,-0.0296 -0.02957,-0.0959 0,-0.12546 0.06273,-0.0627 0.18818,-0.0627 0.250907,-0.12545 0.06273,-0.0627 0.06273,-0.18818 0.125455,-0.25091 0.05914,-0.0591 0.19177,0.0591 0.25091,0 0.02957,-0.0296 -0.02957,-0.0959 0,-0.12546 0.02957,-0.0296 0.09589,0.0296 0.125455,0 0.259569,-0.25957 -0.396658,0.0102 0.125454,-0.25091 0.160367,-0.0802 0.250907,0.13524 0.250907,-0.12545 0.08217,-0.0374 0.150976,-0.0348 0.233214,-0.0348"
       id="path5949" />
    <path
       style="fill:#008000;fill-opacity:0.857143;stroke:#000000;stroke-width:0.474158;stroke-opacity:1"
       d="m 318.39741,571.00905 c -6.74951,-10.42128 -19.95905,-18.36131 -35.81616,-21.5285 -5.94036,-1.18648 -19.6298,-1.18648 -25.57016,0 -12.3039,2.45749 -22.17335,7.2633 -29.80621,14.51377 -1.94992,1.85224 -4.36074,4.55167 -5.35737,5.99874 -0.99664,1.44707 -1.88455,2.41359 -1.97314,2.14783 -0.0886,-0.26577 0.0821,-2.47032 0.37933,-4.899 0.86393,-7.05963 1.14657,-28.32212 0.489,-36.78777 -1.62934,-20.97659 -6.8457,-40.90661 -13.52447,-51.6726 -0.68757,-1.10835 -1.1574,-2.01518 -1.04408,-2.01518 0.11333,0 0.95195,0.31166 1.8636,0.69257 0.91165,0.38091 3.09821,0.92272 4.85902,1.20401 1.76082,0.28129 3.80741,0.82477 4.54798,1.20774 1.32262,0.68395 15.47119,4.05436 21.05696,5.01608 1.56472,0.26941 4.33855,0.88853 6.16406,1.37583 1.82551,0.4873 4.81271,1.02969 6.63822,1.2053 1.82551,0.17561 3.53248,0.48562 3.79327,0.68889 0.26079,0.20328 4.10147,0.61043 8.53485,0.90479 4.43338,0.29436 11.04789,0.7409 14.69891,0.99232 7.73086,0.53236 22.51293,0.65454 27.97535,0.23124 4.57921,-0.35487 11.07203,-1.47268 13.98768,-2.40815 1.17354,-0.37652 4.4808,-1.20782 7.34945,-1.84734 2.86866,-0.63951 5.69668,-1.3035 6.28448,-1.47553 0.98207,-0.28743 0.91416,-0.0487 -0.8374,2.94357 -9.59324,16.38873 -15.09455,51.11722 -12.79106,80.74704 0.25197,3.24101 0.40715,5.93011 0.34486,5.97579 -0.0623,0.0457 -1.07342,-1.39948 -2.24697,-3.21144 z"
       id="path6020"
       transform="scale(0.26458333)" />
    <path
       style="fill:#008000;fill-opacity:0.857143;stroke:#000000;stroke-width:0.474158;stroke-opacity:1"
       d="m 346.22855,631.38331 c -6.19695,-2.4959 -11.56733,-9.75861 -16.32945,-22.08336 -1.88849,-4.88756 -5.33763,-18.14718 -5.33763,-20.51961 0,-0.87438 -0.41685,-3.65785 -0.92634,-6.18548 -3.53657,-17.54528 -2.95339,-44.84279 1.42355,-66.6331 3.04415,-15.15517 10.10258,-32.04166 13.72755,-32.84164 1.36462,-0.30115 7.45675,-2.16735 11.61688,-3.5586 1.56472,-0.52328 3.44852,-1.044 4.18621,-1.15715 0.7377,-0.11315 1.56204,-0.34217 1.83187,-0.50893 0.80755,-0.4991 6.63524,6.01411 8.80681,9.84276 11.76614,20.7447 16.44971,59.44577 11.43973,94.5284 -1.84962,12.95205 -5.04359,24.55472 -9.13975,33.2018 -6.12454,12.92904 -14.0359,18.8404 -21.29943,15.91491 z"
       id="path6022"
       transform="scale(0.26458333)" />
    <path
       style="fill:#008000;fill-opacity:0.857143;stroke:#000000;stroke-width:0.474158;stroke-opacity:1"
       d="m 271.92988,632.2833 c 17.09956,-0.96574 30.4786,-6.14397 40.52101,-15.68328 5.49335,-5.21815 9.45082,-11.72806 11.21548,-18.44911 l 0.56022,-2.13371 0.66141,2.60787 c 0.9388,3.70159 3.38447,11.12057 4.75854,14.43512 l 1.16832,2.81824 -1.11152,0.81019 c -0.61133,0.4456 -1.67141,1.31111 -2.35573,1.92335 -0.68431,0.61223 -2.15439,1.85995 -3.26683,2.77271 -1.11244,0.91275 -2.36028,2.03295 -2.77298,2.48933 -0.41269,0.45638 -0.98992,0.82978 -1.28272,0.82978 -0.29281,0 -0.91857,0.42674 -1.39059,0.94831 -0.47202,0.52158 -1.1452,0.94832 -1.49596,0.94832 -0.35076,0 -0.63775,0.21865 -0.63775,0.48589 0,0.26725 -0.58677,0.69839 -1.30394,0.95811 -0.71716,0.25971 -1.73067,0.68185 -2.25225,0.93808 -0.52157,0.25624 -3.40209,0.91828 -6.40114,1.47122 -5.78605,1.06677 -15.86746,1.70937 -31.76862,2.02496 -9.14422,0.18149 -9.31281,0.16991 -2.84495,-0.19538 z"
       id="path6024"
       transform="scale(0.26458333)" />
    <path
       style="fill:#008000;fill-opacity:0.857143;stroke:#000000;stroke-width:0.474158;stroke-opacity:1"
       d="m 247.7478,631.36545 c -2.21669,-0.16525 -4.4964,-0.55819 -5.06603,-0.87319 -0.56963,-0.315 -1.42311,-0.57404 -1.89663,-0.57565 -0.47353,-0.002 -1.47211,-0.32166 -2.21909,-0.71124 -0.74697,-0.38957 -1.6567,-0.70832 -2.02161,-0.70832 -0.36491,0 -1.03397,-0.19808 -1.48681,-0.44018 -2.46377,-1.31722 -5.28314,-2.40477 -6.23414,-2.40477 -0.59457,0 -1.6913,-0.43455 -2.43719,-0.96567 -0.74589,-0.53112 -2.04272,-1.20501 -2.88184,-1.49753 -1.79383,-0.62533 -3.25785,-1.78408 -3.25785,-2.57854 0,-0.30996 -0.95032,-1.0236 -2.11182,-1.58588 -1.1615,-0.56227 -2.23246,-1.40241 -2.37991,-1.86697 -0.14744,-0.46457 -0.78715,-1.08116 -1.42156,-1.37022 -0.63441,-0.28906 -1.48927,-1.17492 -1.89969,-1.96859 -0.41043,-0.79367 -0.92516,-1.44303 -1.14387,-1.44303 -0.2187,0 -0.70784,-0.80015 -1.08698,-1.7781 -0.64938,-1.675 -0.61665,-1.94304 0.56445,-4.62304 1.03274,-2.34336 2.33214,-5.8461 4.13358,-11.14273 0.13305,-0.39118 0.55342,0.77899 0.93416,2.60037 3.29905,15.78189 19.09185,29.08268 39.66341,33.40474 l 4.34046,0.91192 -4.03034,-0.0415 c -2.2167,-0.0228 -5.84401,-0.17667 -8.0607,-0.34193 z"
       id="path6026"
       transform="scale(0.26458333)" />
    <path
       style="fill:#008000;fill-opacity:0.857143;stroke:#000000;stroke-width:0.474158;stroke-opacity:1"
       d="m 186.58136,623.49482 c -10.65006,-3.33801 -20.36846,-23.51384 -24.19567,-50.23128 -3.16211,-22.07435 -2.35386,-46.70794 2.20063,-67.07035 2.71365,-12.13233 7.58532,-23.99122 12.52775,-30.49574 2.39034,-3.14581 6.77301,-6.77354 8.7968,-7.28148 1.08159,-0.27146 6.65321,2.08533 8.67447,3.66928 0.62078,0.48647 2.58562,1.31839 4.36633,1.84871 3.63303,1.08196 4.16493,1.50431 6.50862,5.16809 4.70186,7.35019 9.30433,21.07029 11.70259,34.88573 3.59015,20.68154 3.27814,50.54549 -0.69601,66.61927 -0.48358,1.9559 -1.02328,4.51636 -1.19933,5.6899 -0.45147,3.00954 -2.90405,11.38225 -4.54186,15.50521 -4.692,11.81141 -10.88613,19.64174 -17.13357,21.65944 -2.83741,0.91638 -4.17279,0.92271 -7.01075,0.0332 z"
       id="path6028"
       transform="scale(0.26458333)" />
    <path
       style="fill:#008000;fill-opacity:0.857143;stroke:#000000;stroke-width:0.474158;stroke-opacity:1"
       d="m 126.12615,634.68054 c -1.30393,-0.21563 -2.97145,-0.62826 -3.70559,-0.91697 -0.73414,-0.28871 -1.87476,-0.52493 -2.53472,-0.52493 -0.65994,0 -1.76625,-0.29928 -2.45846,-0.66508 -0.6922,-0.36579 -2.41835,-1.01078 -3.83587,-1.4333 -1.41752,-0.42253 -3.30895,-1.32627 -4.20316,-2.00833 -1.50958,-1.15141 -1.60497,-1.37953 -1.33382,-3.18974 0.16062,-1.0723 0.4789,-3.25824 0.70729,-4.85764 0.36629,-2.56515 0.68296,-3.19165 2.68599,-5.31391 1.3881,-1.47073 2.83911,-2.52509 3.73296,-2.7125 0.80422,-0.16862 3.0625,-0.79855 5.0184,-1.39984 1.95591,-0.60129 5.36985,-1.33105 7.58654,-1.6217 5.49509,-0.7205 10.20289,-1.42148 13.03936,-1.94153 1.30393,-0.23906 3.3843,-0.56034 4.62304,-0.71396 2.75301,-0.34139 3.12745,-1.64025 0.75603,-2.62253 -0.82292,-0.34086 -2.07005,-1.16689 -2.77138,-1.83562 -2.01749,-1.92367 -3.63196,-3.22998 -4.69529,-3.79905 -0.54078,-0.28942 -1.11557,-1.05348 -1.27732,-1.69792 -0.16174,-0.64444 -0.46777,-1.17171 -0.68006,-1.17171 -0.21229,0 -0.64288,-0.80014 -0.95686,-1.7781 -0.31398,-0.97795 -0.87857,-2.13109 -1.25464,-2.56254 -1.21189,-1.39036 -0.44505,-10.94733 1.46439,-18.25033 0.41896,-1.60237 0.76174,-3.54993 0.76174,-4.32791 0,-0.77798 0.30536,-1.66794 0.67859,-1.97769 0.37322,-0.30975 0.91057,-1.64487 1.1941,-2.96695 0.38628,-1.80117 0.98879,-2.86306 2.40344,-4.23593 1.03836,-1.0077 1.88843,-1.99244 1.88904,-2.18832 6.1e-4,-0.19588 0.64355,-1.10295 1.42876,-2.0157 0.7852,-0.91276 1.69027,-2.24633 2.01127,-2.96349 0.32099,-0.71717 0.79825,-1.30868 1.06057,-1.31448 0.26233,-0.006 1.01038,-0.4278 1.66235,-0.93777 0.65197,-0.50998 1.54101,-0.93198 1.97566,-0.93778 0.43464,-0.006 0.86139,-0.21975 0.94832,-0.47545 0.0869,-0.2557 1.33159,-0.68605 2.76592,-0.95633 1.43433,-0.27027 2.94812,-0.59835 3.36399,-0.72906 0.66498,-0.209 0.79328,0.77787 1.06439,8.18725 0.83528,22.82746 6.19759,44.78928 14.05327,57.5564 1.4092,2.29023 1.41302,2.31469 0.36177,2.31645 -4.28722,0.007 -7.06531,6.19833 -5.797,12.91904 0.31825,1.68641 0.27171,1.7781 -0.90261,1.7781 -0.68099,0 -1.23816,0.17929 -1.23816,0.39843 0,0.21913 -1.22689,0.6587 -2.72642,0.97682 -1.49952,0.31812 -3.38167,0.77894 -4.18255,1.02405 -0.80087,0.24511 -2.8279,0.44898 -4.5045,0.45306 -1.6766,0.004 -4.3286,0.33964 -5.89332,0.74571 -3.27644,0.85029 -18.46921,1.31985 -22.28545,0.68878 z"
       id="path6030"
       transform="scale(0.26458333)" />
    <path
       style="fill:#008000;fill-opacity:0.857143;stroke:#000000;stroke-width:0.474158;stroke-opacity:1"
       d="m 158.49842,538.87958 c -0.70942,-2.58371 0.89198,-20.99048 2.47499,-28.44799 0.24911,-1.17354 0.79623,-3.73399 1.21582,-5.6899 0.41959,-1.9559 0.93745,-5.26316 1.15079,-7.34945 0.21335,-2.0863 0.63205,-4.75344 0.93045,-5.92698 1.3634,-5.3619 1.92207,-8.48152 1.92207,-10.73273 0,-1.33942 0.31875,-3.04647 0.70832,-3.79345 0.38958,-0.74697 0.70963,-1.93101 0.71124,-2.6312 0.002,-0.70019 0.21939,-1.84243 0.48397,-2.53832 0.26457,-0.69589 0.79404,-3.34915 1.17659,-5.89613 0.6666,-4.43814 1.08005,-6.17679 1.46885,-6.17679 0.099,0 2.26327,0.9884 4.80939,2.19645 2.54613,1.20806 5.26943,2.49879 6.05179,2.86829 2.20142,1.03973 3.42832,2.11559 2.71639,2.38198 -0.33151,0.12404 -1.86812,1.17674 -3.41471,2.33933 -11.36181,8.54083 -19.84545,33.79516 -21.72003,64.65683 -0.21825,3.59312 -0.48835,5.45961 -0.68592,4.74006 z"
       id="path6032"
       transform="scale(0.26458333)" />
    <path
       style="fill:#008000;fill-opacity:0.857143;stroke:#000000;stroke-width:0.474158;stroke-opacity:1"
       d="m 195.74829,470.78154 c -1.78197,-0.94456 -3.66083,-2.01142 -4.17523,-2.3708 -0.90301,-0.63086 -0.89482,-0.65305 0.23708,-0.64299 1.57789,0.014 4.56073,1.43636 6.80892,3.24679 2.48674,2.00254 1.1406,1.89328 -2.87077,-0.233 z"
       id="path6034"
       transform="scale(0.26458333)" />
    <path
       style="fill:#008000;fill-opacity:0.857143;stroke:#000000;stroke-width:0.474158;stroke-opacity:1"
       d=""
       id="path6036"
       transform="scale(0.26458333)" />
    <path
       style="fill:#008000;fill-opacity:0.857143;stroke:#000000;stroke-width:0.474158;stroke-opacity:1"
       d="m 341.15702,479.55574 c 3.79611,-3.29273 8.78393,-4.67922 12.22356,-3.39785 0.91838,0.34213 0.49078,0.59331 -2.84495,1.67119 -11.74105,3.79392 -11.76752,3.79879 -9.37861,1.72666 z"
       id="path6038"
       transform="scale(0.26458333)" />
    <path
       style="fill:#008000;fill-opacity:0.857143;stroke:#000000;stroke-width:0.474158;stroke-opacity:1"
       d="m 377.02731,517.76506 c -0.41707,-3.04285 -2.85936,-12.56689 -4.37316,-17.05371 -3.24109,-9.60644 -7.89175,-17.94016 -12.25706,-21.96397 -1.87641,-1.72961 -2.01423,-1.98104 -1.08589,-1.98104 0.5848,0 1.85949,-0.42674 2.83264,-0.94831 0.97314,-0.52158 2.25608,-0.94832 2.85096,-0.94832 0.59489,0 1.55637,-0.33253 2.13663,-0.73896 1.00281,-0.7024 1.0803,-0.67307 1.56599,0.5927 0.28103,0.73241 0.94266,3.252 1.47027,5.59908 0.52761,2.34709 1.22884,4.90754 1.55827,5.6899 0.32944,0.78237 0.9744,2.59602 1.43324,4.03035 0.45884,1.43433 1.02074,3.098 1.24866,3.69704 0.22793,0.59904 0.41441,1.63313 0.41441,2.29798 0,0.66485 0.51603,3.90872 1.14672,7.20861 0.9728,5.08982 2.02483,16.66835 1.5145,16.66835 -0.0888,0 -0.29412,-0.96736 -0.45618,-2.1497 z"
       id="path6040"
       transform="scale(0.26458333)" />
    <path
       style="fill:#008000;fill-opacity:0.857143;stroke:#000000;stroke-width:0.474158;stroke-opacity:1"
       d="m 404.67786,634.97035 c -0.26497,-0.27493 -14.33972,-1.4579 -23.65164,-1.98791 -2.97711,-0.16944 -5.6757,-0.40892 -5.99686,-0.53216 -0.35957,-0.13798 -0.59599,-1.23366 -0.61532,-2.85158 -0.0569,-4.76029 -2.92651,-8.68178 -6.35651,-8.68641 l -1.31193,-0.002 1.1703,-2.30948 c 7.29849,-14.40287 11.42885,-34.32718 11.97732,-57.77706 l 0.27972,-11.95946 1.32392,0.78206 c 0.95802,0.56591 1.49632,0.64293 1.94771,0.27867 0.71885,-0.58009 5.38434,-0.0682 6.93314,0.76069 0.53777,0.28781 1.37846,0.52328 1.86819,0.52328 1.14099,0 4.86182,1.78738 4.86182,2.33548 0,0.22919 0.60229,0.62666 1.33841,0.88328 0.81295,0.28339 1.9493,1.41854 2.89438,2.89133 0.85579,1.33362 1.76624,2.42477 2.02323,2.42477 0.8191,0 2.22511,2.01958 4.29134,6.16406 l 2.00933,4.03034 0.15985,7.34946 c 0.15592,7.16892 -0.21252,9.9941 -1.82417,13.98767 -0.83282,2.06365 -1.4092,4.22592 -1.4092,5.2865 0,0.61306 -0.19899,1.11464 -0.44221,1.11464 -0.24321,0 -0.59079,0.48009 -0.77239,1.06686 -0.34992,1.13063 -5.88687,6.70624 -7.1356,7.18542 -1.15681,0.44391 -0.49439,1.45572 1.03731,1.58443 2.62207,0.22032 6.60506,1.15993 8.49829,2.00479 1.04314,0.46551 3.92366,1.20716 6.40114,1.64811 2.47747,0.44096 4.93124,0.97158 5.45282,1.17916 5.20012,2.06961 6.42968,2.47015 9.72025,3.16648 4.12208,0.87229 9.81706,3.82679 10.18243,5.28254 0.15155,0.60381 0.80301,1.29838 1.44769,1.54349 0.64469,0.24511 1.17216,0.78623 1.17216,1.20249 0,0.41627 0.32005,1.0769 0.71123,1.46808 1.0984,1.0984 0.94139,4.97727 -0.2425,5.99095 -0.52455,0.44914 -1.16467,0.81661 -1.42247,0.81661 -0.25781,0 -0.46874,0.20335 -0.46874,0.45188 0,0.55884 -3.05149,1.43855 -5.00237,1.44211 -0.7954,10e-4 -1.70794,0.2644 -2.02785,0.58432 -0.42492,0.42491 -4.37982,0.6298 -14.67521,0.76028 -7.75144,0.0982 -14.2076,0.0602 -14.34701,-0.0844 z"
       id="path6042"
       transform="scale(0.26458333)" />
    <path
       style="fill:#008000;fill-opacity:0.857143;stroke:#000000;stroke-width:0.474158;stroke-opacity:1"
       d="m 365.05839,636.30696 c -4.40329,-4.66884 -1.48411,-15.11474 3.8498,-13.77602 1.49811,0.376 3.52144,3.09325 3.86088,5.18501 0.14975,0.92282 0.12405,2.86425 -0.0571,4.31429 -0.25899,2.0729 -0.6634,2.99058 -1.89194,4.29321 -2.0818,2.20736 -3.66855,2.20282 -5.76162,-0.0165 z"
       id="path6044"
       transform="scale(0.26458333)" />
    <path
       style="fill:#008000;fill-opacity:0.857143;stroke:#000000;stroke-width:0.474158;stroke-opacity:1"
       d="m 347.98868,648.16093 c -4.40329,-4.66885 -1.4841,-15.11475 3.84981,-13.77603 1.88754,0.47375 3.67906,3.3146 3.91962,6.21542 0.30746,3.70751 -0.20986,5.67072 -1.99225,7.56061 -2.09812,2.22465 -3.67906,2.22465 -5.77718,0 z"
       id="path6046"
       transform="scale(0.26458333)" />
    <path
       style="fill:#008000;fill-opacity:0.857143;stroke:#000000;stroke-width:0.474158;stroke-opacity:1"
       d="m 333.33778,640.7439 c -1.68689,-1.3269 -3.06276,-4.37721 -3.07599,-6.81946 -0.0198,-3.64567 2.85615,-7.79818 5.40077,-7.79818 2.14783,0 4.99948,4.46251 4.99948,7.82362 0,3.51297 -2.86229,7.82361 -5.19492,7.82361 -0.45124,0 -1.40944,-0.46331 -2.12934,-1.02959 z"
       id="path6048"
       transform="scale(0.26458333)" />
    <path
       style="fill:#008000;fill-opacity:0.857143;stroke:#000000;stroke-width:0.474158;stroke-opacity:1"
       d="m 202.42203,632.5137 c -4.40329,-4.66885 -1.48411,-15.11475 3.8498,-13.77603 1.88755,0.47375 3.67907,3.3146 3.91963,6.21542 0.30746,3.70751 -0.20986,5.67072 -1.99225,7.56061 -2.09812,2.22465 -3.67906,2.22465 -5.77718,0 z"
       id="path6050"
       transform="scale(0.26458333)" />
    <path
       style="fill:#008000;fill-opacity:0.857143;stroke:#000000;stroke-width:0.474158;stroke-opacity:1"
       d="m 187.72312,639.62607 c -4.40329,-4.66884 -1.48411,-15.11474 3.8498,-13.77602 1.88755,0.47374 3.67907,3.31459 3.91963,6.21542 0.30745,3.70751 -0.20986,5.67071 -1.99226,7.5606 -2.09812,2.22466 -3.67905,2.22466 -5.77717,0 z"
       id="path6052"
       transform="scale(0.26458333)" />
    <path
       style="fill:#008000;fill-opacity:0.857143;stroke:#000000;stroke-width:0.474158;stroke-opacity:1"
       d="m 171.12757,631.09122 c -4.40329,-4.66884 -1.4841,-15.11475 3.84981,-13.77602 1.88754,0.47374 3.67906,3.31459 3.91962,6.21542 0.30746,3.7075 -0.20986,5.67071 -1.99225,7.5606 -2.09812,2.22466 -3.67906,2.22466 -5.77718,0 z"
       id="path6054"
       transform="scale(0.26458333)" />
    <path
       style="fill:#008000;fill-opacity:0.857143;stroke:#000000;stroke-width:0.474158;stroke-opacity:1"
       d="m 187.52661,623.31244 c -8.80215,-2.67749 -16.90092,-15.90484 -21.77758,-35.5683 -5.12384,-20.66013 -6.15632,-46.27152 -2.8109,-69.72601 2.44137,-17.11623 8.41015,-34.07664 14.90427,-42.35083 2.56358,-3.26626 6.88764,-6.60603 8.55294,-6.60603 0.6767,0 3.39581,1.08025 6.04247,2.40056 2.64666,1.3203 6.00459,2.84303 7.46207,3.38384 3.20995,1.19107 4.64533,3.00113 8.00811,10.09845 5.19151,10.95696 8.76385,25.34735 10.50575,42.3201 0.90236,8.7924 0.76378,31.73934 -0.24196,40.06639 -1.69568,14.03944 -5.86841,30.34539 -9.9858,39.02196 -5.76792,12.15474 -14.06477,18.96586 -20.65937,16.95987 z"
       id="path6056"
       transform="scale(0.26458333)" />
    <path
       style="fill:#008000;fill-opacity:0.857143;stroke:#000000;stroke-width:0.474158;stroke-opacity:1"
       d="m 284.02092,488.6138 c -16.49316,-0.76626 -26.25819,-1.41746 -27.32787,-1.82239 -0.6169,-0.23352 -2.96694,-0.66942 -5.22233,-0.96865 -2.25538,-0.29923 -5.13589,-0.84109 -6.40114,-1.20415 -1.26524,-0.36305 -3.26061,-0.80557 -4.43416,-0.98337 -3.62247,-0.54886 -18.06035,-3.97354 -21.81129,-5.17367 -1.9559,-0.6258 -4.4535,-1.26424 -5.55024,-1.41875 -4.35779,-0.61394 -8.77491,-2.69637 -11.75654,-5.54255 -3.89641,-3.7194 -7.19558,-5.31763 -11.14272,-5.39792 -2.38063,-0.0484 -3.56761,-0.34358 -5.21575,-1.29695 -1.78689,-1.03365 -15.29532,-7.45245 -20.15173,-9.57551 -0.78236,-0.34202 -2.48933,-1.44166 -3.79327,-2.44365 -1.30394,-1.00198 -5.14462,-3.23524 -8.53485,-4.9628 -3.39024,-1.72755 -8.54935,-4.72369 -11.4647,-6.65809 -2.91535,-1.9344 -8.76845,-5.75748 -13.00688,-8.49574 -9.34439,-6.037 -15.00147,-11.11532 -16.55356,-14.86002 -0.99371,-2.39751 -1.15159,-2.53711 -3.73758,-3.30479 -1.48503,-0.44084 -3.07139,-0.80153 -3.52526,-0.80153 -0.45386,0 -1.66169,-0.42675 -2.68406,-0.94832 -1.02237,-0.52157 -2.197717,-0.94832 -2.611885,-0.94832 -0.706305,0 -2.447601,-0.77452 -5.620167,-2.49983 -0.746215,-0.40581 -2.579857,-2.11569 -4.074759,-3.79974 l -2.718004,-3.06191 -0.278473,-4.29828 c -0.15316,-2.36405 -0.535558,-4.77864 -0.849773,-5.36576 -0.681007,-1.27248 -0.334058,-8.47386 0.539679,-11.20175 0.313295,-0.97813 1.960541,-4.61067 3.660548,-8.07229 2.193723,-4.46696 3.635306,-6.7857 4.966371,-7.98823 3.125316,-2.82354 4.221503,-3.0797 11.659253,-2.72465 6.36436,0.30381 6.60027,0.28087 7.6223,-0.74116 0.59425,-0.59425 0.9344,-1.36809 0.77918,-1.7726 -0.15152,-0.39485 0.0659,-2.03198 0.48312,-3.63806 0.41723,-1.60608 0.75083,-3.66695 0.74133,-4.5797 -0.0536,-5.14825 2.00984,-17.60648 3.3223,-20.05882 0.25831,-0.48266 0.75141,-1.87456 1.09577,-3.09311 2.23816,-7.91982 5.21491,-12.17663 15.95195,-22.81159 8.20545,-8.12744 9.56716,-9.00458 15.89801,-10.2406 5.70284,-1.11341 7.81855,-1.67843 9.91962,-2.64917 2.02172,-0.93407 8.26661,-1.28432 8.26661,-0.46364 0,0.23487 -0.46327,2.95535 -1.02949,6.04552 -1.49021,8.13288 -1.48619,23.98757 0.008,32.14759 1.65478,9.03613 3.80528,15.70682 7.4681,23.16546 3.18647,6.48862 6.12065,10.58803 11.30222,15.79056 5.4186,5.44051 10.08712,8.46719 16.15335,10.47246 3.31843,1.09695 4.56488,1.25391 9.95733,1.25391 5.39245,0 6.6389,-0.15696 9.95733,-1.25391 6.06622,-2.00527 10.73475,-5.03195 16.15334,-10.47246 5.18157,-5.20253 8.11576,-9.30194 11.30222,-15.79056 3.71624,-7.5674 6.07507,-15.08002 7.71271,-24.56417 1.14618,-6.63792 1.14291,-22.79354 -0.006,-29.39492 -0.76899,-4.41843 -2.3126,-11.05245 -2.97089,-12.76791 -0.24047,-0.62667 0.14245,-0.74851 2.35239,-0.74851 2.20642,0 12.1315,1.29677 12.51722,1.63545 0.0657,0.0577 -0.19725,1.15352 -0.58425,2.43526 -1.97692,6.54742 -2.82617,13.94294 -2.79948,24.37879 0.0275,10.7575 0.80875,17.09512 3.06569,24.86956 3.74416,12.89747 8.82869,21.98137 16.76224,29.94701 5.4186,5.44051 10.08712,8.46719 16.15335,10.47246 3.31843,1.09695 4.56488,1.25391 9.95733,1.25391 5.39245,0 6.6389,-0.15696 9.95733,-1.25391 6.06622,-2.00527 10.73475,-5.03195 16.15334,-10.47246 2.62545,-2.63607 5.78115,-6.32788 7.01266,-8.20403 11.62791,-17.71457 15.84748,-42.56421 11.16555,-65.7556 -0.51978,-2.57468 -0.83161,-4.79468 -0.69296,-4.93333 0.65213,-0.65214 8.2645,-0.28895 10.9323,0.52158 3.26456,0.99184 10.20196,3.62993 10.90565,4.14711 0.26078,0.19167 2.28781,1.28192 4.5045,2.42278 4.8383,2.49012 9.95733,6.02909 9.95733,6.88386 0,0.33984 0.23048,0.6179 0.51219,0.6179 0.2817,0 1.4019,0.74491 2.48933,1.65536 1.08743,0.91045 2.93732,2.36024 4.11086,3.22174 1.18957,0.87328 2.20081,2.02954 2.28537,2.6131 0.0834,0.5757 0.59494,1.28397 1.13675,1.57393 1.66989,0.8937 3.87707,3.39786 4.96652,5.63478 3.43429,7.05142 5.59434,11.20598 6.58613,12.66746 1.73663,2.55906 5.39683,10.31609 6.16908,13.07407 0.38052,1.35899 0.90044,3.97539 1.15538,5.81423 0.25494,1.83883 0.7338,4.82602 1.06413,6.63821 l 0.6006,3.29489 h 3.40026 c 2.08575,0 3.63101,0.22914 3.99716,0.5927 0.32829,0.32599 0.94688,0.5927 1.37465,0.5927 1.57549,0 6.45852,2.88184 9.05599,5.3446 2.72368,2.58242 5.20586,6.74784 5.85682,9.82847 0.19287,0.91276 0.50097,1.87293 0.68467,2.13371 0.36766,0.52197 0.98563,2.61005 2.20596,7.45394 1.46125,5.80019 -0.0283,16.04855 -3.28239,22.58297 -1.45614,2.92403 -6.04823,7.31079 -8.99165,8.58958 -5.01464,2.17865 -5.60426,2.38822 -6.71911,2.38822 -2.39417,0 -3.38887,0.82526 -5.23518,4.3434 -2.56649,4.89045 -3.76247,6.42593 -10.65111,13.67462 -3.34575,3.52063 -6.8995,7.36131 -7.89723,8.53486 -1.97406,2.32192 -6.3617,6.17954 -9.1682,8.06069 -0.97267,0.65197 -2.92137,2.16257 -4.33044,3.35689 -2.59916,2.20305 -8.47362,5.65212 -9.62669,5.65212 -0.34703,0 -1.13983,0.37927 -1.76177,0.84281 -0.62194,0.46355 -1.98429,1.12998 -3.02744,1.48097 -1.04315,0.35098 -2.96349,1.1292 -4.26742,1.72937 -1.30394,0.60016 -3.54434,1.44164 -4.97867,1.86995 -1.43433,0.42832 -3.52041,1.19118 -4.63573,1.69525 -1.11532,0.50408 -2.46292,0.9165 -2.99466,0.9165 -0.53174,0 -1.41075,0.2376 -1.95336,0.52799 -0.5426,0.2904 -1.96883,0.77881 -3.1694,1.08537 -1.87298,0.47826 -2.55303,0.42999 -4.79071,-0.33998 -4.91452,-1.69108 -10.1391,-0.0631 -14.79911,4.61139 -2.55696,2.5649 -2.95382,2.77956 -7.11238,3.847 -11.5737,2.9708 -17.98178,4.44831 -21.23693,4.8966 -5.03967,0.69404 -17.8824,0.95205 -26.78996,0.5382 z m 21.10006,-43.21303 c 1.9559,-0.27235 6.65007,-1.21894 10.43148,-2.10355 3.78142,-0.88461 8.47559,-1.95901 10.43149,-2.38756 5.6408,-1.23594 11.88788,-3.06567 14.46183,-4.23578 9.25615,-4.20779 11.97381,-5.74596 18.2551,-10.33217 3.78142,-2.76095 8.35559,-5.82725 10.16482,-6.814 3.16144,-1.72424 14.10808,-9.64104 18.04761,-13.05235 1.95557,-1.69337 10.12282,-6.76851 10.39493,-6.45943 0.0842,0.0956 0.50057,0.85733 0.92532,1.69274 1.07252,2.10939 3.96407,4.84327 6.22362,5.88424 2.69425,1.24125 8.29743,1.19551 11.14272,-0.0909 2.64054,-1.19389 4.99141,-3.39871 6.27985,-5.88974 1.2243,-2.36703 1.36054,-7.70208 0.26137,-10.23499 -0.97864,-2.25517 -3.90263,-5.07179 -6.54122,-6.30101 -3.21804,-1.49917 -8.44661,-1.36219 -11.68224,0.30605 -4.08137,2.10428 -6.80994,6.14451 -6.80994,10.08356 0,1.43412 -1.17423,3.06436 -2.2072,3.06436 -0.35076,0 -0.63775,0.17719 -0.63775,0.39377 0,0.21657 -1.43175,1.23009 -3.18166,2.25225 -1.74991,1.02217 -4.352,2.81865 -5.78241,3.99219 -1.43041,1.17355 -3.50169,2.77383 -4.60283,3.55619 -1.10114,0.78236 -3.67331,2.71506 -5.71593,4.29489 -2.04262,1.57982 -5.35926,3.80465 -7.37031,4.94406 -2.01104,1.13941 -6.49184,4.17096 -9.95732,6.73677 -3.46549,2.56581 -6.62094,4.80315 -7.01212,4.97188 -0.39118,0.16872 -1.24467,0.66023 -1.89663,1.09223 -0.65197,0.43201 -3.85254,1.9172 -7.11238,3.30044 -5.86919,2.49046 -12.28503,4.34694 -21.53353,6.2309 -2.63025,0.5358 -6.80929,1.51081 -9.28677,2.16671 -3.84821,1.01878 -6.19705,1.26104 -16.12139,1.66272 -17.62143,0.71324 -35.91826,0.18658 -45.04505,-1.29658 -21.58382,-3.50751 -21.44871,-3.47756 -36.51021,-8.09165 -2.99905,-0.91876 -6.19962,-1.89205 -7.11237,-2.16287 -8.47892,-2.51577 -27.33056,-11.65814 -36.63528,-17.7668 -1.88712,-1.23891 -3.85786,-2.49338 -4.37943,-2.7877 -0.52158,-0.29433 -2.76197,-1.54418 -4.97867,-2.77746 -2.21669,-1.23328 -5.91445,-3.45453 -8.21726,-4.93612 -2.30281,-1.48158 -5.18332,-3.33391 -6.40114,-4.11627 -2.16082,-1.38817 -2.22092,-1.49241 -2.49186,-4.32236 -0.41935,-4.38005 -3.21034,-8.11416 -7.44509,-9.96089 -2.40542,-1.04899 -8.30729,-1.05134 -10.66147,-0.004 -2.59353,1.15354 -5.576,4.02215 -6.61472,6.3622 -1.14086,2.57013 -1.19181,7.27075 -0.10816,9.97904 1.01115,2.52711 4.72173,5.88189 7.38992,6.6813 3.44884,1.03329 7.70318,0.76606 10.63428,-0.668 2.67067,-1.30663 5.73665,-4.41616 6.20867,-6.29687 0.15188,-0.60512 0.41071,-1.03442 0.57518,-0.954 0.63326,0.30965 6.44606,4.00304 8.7679,5.57104 1.34022,0.90508 3.43168,2.18531 4.64767,2.84495 5.05933,2.74452 11.17411,6.38666 12.7251,7.57943 2.75312,2.11725 17.94805,10.24765 20.86297,11.16321 0.65197,0.20478 2.67899,1.06789 4.5045,1.91801 5.59558,2.60582 16.45271,6.25409 27.97535,9.40042 5.9912,1.63594 9.30521,2.30384 19.34641,3.89907 2.65962,0.42253 6.00922,0.97046 7.44355,1.21762 7.5779,1.3058 17.29328,1.73152 34.61357,1.51675 9.77951,-0.12126 19.38122,-0.4433 21.33713,-0.71564 z M 264.91571,396.7521 c 0.0985,-1.76031 0.0101,-3.40327 -0.19662,-3.65102 -0.76406,-0.91598 -1.52009,0.74875 -1.71253,3.77088 -0.18114,2.84475 -0.1224,3.08071 0.76693,3.08071 0.85522,0 0.98316,-0.35852 1.14222,-3.20057 z m -13.37464,-0.35562 c 0,-2.002 -0.16524,-2.60787 -0.71124,-2.60787 -0.546,0 -0.71124,0.60587 -0.71124,2.60787 0,2.002 0.16524,2.60787 0.71124,2.60787 0.546,0 0.71124,-0.60587 0.71124,-2.60787 z"
       id="path6699"
       transform="scale(0.26458333)" />
  </g>
</svg>
