<svg id="visual" viewBox="0 0 900 600" width="900" height="600" xmlns="http://www.w3.org/2000/svg" xmlns:xlink="http://www.w3.org/1999/xlink" version="1.1"><path d="M0 169L18.8 164C37.7 159 75.3 149 112.8 144C150.3 139 187.7 139 225.2 134C262.7 129 300.3 119 337.8 114C375.3 109 412.7 109 450.2 124C487.7 139 525.3 169 562.8 180C600.3 191 637.7 183 675.2 181C712.7 179 750.3 183 787.8 192C825.3 201 862.7 215 881.3 222L900 229L900 0L881.3 0C862.7 0 825.3 0 787.8 0C750.3 0 712.7 0 675.2 0C637.7 0 600.3 0 562.8 0C525.3 0 487.7 0 450.2 0C412.7 0 375.3 0 337.8 0C300.3 0 262.7 0 225.2 0C187.7 0 150.3 0 112.8 0C75.3 0 37.7 0 18.8 0L0 0Z" fill="#b87fff"></path><path d="M0 247L18.8 252C37.7 257 75.3 267 112.8 273C150.3 279 187.7 281 225.2 286C262.7 291 300.3 299 337.8 293C375.3 287 412.7 267 450.2 262C487.7 257 525.3 267 562.8 275C600.3 283 637.7 289 675.2 300C712.7 311 750.3 327 787.8 331C825.3 335 862.7 327 881.3 323L900 319L900 227L881.3 220C862.7 213 825.3 199 787.8 190C750.3 181 712.7 177 675.2 179C637.7 181 600.3 189 562.8 178C525.3 167 487.7 137 450.2 122C412.7 107 375.3 107 337.8 112C300.3 117 262.7 127 225.2 132C187.7 137 150.3 137 112.8 142C75.3 147 37.7 157 18.8 162L0 167Z" fill="#ad6bfe"></path><path d="M0 367L18.8 370C37.7 373 75.3 379 112.8 386C150.3 393 187.7 401 225.2 398C262.7 395 300.3 381 337.8 374C375.3 367 412.7 367 450.2 366C487.7 365 525.3 363 562.8 373C600.3 383 637.7 405 675.2 412C712.7 419 750.3 411 787.8 404C825.3 397 862.7 391 881.3 388L900 385L900 317L881.3 321C862.7 325 825.3 333 787.8 329C750.3 325 712.7 309 675.2 298C637.7 287 600.3 281 562.8 273C525.3 265 487.7 255 450.2 260C412.7 265 375.3 285 337.8 291C300.3 297 262.7 289 225.2 284C187.7 279 150.3 277 112.8 271C75.3 265 37.7 255 18.8 250L0 245Z" fill="#a155fd"></path><path d="M0 427L18.8 429C37.7 431 75.3 435 112.8 438C150.3 441 187.7 443 225.2 440C262.7 437 300.3 429 337.8 423C375.3 417 412.7 413 450.2 413C487.7 413 525.3 417 562.8 430C600.3 443 637.7 465 675.2 470C712.7 475 750.3 463 787.8 455C825.3 447 862.7 443 881.3 441L900 439L900 383L881.3 386C862.7 389 825.3 395 787.8 402C750.3 409 712.7 417 675.2 410C637.7 403 600.3 381 562.8 371C525.3 361 487.7 363 450.2 364C412.7 365 375.3 365 337.8 372C300.3 379 262.7 393 225.2 396C187.7 399 150.3 391 112.8 384C75.3 377 37.7 371 18.8 368L0 365Z" fill="#943dfc"></path><path d="M0 511L18.8 509C37.7 507 75.3 503 112.8 502C150.3 501 187.7 503 225.2 501C262.7 499 300.3 493 337.8 494C375.3 495 412.7 503 450.2 500C487.7 497 525.3 483 562.8 487C600.3 491 637.7 513 675.2 522C712.7 531 750.3 527 787.8 521C825.3 515 862.7 507 881.3 503L900 499L900 437L881.3 439C862.7 441 825.3 445 787.8 453C750.3 461 712.7 473 675.2 468C637.7 463 600.3 441 562.8 428C525.3 415 487.7 411 450.2 411C412.7 411 375.3 415 337.8 421C300.3 427 262.7 435 225.2 438C187.7 441 150.3 439 112.8 436C75.3 433 37.7 429 18.8 427L0 425Z" fill="#8636e7"></path><path d="M0 571L18.8 567C37.7 563 75.3 555 112.8 552C150.3 549 187.7 551 225.2 554C262.7 557 300.3 561 337.8 561C375.3 561 412.7 557 450.2 553C487.7 549 525.3 545 562.8 548C600.3 551 637.7 561 675.2 566C712.7 571 750.3 571 787.8 568C825.3 565 862.7 559 881.3 556L900 553L900 497L881.3 501C862.7 505 825.3 513 787.8 519C750.3 525 712.7 529 675.2 520C637.7 511 600.3 489 562.8 485C525.3 481 487.7 495 450.2 498C412.7 501 375.3 493 337.8 492C300.3 491 262.7 497 225.2 499C187.7 501 150.3 499 112.8 500C75.3 501 37.7 505 18.8 507L0 509Z" fill="#792ed2"></path><path d="M0 601L18.8 601C37.7 601 75.3 601 112.8 601C150.3 601 187.7 601 225.2 601C262.7 601 300.3 601 337.8 601C375.3 601 412.7 601 450.2 601C487.7 601 525.3 601 562.8 601C600.3 601 637.7 601 675.2 601C712.7 601 750.3 601 787.8 601C825.3 601 862.7 601 881.3 601L900 601L900 551L881.3 554C862.7 557 825.3 563 787.8 566C750.3 569 712.7 569 675.2 564C637.7 559 600.3 549 562.8 546C525.3 543 487.7 547 450.2 551C412.7 555 375.3 559 337.8 559C300.3 559 262.7 555 225.2 552C187.7 549 150.3 547 112.8 550C75.3 553 37.7 561 18.8 565L0 569Z" fill="#6c27be"></path></svg>