<svg id="visual" viewBox="0 0 900 600" width="900" height="600" xmlns="http://www.w3.org/2000/svg" xmlns:xlink="http://www.w3.org/1999/xlink" version="1.1"><rect x="0" y="0" width="900" height="600" fill="#001220"></rect><defs><linearGradient id="grad1_0" x1="33.3%" y1="0%" x2="100%" y2="100%"><stop offset="20%" stop-color="#fbae3c" stop-opacity="1"></stop><stop offset="80%" stop-color="#fbae3c" stop-opacity="1"></stop></linearGradient></defs><defs><linearGradient id="grad1_1" x1="33.3%" y1="0%" x2="100%" y2="100%"><stop offset="20%" stop-color="#fbae3c" stop-opacity="1"></stop><stop offset="80%" stop-color="#96446e" stop-opacity="1"></stop></linearGradient></defs><defs><linearGradient id="grad1_2" x1="33.3%" y1="0%" x2="100%" y2="100%"><stop offset="20%" stop-color="#001220" stop-opacity="1"></stop><stop offset="80%" stop-color="#96446e" stop-opacity="1"></stop></linearGradient></defs><defs><linearGradient id="grad2_0" x1="0%" y1="0%" x2="66.7%" y2="100%"><stop offset="20%" stop-color="#fbae3c" stop-opacity="1"></stop><stop offset="80%" stop-color="#fbae3c" stop-opacity="1"></stop></linearGradient></defs><defs><linearGradient id="grad2_1" x1="0%" y1="0%" x2="66.7%" y2="100%"><stop offset="20%" stop-color="#96446e" stop-opacity="1"></stop><stop offset="80%" stop-color="#fbae3c" stop-opacity="1"></stop></linearGradient></defs><defs><linearGradient id="grad2_2" x1="0%" y1="0%" x2="66.7%" y2="100%"><stop offset="20%" stop-color="#96446e" stop-opacity="1"></stop><stop offset="80%" stop-color="#001220" stop-opacity="1"></stop></linearGradient></defs><g transform="translate(900, 0)"><path d="M0 432.7C-63.2 434.7 -126.5 436.8 -165.6 399.7C-204.7 362.7 -219.6 286.6 -236.2 236.2C-252.7 185.7 -270.9 161 -304 125.9C-337 90.8 -384.8 45.4 -432.7 0L0 0Z" fill="#3d3056"></path><path d="M0 288.4C-42.2 289.8 -84.3 291.2 -110.4 266.5C-136.4 241.8 -146.4 191.1 -157.4 157.4C-168.5 123.8 -180.6 107.3 -202.6 83.9C-224.7 60.5 -256.5 30.3 -288.4 0L0 0Z" fill="#e1685e"></path><path d="M0 144.2C-21.1 144.9 -42.2 145.6 -55.2 133.2C-68.2 120.9 -73.2 95.5 -78.7 78.7C-84.2 61.9 -90.3 53.7 -101.3 42C-112.3 30.3 -128.3 15.1 -144.2 0L0 0Z" fill="#fbae3c"></path></g><g transform="translate(0, 600)"><path d="M0 -432.7C54.6 -411.7 109.2 -390.7 149.2 -360.3C189.3 -329.9 214.9 -290.2 259.5 -259.5C304.1 -228.9 367.7 -207.3 399.7 -165.6C431.8 -123.8 432.2 -61.9 432.7 0L0 0Z" fill="#3d3056"></path><path d="M0 -288.4C36.4 -274.5 72.8 -260.5 99.5 -240.2C126.2 -220 143.3 -193.4 173 -173C202.7 -152.6 245.1 -138.2 266.5 -110.4C287.8 -82.6 288.1 -41.3 288.4 0L0 0Z" fill="#e1685e"></path><path d="M0 -144.2C18.2 -137.2 36.4 -130.2 49.7 -120.1C63.1 -110 71.6 -96.7 86.5 -86.5C101.4 -76.3 122.6 -69.1 133.2 -55.2C143.9 -41.3 144.1 -20.6 144.2 0L0 0Z" fill="#fbae3c"></path></g></svg>