<!--?xml version="1.0" standalone="no"?-->
              <svg id="sw-js-blob-svg" viewBox="0 0 100 100" xmlns="http://www.w3.org/2000/svg" version="1.1">
                    <defs> 
                        <linearGradient id="sw-gradient" x1="0" x2="1" y1="1" y2="0">
                            <stop id="stop1" stop-color="rgba(241.248, 244.826, 49.846, 1)" offset="0%"></stop>
                            <stop id="stop2" stop-color="rgba(251, 180.513, 31, 1)" offset="100%"></stop>
                        </linearGradient>
                    </defs>
                <path fill="url(#sw-gradient)" d="M22.7,-27.3C29.9,-21.1,36.5,-14.3,38.1,-6.6C39.6,1.2,36.2,10.1,31.3,17.8C26.5,25.6,20.3,32.2,13.2,33.7C6.1,35.2,-2,31.5,-10.7,28.7C-19.4,25.9,-28.7,23.9,-32.6,18.3C-36.6,12.6,-35.2,3.3,-31.6,-3.5C-27.9,-10.4,-22,-14.8,-16.4,-21.2C-10.7,-27.7,-5.4,-36.2,1.2,-37.6C7.8,-39.1,15.6,-33.4,22.7,-27.3Z" width="100%" height="100%" transform="translate(50 50)" stroke-width="0" style="transition: all 0.3s ease 0s;"></path>
              </svg>